<?xml version="1.0" encoding="utf-8"?>
<!-- Generator: Adobe Illustrator 22.0.0, SVG Export Plug-In . SVG Version: 6.00 Build 0)  -->
<svg version="1.1" id="Layer_1" xmlns="http://www.w3.org/2000/svg" xmlns:xlink="http://www.w3.org/1999/xlink" x="0px" y="0px"
	 viewBox="0 0 1440 810" style="enable-background:new 0 0 1440 810;" xml:space="preserve">
<style type="text/css">
	.st0{fill:#FFFFFF;}
	.st1{fill:#672E77;}
	.st2{fill:#B14214;}
	.st3{fill:#B46D21;}
	.st4{fill:#BFC3E7;}
	.st5{fill:#1A2341;}
	.st6{fill:#254D85;}
	.st7{fill:#1B2747;}
	.st8{fill:#83220E;}
	.st9{fill:#8B5828;}
	.st10{fill:#14171A;}
	.st11{fill:#202E2D;}
	.st12{fill:#F3632F;}
	.st13{fill:#FAB42C;}
	.st14{fill:#EAA819;}
	.st15{fill:#B33922;}
	.st16{fill:#FEE647;}
	.st17{fill:#F6882D;}
	.st18{fill:#B0B2B0;}
	.st19{fill:#F4F4F4;}
	.st20{fill:#0C0E1A;}
	.st21{fill:#20324F;}
	.st22{fill:#4F7DC8;}
	.st23{fill:#24375A;}
	.st24{fill:#C1EAEF;}
	.st25{fill:#83CDF1;}
	.st26{fill:#38BFF3;}
	.st27{fill:#229ACA;}
	.st28{fill:#B2DE59;}
	.st29{fill:#276A5A;}
	.st30{fill:#45BFA0;}
	.st31{fill:#D7D3D5;}
	.st32{fill:#191821;}
</style>
<g id="surface1">
	<rect class="st0" width="1440" height="810"/>
	<rect class="st0" width="1440" height="810"/>
	<rect class="st0" width="1440" height="810"/>
	<path class="st1" d="M715.7,736.6c-4.5-1.1-8.9-2.2-13.2-3.2c-31.9-7.6-64.2-15.8-95.1-26.8c-31.5-11.2-65.7-35.2-78.4-67.9
		c-9.6-24.6-4.4-52.8,4.7-76.8c60.2-160.9,66.6-143.5-9.5-256.9C448,191.7,469.5,39.9,633.1,27c73.4-5.8,112.6,48.7,146.4,103.2
		c41.5,67,74.9,133.9,153.5,89c142.7-81.4,158.5,80,142.7,188c-15.9,108-177.6,101-104.6,199.7c22.7,30.8,24.8,85.5-1.7,113.5
		C905.2,788.2,796.2,756.7,715.7,736.6"/>
	<path class="st2" d="M733.7,592.3c-19.7,0-37.8-13.3-42.9-33.2l-44.9-173l-1.5-5.7l-15.9-61.3c-0.1-0.2-0.1-0.4-0.1-0.7l13.5-3.5
		l0.8,3.3h0l57.7,222.5l1.1,4.4c5.2,19.9,23.2,33.2,42.9,33.2c3.7,0,7.4-0.5,11.1-1.4l93.7-24.3c6.8-1.8,12.8-5,17.8-9.4
		c-5.5,11.2-15.7,20.1-28.6,23.5l-93.7,24.3C741,591.8,737.3,592.3,733.7,592.3"/>
	<path class="st3" d="M528.4,651.1c-55.2,0-100-44.8-100-100.1c0-13.9,2.9-27.2,8-39.3c3.5-8.2,8.1-15.8,13.5-22.6
		c18.3-23.2,46.7-38.1,78.5-38.1c1.5,0,2.9,0,4.4,0.1c1.4,0.1,2.8,0.2,4.1,0.3h0c12.2,1,23.8,4.3,34.4,9.3
		c-7.8,24-20.5,55.4-37.7,101.2c-9,24.1-14.3,52.2-4.7,76.8c1.6,4.2,3.6,8.2,5.9,12.1C532.7,651,530.6,651.1,528.4,651.1 M537,451.4
		L537,451.4L537,451.4"/>
	<path class="st2" d="M534.9,650.9c-2.3-3.9-4.3-7.9-5.9-12.1c-9.6-24.6-4.4-52.8,4.7-76.8c17.2-45.8,29.9-77.2,37.7-101.2
		c8.4,4,16.2,9.2,23.1,15.2l-0.1-0.1c0.2,0.2,0.4,0.4,0.6,0.6c1.3,1.2,2.6,2.4,3.9,3.7c0.2,0.2,0.4,0.4,0.6,0.6
		c1.5,1.5,3,3.1,4.4,4.7c5,5.7,9.4,12.1,13,18.8c0.1,0.2,0.2,0.4,0.3,0.6c0.7,1.3,1.3,2.6,1.9,3.9c0.2,0.4,0.3,0.7,0.5,1.1
		c0.5,1.2,1,2.3,1.5,3.5c0.2,0.5,0.4,0.9,0.6,1.4c0.4,1.1,0.8,2.2,1.2,3.3c0.2,0.6,0.4,1.1,0.6,1.7c0.4,1.1,0.7,2.1,1,3.2
		c0.2,0.6,0.4,1.2,0.5,1.8c0.3,1.1,0.6,2.1,0.8,3.2c0.2,0.6,0.3,1.3,0.4,1.9c0.2,1.1,0.4,2.1,0.6,3.2c0.1,0.7,0.3,1.3,0.4,2
		c0.2,1.1,0.3,2.2,0.5,3.3c0.1,0.6,0.2,1.3,0.2,1.9c0.1,1.2,0.2,2.4,0.3,3.6c0,0.6,0.1,1.1,0.1,1.7c0.1,1.8,0.1,3.6,0.1,5.4
		c0,0.8,0,1.6-0.1,2.4c-0.3,11.5-2.5,22.6-6.3,32.9c-2.3,6-5.1,11.7-8.4,17.1C597.1,630.3,568.2,648.7,534.9,650.9"/>
	<path class="st4" d="M639.2,304.3c0.1,0.2,0.1,0.4,0.1,0.7l62.2,240c6.1,23.6,30.4,37.9,54,31.8l93.7-24.3
		c23.6-6.1,37.8-30.4,31.7-54l-62.3-240c0-0.2-0.1-0.4-0.2-0.6L639.2,304.3"/>
	<path class="st5" d="M879.8,494.1l-179.4,46.5l-57.7-222.5l179.4-46.5L879.8,494.1"/>
	<path class="st6" d="M715.5,299.3l-72.7,18.9l14,53.9C676.3,347.8,695.9,323.6,715.5,299.3"/>
	<path class="st6" d="M859.2,414.5l-13.5-52C797.8,421.7,749.9,481,702,540.3l70.2-18.2L859.2,414.5"/>
	<path class="st6" d="M837,505.2l42.8-11.1l-8.2-31.7L837,505.2"/>
	<path class="st7" d="M810.8,537.5c2.1,8-2.7,16.2-10.7,18.3c-8,2.1-16.2-2.7-18.3-10.7c-2.1-8,2.7-16.2,10.7-18.3
		C800.6,524.7,808.7,529.5,810.8,537.5"/>
	<path class="st2" d="M581.4,261.7l-7-3.5l-12.7-6.5l-19.7-10c7.3-14.3,19.3-16.6,19.3-16.6l-7-3.5l4.1-8.1l18.2,9.2l-4.4-2.2
		l18.7-36.9c-10.6-10.5-4.4-35.2,1.4-51.5c0-5.7-0.7-14.7-4.6-14.7c-0.4,0-0.8,0.1-1.3,0.3c-7.2,3,3.2,21.1-0.7,32.8
		c-1.8,5.3-5.9,7.4-9.6,7.4c-4.5,0-8.5-3-7.3-6.8c1.1-3.3,3-4.1,4.7-4.1c2,0,3.8,1.1,3.8,1.1s-0.2,0-0.4,0c-1.1,0-3.9,0.2-3.8,2.7
		c0,1.2,1.7,2,3.7,2c3.1,0,7.1-2.1,6.6-8.3c-0.7-10-13.6-33.2,3.1-33.2c0.1,0,0.1,0,0.2,0c5.4,0,8.5,7.3,9.6,10.6
		c0.7-1.6,1.2-2.8,1.6-3.7l-1.1-0.6l2-4l52.3,26.5l-2,4l-1.1-0.6c-0.5,0.8-1.2,2.1-2.1,3.5c1.7-0.5,4.6-1.3,7.4-1.3
		c2.7,0,5.3,0.7,6.9,2.8c10.1,13.5-16.3,16.9-24.8,22.2c-7.7,4.8-2.6,12.2,0.3,12.2c0.3,0,0.6-0.1,0.8-0.2c2.5-1.7-0.3-5-0.3-5
		s6.9,2.7,2.6,8.6c-0.9,1.3-2.2,1.8-3.5,1.8c-5.1,0-11.7-7.8-6-15.8c7.2-10.1,27.9-12.4,26-20c-0.4-1.6-1.5-2.3-2.9-2.3
		c-3.4,0-8.7,3.5-12.2,6c-9.2,13.5-24.2,31.8-38.2,31.8c-0.8,0-1.6-0.1-2.4-0.2l-18.7,36.9l13.8,7l-4.1,8.1l-7-3.5
		C583.4,236.3,588.7,247.4,581.4,261.7"/>
	<path class="st2" d="M583,273.5l-51.5-26.1l4.4-8.8l38.5,19.5l7,3.5l6,3.1L583,273.5"/>
	<path class="st8" d="M581.4,261.7l-7-3.5L581.4,261.7"/>
	<path class="st3" d="M952.5,558.5c0.6-7,3.1-13.3,6.9-19.2l6.1,6.1l-12.9,12.9L952.5,558.5"/>
	<path class="st2" d="M938.8,572.2L882,515.3c0.7-5.5,0.4-11.2-1-16.8l-21.3-82.1l63.7,24.5l-31.1,31.1l67.2,67.2
		c-3.8,5.9-6.3,12.2-6.9,19.2L938.8,572.2"/>
	<path class="st9" d="M834.4,530l-8.4-21.9l11.1-2.9v0l42.8-11.1l-20.1-77.7l21.3,82.1c1.5,5.7,1.8,11.4,1,16.8l-16.5-16.5
		L834.4,530"/>
	<path class="st10" d="M825.9,508.1l-13.7-35.6l45.8-56.7l1.6,0.6l20.1,77.7l-8.2-31.7L837,505.2L825.9,508.1 M794.4,426l-14.7-38.2
		l-0.5-0.5l1.5-1.5l0.5,0.5l34.5,13.3C808.6,408.3,801.5,417.1,794.4,426"/>
	<path class="st11" d="M812.3,472.5L794.4,426c7.1-8.8,14.2-17.6,21.4-26.4l42.4,16.3L812.3,472.5"/>
	<path class="st11" d="M837,505.2L837,505.2l34.6-42.8l8.2,31.7L837,505.2"/>
	<path class="st3" d="M870,775.7l-17.2-14.1c2.3,0.1,4.7,0.1,7,0.1c7.7,0,15.3-0.3,22.7-1.1L870,775.7"/>
	<path class="st2" d="M859.8,761.7c-2.3,0-4.6,0-7-0.1l-28.3-23.3l3.8-4.7l-21.3-17.6c-9.1,7.7-20.5,11.7-32,11.7
		c-11.1,0-22.2-3.7-31.4-11.3c-21.1-17.4-24.2-48.6-6.8-69.8c9.8-11.9,24-18.1,38.3-18.1c11.1,0,22.2,3.7,31.4,11.3
		c18.8,15.5,23.2,41.8,11.8,62.3l21.3,17.6l3.8-4.7l45.5,37.4l-6.6,8C875.1,761.3,867.5,761.7,859.8,761.7"/>
	<path class="st3" d="M899.1,232.5c9.8-15.7,27.2-26.1,46.8-26.1c0.9,0,1.9,0,2.8,0.1c2.7,0.1,5.3,0.5,7.8,1
		c-7.4,3.1-15.2,7-23.4,11.7C920.7,226.2,909.5,230.5,899.1,232.5"/>
	<path class="st2" d="M946,316.6c-0.9,0-1.9,0-2.8-0.1c-30.4-1.5-53.8-27.4-52.2-57.8c0.5-9.6,3.4-18.6,8.2-26.2
		c10.4-2,21.6-6.3,34-13.3c8.2-4.7,16-8.6,23.4-11.7c26.5,5.2,45.8,29.1,44.4,56.9C999.4,293.8,975.1,316.6,946,316.6"/>
	<path class="st12" d="M659.3,136.9c0,0,11.7-4.7,15.9,0.9c10.1,13.5-16.3,16.9-24.8,22.2c-8.5,5.3-1.5,13.7,1.1,12
		c2.5-1.7-0.3-5-0.3-5s6.9,2.7,2.6,8.6c-4.3,6-16.7-3.9-9.5-14c7.2-10.1,27.9-12.4,26-20c-1.9-7.6-18.6,6.5-18.6,6.5L659.3,136.9"/>
	<path class="st12" d="M611.9,112.9c0,0-3.1-12.2-10.2-12.3c-16.9-0.1-4,23.2-3.2,33.2c0.7,10-10.2,9.3-10.3,6.3s4.2-2.7,4.2-2.7
		s-6.2-4-8.5,3c-2.3,7,13,11.2,16.9-0.6c3.9-11.8-6.5-29.8,0.7-32.8c7.2-3,5.8,18.9,5.8,18.9L611.9,112.9"/>
	<path class="st12" d="M606.9,171l-19.6,38.7l8.4,4.3l19.6-38.7L606.9,171"/>
	<path class="st13" d="M638.8,118.6l-25.1-12.7c0,0-27.5,57.7-3.8,69.7c23.7,12,54-44.3,54-44.3L638.8,118.6"/>
	<path class="st14" d="M605.5,229.1l-36.1-18.3l4.1-8.1l36.1,18.3L605.5,229.1"/>
	<path class="st12" d="M598.6,225.6l-11.1-5.6l-11.1-5.6c0,0-12,2.3-19.3,16.6l19.7,10l19.7,10C603.8,236.6,598.6,225.6,598.6,225.6
		"/>
	<path class="st12" d="M666.1,129.4l-52.2-26.5l-2,3.9l52.2,26.5L666.1,129.4"/>
	<path class="st15" d="M598.2,262.8l-51.5-26.1l4.4-8.8l51.6,26.1L598.2,262.8"/>
	<path class="st16" d="M632.2,143.6c-1.1,5.9-6.2,10.6-11.8,12.9c-2.8,1.2-7.5,2.3-8.4,5.8c-1.1,4,3.9,6.3,7.1,6.9
		c8.6,1.7,16.4-4.6,21.9-10.3c4.4-4.6,9.2-9.2,12.4-14.7c3.2-5.5,2.2-10.4-3.1-13.8c-7.9-5-17-9-25.5-12.9c-0.8-0.3-5.7-3.3-6.7-2.2
		c-1,1.2,5.2,6.6,5.9,7.4c4.2,4.5,7.9,11.1,8.4,17.3C632.5,141.2,632.4,142.4,632.2,143.6"/>
	<path class="st17" d="M586.1,219.3c0,0,6.7,11.9,1.4,27.1l5.6,2.8c0,0,7.4-13.9,5.5-23.6L586.1,219.3"/>
	<path class="st18" d="M938.5,430.2l-142.2-54.7l-0.5-0.5l-1.5,1.5l0.5,0.5l54.7,142.2l31.1-31.1l73.3,73.4l26.8-26.8l-73.3-73.4
		L938.5,430.2"/>
	<path class="st19" d="M967.8,547.6L795.5,375.3l-1.2,1.2l0.5,0.5l54.7,142.2l31.1-31.1l73.3,73.4L967.8,547.6"/>
	<path class="st20" d="M857.9,711.5l-28.7-23.6l-11.3,13.8l28.7,23.6L857.9,711.5"/>
	<path class="st21" d="M904.3,741.8l-19,23.1l-45.5-37.5l19-23.1L904.3,741.8"/>
	<path class="st22" d="M817.4,689.8c-12.3,15-34.4,17.1-49.4,4.8c-15-12.3-17.1-34.5-4.8-49.4c12.3-15,34.4-17.1,49.4-4.8
		C827.5,652.6,829.7,674.8,817.4,689.8z M752,636c-17.4,21.1-14.3,52.4,6.8,69.8c21.1,17.4,52.4,14.4,69.8-6.8
		c17.4-21.1,14.3-52.4-6.8-69.8C800.6,611.8,769.4,614.8,752,636"/>
	<path class="st23" d="M824.2,695c-15.4,18.8-43.9,21.5-62.7,6.1c-18.7-15.4-21.5-43.9-6.1-62.7c15.4-18.8,43.9-21.5,62.7-6.1
		C836.8,647.7,839.6,676.2,824.2,695z M752,636c-17.4,21.1-14.3,52.4,6.8,69.8c21.1,17.4,52.4,14.4,69.8-6.8
		c17.4-21.1,14.3-52.4-6.8-69.8C800.6,611.8,769.4,614.8,752,636"/>
	<path class="st24" d="M817.4,689.8c-12.3,15-34.4,17.1-49.4,4.8c-15-12.3-17.1-34.5-4.8-49.4c12.3-15,34.4-17.1,49.4-4.8
		C827.5,652.6,829.7,674.8,817.4,689.8"/>
	<path class="st25" d="M762.3,646.3c-11,14.6-9,35.2,4.6,47.4C765.4,677.8,763.8,662,762.3,646.3"/>
	<path class="st25" d="M782.7,633.2c-1.8,0.4-3.7,0.9-5.5,1.7c2.2,22.4,4.4,44.8,6.5,67.1c1.9,0.4,3.8,0.5,5.7,0.6L782.7,633.2"/>
	<path class="st25" d="M805.2,699.2c4.6-2.1,8.7-5.3,12.1-9.4c12.3-15,10.2-37.1-4.8-49.4c-4.1-3.4-8.8-5.7-13.7-6.9L805.2,699.2"/>
	<path class="st26" d="M494.2,553.6c-1.2,0.5-2.3,0-3.3-0.7c1.1,1.5,2.2,3,3.4,4.4C495.5,554.4,497,552.6,494.2,553.6"/>
	<path class="st26" d="M487.6,474c3-0.7,6.7-2.2,6.9-1.2c0.2,1.5-2.8,3.7-2.4,4.6c0.4,0.9,0.2,7-1.7,5c-1.9-1.9-3.4-1.2-7.7,1.6
		c-0.5,1.3-1,2.6-1.4,3.9c1.4,1.1,3.8,2.5,6.1,5.4c4.6,5.9,6.1,3.5,7.2,3.1c1.1-0.4-1.3-11.2,0.2-11.6c1.5-0.4,6.4-1.1,6.8,2
		c0.4,3.1,5.3-1.8,5.3,1.8s3.9,2.4,5.3,7.2c1.3,4.8-0.7,1.3-4.6,5.5c-3.9,4.2,3.7,1.3,3.7,5.3c0,3.9-1,4.9-4.3,3.3
		c-3.3-1.6-8.7,1-8.4,4.8c0.3,3.8-0.7,3.5-3.4,5.8c-2.8,2.3-3.6,2-2.5,6.1c1.1,4.1,0.3,6.6-1.2,5.1c-1.5-1.5-2.6-4.6-5.4-5.8
		c-2.8-1.2-1,2.5-2.1,1.6c-0.5-0.4-2.6-0.6-4.4,0.2c0.9,3.8,2.1,7.5,3.6,11c2.3-1.2,4.4-3.6,4.6-3.2c0.5,0.8-5.6,6.1-1.3,6.2
		c4.3,0.2,4.3,2.3,4.3,5.3c0,3,2.3,1.8,3.3,2.6c1,0.8,2.5-0.8,3.8-2.6c1.3-1.8,3.1-1.5,4.8,0c1.6,1.5,7,1.6,7,1.6s8.5,2.8,11.8,8.5
		c3.3,5.7,11.2,6.8,12.7,9.4c1.5,2.6-2,5-2,5c1.8,4.5-1.9,7.4-4.4,8.8c7.3,2.5,15.1,3.9,23.2,3.9c8.2,0,16.1-1.4,23.5-4
		c-0.9-2.1-1.7-4.5-1.6-6.7c0.2-4.8,0.9-8.3,0.2-10.5c-0.7-2.2-2.6-5-3.3-9c-0.7-3.9-6.8-0.4-9.2-0.7c-2.4-0.2-5.7,5.3-7.9-0.2
		c-2.2-5.5-3.9-7-4.8-9.6c-0.9-2.6,0.7-12.5,4.4-15.3c3.7-2.8,4.2-7.9,6.8-8.3c2.6-0.4,13.3-2,12.7-1.8c-0.7,0.2,0.7,2.9,4.2,5.5
		c3.5,2.6,4.8,0,4.8,0c5.5,1.5,13.6-1.5,14.4-3.5c0.9-2-6.8-1.5-7.7-2.2c-0.9-0.7-1.8,0.4-3.5,0.4c-1.8,0-1.3-3.5-3.5-5.5
		c-2.2-2-5.3-1.5-5.3-1.5s-3.1,0.4-6.6-0.9c-3.5-1.3-4.4,5.9-5.5,6.3c-1.1,0.4-9.2,2-9.2-0.2c0-2.2-3.7-5.7,4.2-6.6
		c7.9-0.9-1.1-5.7,2-4.8c3.1,0.9,2.2-1.3,3.7-3.5c1.5-2.2,10.3-4.4,12.5-5c2.2-0.7,15.1-16.9,17.1-16c2,0.9,6.6-4.6,13.8-6.4
		c2.8-0.7,4.6-1.3,5.8-1.9c-2.3-3.7-4.9-7.1-7.8-10.3c3.4,3,6.5,6.2,9.5,9.5l0,0c-16.6-19.1-40.2-31.8-66.9-34
		C522.3,438.8,499.9,453.2,487.6,474"/>
	<path class="st26" d="M615.2,530.2c-1.8-2.4-4.6,0.2-4.6,0.2s-2.4-5.5-6.8-3.5c-4.4,2,1.3,5.3,7,5.9c5.7,0.7,1.1,6.3,0,7.9
		c-1.1,1.5-8.1,4.6-8.1,4.6s-4-1.6-5-6.8c-1.1-5.2-5-10.5-5-10.5l1,7.4c0,0,5.1,9.2,8.4,12.4c3.3,3.2-0.2-2.3,5.3-2.1
		c5.5,0.2-0.7,5.5-2.4,11.2c-1.7,5.7-7.2,3.1-8.3,8.1c-0.2,0.9-0.2,1.9-0.1,2.8c11.2-9.1,19.7-21.3,24.1-35.3
		C618.9,531.9,616.6,532,615.2,530.2"/>
	<path class="st26" d="M543.4,437.4c1.4,0.1,2.8,0.2,4.2,0.3C546.2,437.6,544.8,437.5,543.4,437.4"/>
	<path class="st27" d="M637.4,519.4c0.1,0.7,0.3,1.3,0.3,2C637.7,520.8,637.5,520.1,637.4,519.4"/>
	<path class="st27" d="M638.2,524.7c0.1,0.7,0.2,1.3,0.2,1.9C638.4,526,638.3,525.4,638.2,524.7"/>
	<path class="st27" d="M638.8,530.3c0,0.6,0.1,1.1,0.1,1.7C638.9,531.4,638.8,530.8,638.8,530.3"/>
	<path class="st27" d="M635,509.3c0.2,0.6,0.3,1.2,0.5,1.8C635.4,510.5,635.2,509.9,635,509.3"/>
	<path class="st27" d="M636.3,514.3c0.2,0.6,0.3,1.3,0.4,1.9C636.7,515.6,636.5,515,636.3,514.3"/>
	<path class="st27" d="M627.4,490.5c0.1,0.2,0.2,0.4,0.3,0.6C627.6,491,627.5,490.7,627.4,490.5"/>
	<path class="st27" d="M629.7,495.1c0.2,0.4,0.3,0.7,0.5,1.1C630,495.8,629.8,495.4,629.7,495.1"/>
	<path class="st27" d="M633.5,504.4c0.2,0.6,0.4,1.1,0.6,1.6C633.9,505.5,633.7,505,633.5,504.4"/>
	<path class="st27" d="M631.7,499.7c0.2,0.5,0.4,0.9,0.6,1.4C632.1,500.6,631.9,500.2,631.7,499.7"/>
	<path class="st27" d="M477.2,535.4c1.3,4.4,3.6,4.3,5.7,3.2c-1.5-3.6-2.7-7.3-3.6-11C477.4,528.5,475.8,530.7,477.2,535.4"/>
	<path class="st27" d="M481.9,484.5c-2.5,1.6-2.2,2.4-0.8,3.5c0.4-1.3,0.9-2.6,1.4-3.9C482.4,484.2,482.2,484.3,481.9,484.5"/>
	<path class="st27" d="M605,462.2c2.9,3.2,5.5,6.6,7.8,10.3c0.7-0.3,1.2-0.6,1.7-0.8C611.5,468.3,608.3,465.1,605,462.2"/>
	<path class="st27" d="M616.1,591.7c-3.6,0-7.2-9.8-2.6-13.5c4.6-3.6,6.2-1,8.9-5.9s5.3-3.3,7.6-2.3c1.1,0.5,2,1.6,2.8,2.6
		c3.9-10.3,6.1-21.3,6.4-32.9c-1.2,1-2.5,2-4.1,2.9c-3.9,2.2,4.8,10.1-2,9.2c-6.8-0.9-7.7-12.7-7.7-12.7s-1.7-4.4-3.3-5.9
		c-0.4-0.4-0.9-0.6-1.4-0.8c-4.4,13.9-12.9,26.2-24.1,35.3c0.4,3.8,2.7,6.7-1,8c-4.6,1.5-1.5,6.6-5.5,16.9c-3.9,10.3-12.3,5-12.3,5
		c-3.1-4.8-1.3-10.1-1.5-12c-0.1-1-1.2-3-2.2-5.3c-7.4,2.6-15.3,4-23.5,4c-8.1,0-15.9-1.4-23.2-3.9c-1.2,0.7-2.2,1-2.2,1
		s-3.3,14.5-13.1,21.7c-9.8,7.2-8.5,22.6-8.5,22.6s-7,0-6.3-6c0.7-6-1.3-13.4,2-19.1c3.3-5.7,2.4-18.8,2.4-18.8s-3.5,0.7-4.2-4.2
		c-0.7-4.8-2.4-6.6-5-10.1c-2.6-3.5-0.2-3.3,0.9-7.7c0.2-0.9,0.6-1.8,0.9-2.6c-1.2-1.4-2.3-2.9-3.4-4.4c-1.9-1.4-3.2-3.9-3.2-3.9
		s-2.4-0.7-3.9-3.7c-1.5-3.1-2.8-2.8-2.8-2.8s-3.5,0.4-5.6-1.1c-2.1-1.5-3.2-1.3-4.3-3.7c-1.1-2.4-5.9-3.3-7.4-6.6
		c-1.5-3.3-0.2-6.3-5-9.2c-4.8-2.8-4.6-10.1-3.3-12.9c1.3-2.9-4.4-5.5-6.6-7.4c-0.9-0.8-1.3-2.1-1.7-3.4c-5.1,12.1-8,25.3-8,39.3
		c0,55.3,44.8,100.1,100,100.1c36,0,67.6-19.1,85.2-47.7C620.7,589.4,618.7,591.7,616.1,591.7"/>
	<path class="st27" d="M473.6,474.6c3.5,0.4,8.5-2.2,10.5-0.7c0.7,0.5,2,0.4,3.4,0.1c12.4-20.8,34.7-35.2,60-36.3h0
		c-1.4-0.1-2.8-0.2-4.2-0.3c-1.5-0.1-2.9-0.1-4.4-0.1c-31.8,0-60.2,14.9-78.5,38.1c0.4,0.3,0.7,0.6,1.1,0.9
		C466.2,480.3,470.1,474.1,473.6,474.6"/>
	<path class="st28" d="M455.3,508.9c-1.3,2.8-1.5,10.1,3.3,12.9c4.8,2.9,3.5,5.9,5,9.2c1.5,3.3,6.4,4.2,7.4,6.6
		c1.1,2.4,2.2,2.2,4.3,3.7c2.1,1.5,5.6,1.1,5.6,1.1s1.3-0.2,2.8,2.8c1.5,3.1,3.9,3.7,3.9,3.7s1.3,2.5,3.2,3.9c1,0.7,2.1,1.1,3.3,0.7
		c2.8-1,1.3,0.8,0,3.7c-0.3,0.8-0.7,1.7-0.9,2.6c-1.1,4.4-3.5,4.2-0.9,7.7c2.6,3.5,4.4,5.3,5,10.1c0.7,4.8,4.2,4.2,4.2,4.2
		s0.9,13.1-2.4,18.8c-3.3,5.7-1.3,13.1-2,19.1c-0.7,6,6.3,6,6.3,6s-1.3-15.4,8.5-22.6c9.8-7.2,13.1-21.7,13.1-21.7s1-0.3,2.2-1
		c2.5-1.4,6.2-4.4,4.4-8.8c0,0,3.5-2.4,2-5c-1.5-2.6-9.4-3.7-12.7-9.4c-3.3-5.7-11.8-8.5-11.8-8.5s-5.4-0.2-7-1.6
		c-1.6-1.5-3.4-1.8-4.8,0c-1.3,1.8-2.8,3.5-3.8,2.6c-1-0.8-3.3,0.3-3.3-2.6c0-3,0-5.1-4.3-5.3c-4.3-0.2,1.8-5.4,1.3-6.2
		c-0.3-0.4-2.3,2-4.6,3.2c-2.1,1.1-4.5,1.1-5.7-3.2c-1.4-4.7,0.2-6.9,2.1-7.8c1.8-0.8,3.9-0.6,4.4-0.2c1.1,0.8-0.7-2.8,2.1-1.6
		c2.8,1.1,3.9,4.3,5.4,5.8c1.5,1.5,2.3-1,1.2-5.1c-1.2-4.1-0.3-3.8,2.5-6.1c2.8-2.3,3.8-2,3.4-5.8c-0.3-3.8,5.1-6.4,8.4-4.8
		c3.3,1.6,4.3,0.7,4.3-3.3c0-3.9-7.7-1.1-3.7-5.3c3.9-4.2,5.9-0.7,4.6-5.5c-1.3-4.8-5.3-3.7-5.3-7.2s-4.8,1.3-5.3-1.8
		c-0.4-3.1-5.3-2.4-6.8-2c-1.5,0.4,0.9,11.2-0.2,11.6c-1.1,0.4-2.6,2.9-7.2-3.1c-2.2-2.9-4.7-4.3-6.1-5.4c-1.4-1.1-1.7-1.9,0.8-3.5
		c0.2-0.1,0.4-0.3,0.6-0.4c4.3-2.8,5.8-3.5,7.7-1.6c2,2,2.2-4.2,1.7-5c-0.4-0.9,2.6-3.1,2.4-4.6c-0.1-1-3.8,0.5-6.9,1.2
		c-1.5,0.3-2.8,0.4-3.4-0.1c-2-1.5-7,1.1-10.5,0.7c-3.5-0.4-7.4,5.7-12,1.7c-0.4-0.3-0.7-0.6-1.1-0.9c-5.4,6.9-10,14.5-13.5,22.6
		c0.3,1.4,0.8,2.6,1.7,3.4C450.9,503.5,456.6,506.1,455.3,508.9"/>
	<path class="st28" d="M612.8,472.5c-1.3,0.5-3,1.2-5.8,1.9c-7.2,1.8-11.8,7.2-13.8,6.4c-2-0.9-14.9,15.3-17.1,16
		c-2.2,0.7-10.9,2.8-12.5,5c-1.5,2.2-0.7,4.4-3.7,3.5c-3.1-0.9,5.9,3.9-2,4.8c-7.9,0.9-4.2,4.4-4.2,6.6c0,2.2,8.1,0.7,9.2,0.2
		c1.1-0.4,2-7.7,5.5-6.3c3.5,1.3,6.6,0.9,6.6,0.9s3.1-0.4,5.3,1.5c2.2,2,1.8,5.5,3.5,5.5c1.7,0,2.6-1.1,3.5-0.4
		c0.9,0.7,8.5,0.2,7.7,2.2c-0.9,2-9,5-14.4,3.5c0,0-1.3,2.6-4.8,0c-3.5-2.6-4.8-5.3-4.2-5.5c0.7-0.2-10.1,1.3-12.7,1.8
		c-2.6,0.4-3.1,5.5-6.8,8.3c-3.7,2.9-5.3,12.7-4.4,15.3c0.9,2.6,2.6,4.2,4.8,9.6c2.2,5.5,5.5,0,7.9,0.2c2.4,0.2,8.5-3.3,9.2,0.7
		c0.7,3.9,2.6,6.8,3.3,9c0.7,2.2,0,5.7-0.2,10.5c-0.1,2.3,0.7,4.7,1.6,6.7c1,2.3,2,4.3,2.2,5.3c0.2,2-1.5,7.2,1.5,12
		c0,0,8.3,5.3,12.3-5c3.9-10.3,0.9-15.3,5.5-16.9c3.7-1.2,1.4-4.2,1-8c-0.1-0.9-0.1-1.8,0.1-2.8c1.1-5,6.6-2.4,8.3-8.1
		c1.7-5.7,7.9-11,2.4-11.2c-5.5-0.2-2,5.3-5.3,2.1c-3.3-3.2-8.4-12.4-8.4-12.4l-1-7.4c0,0,4,5.3,5,10.5c1.1,5.2,5,6.8,5,6.8
		s7-3.1,8.1-4.6c1.1-1.5,5.7-7.2,0-7.9c-5.7-0.7-11.4-3.9-7-5.9c4.4-2,6.8,3.5,6.8,3.5s2.8-2.6,4.6-0.2c1.3,1.8,3.7,1.8,5.4,2.3
		c0.6,0.2,1,0.4,1.4,0.8c1.5,1.5,3.3,5.9,3.3,5.9s0.9,11.8,7.7,12.7c6.8,0.9-2-7,2-9.2c1.5-0.9,2.9-1.9,4.1-2.9
		c0-0.8,0.1-1.6,0.1-2.4c0-1.8-0.1-3.6-0.1-5.4c0-0.6-0.1-1.1-0.1-1.7c-0.1-1.2-0.2-2.4-0.3-3.6c-0.1-0.6-0.2-1.3-0.2-1.9
		c-0.1-1.1-0.3-2.2-0.5-3.3c-0.1-0.7-0.2-1.3-0.3-2c-0.2-1.1-0.4-2.1-0.6-3.2c-0.1-0.7-0.3-1.3-0.4-1.9c-0.3-1.1-0.5-2.1-0.8-3.2
		c-0.2-0.6-0.4-1.2-0.5-1.8c-0.3-1.1-0.7-2.2-1-3.2c-0.2-0.6-0.4-1.1-0.6-1.6c-0.4-1.1-0.8-2.2-1.2-3.3c-0.2-0.5-0.4-0.9-0.6-1.4
		c-0.5-1.2-1-2.4-1.5-3.5c-0.2-0.4-0.3-0.7-0.5-1.1c-0.6-1.3-1.3-2.6-1.9-3.9c-0.1-0.2-0.2-0.4-0.3-0.6c-3.6-6.8-8-13.1-12.9-18.8
		l0,0C614,471.9,613.4,472.2,612.8,472.5"/>
	<path class="st28" d="M629.9,570.1c-2.3-1-4.9-2.6-7.6,2.3s-4.3,2.3-8.9,5.9c-4.6,3.6-1,13.5,2.6,13.5c2.6,0,4.7-2.3,8.2-2
		c3.3-5.4,6.1-11.1,8.4-17.1C631.8,571.7,631,570.6,629.9,570.1"/>
	<path class="st29" d="M1016.1,253.6c-1.5,30.4-27.4,53.8-57.8,52.2c-30.4-1.5-53.7-27.4-52.2-57.8c1.5-30.4,27.4-53.8,57.8-52.2
		C994.3,197.3,1017.6,223.2,1016.1,253.6"/>
	<path class="st30" d="M1003.7,250.8c0,23.6-19.1,42.7-42.6,42.7c-23.6,0-42.7-19.1-42.7-42.7s19.1-42.7,42.7-42.7
		C984.6,208.1,1003.7,227.2,1003.7,250.8"/>
	<path class="st0" d="M961.5,254.4l15.5,25.1l-13.2-26.7L961.5,254.4z"/>
	<path class="st0" d="M957.8,249.2l3.5-33.7l2.5,33.7H957.8z"/>
	<path class="st31" d="M964.6,250.6c0,2.1-1.7,3.8-3.8,3.8s-3.8-1.7-3.8-3.8s1.7-3.8,3.8-3.8S964.6,248.6,964.6,250.6"/>
	<path class="st32" d="M962.3,250.6c0,0.8-0.6,1.4-1.4,1.4s-1.4-0.6-1.4-1.4c0-0.8,0.6-1.4,1.4-1.4S962.3,249.9,962.3,250.6"/>
</g>
</svg>
