<svg width="1477" height="1057" viewBox="0 0 1477 1057" fill="none" xmlns="http://www.w3.org/2000/svg">
<g clip-path="url(#clip0)">
<path d="M1217.92 698.088C1111.25 935.509 829.617 1037.52 609.014 1020.1C548.758 1015.35 427.55 1005.81 332.912 920.594C151.138 756.937 179.139 414.818 353.139 213.413C375.532 187.488 530.658 13.7029 772.339 16.023C949.278 17.717 1073.5 112.914 1088.59 124.772C1107.65 139.76 1149.73 175.335 1187.67 231.827C1276.74 364.513 1284.59 549.714 1217.92 698.088Z" fill="#C8E0BD"/>
<path d="M1091.02 1040.54H670.856C642.932 1040.54 620.578 1018.41 621.7 991.853L642.739 484.899C643.783 459.783 665.48 439.897 691.895 439.897H1075.55C1102.16 439.897 1123.97 460.041 1124.75 485.378L1140.18 992.332C1140.99 1018.74 1118.75 1040.54 1091.02 1040.54Z" fill="#F2A007"/>
<path d="M987.18 391.617C976.158 391.617 966.798 383.884 965.251 373.462L942.897 222.657H818.982L796.627 373.462C795.08 383.884 785.721 391.617 774.699 391.617C756.018 391.617 740.858 406.053 740.858 423.84V466.67H1021.06V423.84C1021.02 406.053 1005.9 391.617 987.18 391.617Z" fill="#F2A007"/>
<path d="M950.439 248.141H811.44C809.777 248.141 808.423 246.852 808.423 245.268V206.785C808.423 205.201 809.777 203.912 811.44 203.912H880.939H950.439C952.102 203.912 953.455 205.201 953.455 206.785V245.268C953.455 246.852 952.102 248.141 950.439 248.141Z" fill="#744F8C"/>
<path d="M950.632 203.912H811.633C809.97 203.912 808.617 202.623 808.617 201.04V60.62C808.617 59.0364 809.97 57.7475 811.633 57.7475H950.632C952.295 57.7475 953.649 59.0364 953.649 60.62V201.003C953.649 202.623 952.295 203.912 950.632 203.912Z" fill="#744F8C"/>
<path d="M879.006 529.717C914.783 529.717 943.786 502.1 943.786 468.032C943.786 433.965 914.783 406.348 879.006 406.348C843.228 406.348 814.225 433.965 814.225 468.032C814.225 502.1 843.228 529.717 879.006 529.717Z" fill="#744F8C"/>
<path d="M1032.86 876.955H725.078C712.316 876.955 702.221 866.754 702.956 854.638L717.266 619.316C717.962 608.158 727.67 599.43 739.388 599.43H1032.82C1045.08 599.43 1054.98 608.894 1054.98 620.531V855.853C1055.02 867.527 1045.12 876.955 1032.86 876.955Z" fill="#744F8C"/>
<path d="M660.027 653.049C659.988 653.049 659.911 653.049 659.872 653.012C659.176 652.828 659.021 652.791 660.143 632.758C660.761 621.82 661.69 606.206 662.927 586.356C665.209 550.192 668.032 508.026 669.502 486.151C670.198 475.876 678.861 467.959 689.691 467.738L740.316 466.743C740.703 466.743 740.974 467.001 740.974 467.369C740.974 467.701 740.703 467.996 740.316 467.996L689.691 468.99C679.558 469.174 671.436 476.613 670.778 486.225C664.049 586.209 660.259 647.893 660.607 652.092C660.723 652.276 660.723 652.497 660.645 652.681C660.529 652.902 660.259 653.049 660.027 653.049Z" fill="#91B3FA"/>
<path d="M993.755 1008.31C993.407 1008.31 993.136 1008.06 993.097 1007.73C993.097 1007.39 993.368 1007.1 993.716 1007.06L1089.82 1002.61C1100.31 1002.13 1108.35 993.916 1108.12 983.936L1100.11 645.721C1100.11 645.389 1100.38 645.095 1100.77 645.095C1101.16 645.095 1101.43 645.352 1101.43 645.721L1109.43 983.936C1109.7 994.616 1101.12 1003.38 1089.9 1003.9L993.755 1008.31C993.794 1008.31 993.794 1008.31 993.755 1008.31Z" fill="#91B3FA"/>
<path d="M1012.55 848.745H760.002C754.626 848.745 749.676 846.72 745.963 843.001C742.289 839.281 740.432 834.457 740.703 829.338L751.3 646.31C751.88 636.588 760.35 628.928 770.56 628.928H1006.6C1017.08 628.928 1025.58 636.772 1025.89 646.752L1031.77 829.78C1031.93 834.788 1029.99 839.539 1026.32 843.148C1022.76 846.794 1017.81 848.745 1012.55 848.745ZM770.638 630.217C761.085 630.217 753.195 637.324 752.654 646.42L742.057 829.448C741.786 834.199 743.526 838.729 746.969 842.154C750.411 845.615 755.052 847.53 760.041 847.53H1012.59C1017.5 847.53 1022.1 845.689 1025.51 842.338C1028.91 838.986 1030.73 834.567 1030.57 829.89L1024.7 646.862C1024.39 637.545 1016.5 630.253 1006.71 630.253H770.638V630.217Z" fill="#C8E0BD"/>
<path d="M829.037 182.405C828.689 182.405 828.38 182.111 828.38 181.779V77.192C828.38 76.8605 828.689 76.5659 829.037 76.5659C829.385 76.5659 829.695 76.8605 829.695 77.192V181.779C829.695 182.111 829.385 182.405 829.037 182.405Z" fill="#91B3FA"/>
<path d="M848.723 182.405C848.375 182.405 848.065 182.111 848.065 181.779V77.192C848.065 76.8605 848.375 76.5659 848.723 76.5659C849.071 76.5659 849.38 76.8605 849.38 77.192V181.779C849.38 182.111 849.11 182.405 848.723 182.405Z" fill="#91B3FA"/>
<path d="M868.447 182.405C868.099 182.405 867.79 182.111 867.79 181.779V77.192C867.79 76.8605 868.099 76.5659 868.447 76.5659C868.795 76.5659 869.105 76.8605 869.105 77.192V181.779C869.105 182.111 868.834 182.405 868.447 182.405Z" fill="#91B3FA"/>
<path d="M888.172 182.405C887.824 182.405 887.514 182.111 887.514 181.779V77.192C887.514 76.8605 887.824 76.5659 888.172 76.5659C888.52 76.5659 888.829 76.8605 888.829 77.192V181.779C888.829 182.111 888.52 182.405 888.172 182.405Z" fill="#91B3FA"/>
<path d="M907.896 182.405C907.548 182.405 907.239 182.111 907.239 181.779V77.192C907.239 76.8605 907.548 76.5659 907.896 76.5659C908.244 76.5659 908.554 76.8605 908.554 77.192V181.779C908.554 182.111 908.244 182.405 907.896 182.405Z" fill="#91B3FA"/>
<path d="M927.582 182.405C927.234 182.405 926.924 182.111 926.924 181.779V77.192C926.924 76.8605 927.234 76.5659 927.582 76.5659C927.93 76.5659 928.239 76.8605 928.239 77.192V181.779C928.239 182.111 927.968 182.405 927.582 182.405Z" fill="#91B3FA"/>
<path d="M941.659 182.405C941.311 182.405 941.002 182.111 941.002 181.779V77.192C941.002 76.8605 941.311 76.5659 941.659 76.5659C942.007 76.5659 942.317 76.8605 942.317 77.192V181.779C942.317 182.111 942.046 182.405 941.659 182.405Z" fill="#91B3FA"/>
<path d="M657.783 875.555H641.733V1040.8H657.783V875.555Z" fill="#744F8C"/>
<path d="M579.466 1044H720.012V1039.47C720.012 1036.49 717.459 1034.06 714.327 1034.06H585.538C582.174 1034.06 579.428 1036.67 579.428 1039.88V1044H579.466Z" fill="#744F8C"/>
<path d="M558.62 869.81C558.62 878.833 566.394 886.235 575.869 886.235H718.078C727.554 886.235 735.327 878.833 735.327 869.81V854.969C735.327 845.947 727.554 838.544 718.078 838.544H575.869C566.394 838.544 558.62 845.947 558.62 854.969V869.81Z" fill="#744F8C"/>
<path d="M329.624 1015.68C322.431 1012.37 267.28 993.658 253.511 973.698C254.169 973.219 254.981 972.888 255.909 972.777C271.495 970.973 302.59 969.205 330.166 978.559L344.785 990.491C344.785 990.491 349.697 1001.72 340.105 1015.46C337.669 1016.71 333.956 1017.71 329.624 1015.68Z" fill="#593325"/>
<path d="M253.512 973.698C267.28 993.658 322.431 1012.37 329.625 1015.68C333.956 1017.67 337.669 1016.67 340.067 1015.46C340.067 1015.5 340.028 1015.5 340.028 1015.53C337.592 1018.99 332.912 1020.32 328.851 1018.77C313.342 1012.96 273.778 997.193 253.318 981.063C250.727 979.001 251.153 975.429 253.512 973.698Z" fill="#91B3FA"/>
<path d="M331.52 1033.14C324.326 1029.82 269.175 1011.11 255.407 991.154C256.064 990.675 256.876 990.344 257.805 990.233C273.391 988.429 304.486 986.661 332.061 996.015L346.68 1007.95C346.68 1007.95 351.592 1019.18 342.001 1032.92C339.564 1034.17 335.851 1035.16 331.52 1033.14Z" fill="#593325"/>
<path d="M255.445 991.154C269.214 1011.11 324.365 1029.82 331.558 1033.14C335.89 1035.12 339.603 1034.13 342.001 1032.92C342.001 1032.95 341.962 1032.95 341.962 1032.99C339.525 1036.45 334.846 1037.78 330.785 1036.23C315.276 1030.41 275.711 1014.65 255.252 998.519C252.622 996.457 253.048 992.885 255.445 991.154Z" fill="#91B3FA"/>
<path d="M341.575 967.217C343.702 972.188 348.305 978.301 358.206 983.347L343.818 992.885C338.442 993.032 334.962 991.559 332.757 989.681C329.586 987.029 329.16 982.463 331.713 979.259C334.962 975.171 338.249 971.157 341.575 967.217Z" fill="url(#paint0_linear)"/>
<path d="M341.304 962.908C458.181 825.655 602.439 789.897 602.439 789.897L598.765 823.887L355.885 985.63C347.763 981.468 343.122 973.882 340.57 968.542C339.641 966.664 339.951 964.491 341.304 962.908Z" fill="#593325"/>
<path d="M344.708 979.664C345.327 984.415 348.227 992.811 359.907 999.808C355.498 1003.05 351.244 1006.29 347.183 1009.57C345.559 1010.89 343.393 1011.45 341.305 1011.04C337.282 1010.27 331.133 1007.84 329.315 1000.43C328.851 998.556 329.354 996.567 330.669 995.094C333.067 992.295 337.863 986.882 344.708 979.664Z" fill="url(#paint1_linear)"/>
<path d="M343.818 977.749C380.25 939.707 469.977 856.884 568.521 822.488C576.72 819.616 583.411 813.797 587.162 806.284L601.898 777.007C601.898 777.007 673.756 760.988 718.039 805.106C718.039 805.106 715.332 847.088 659.717 862.445C607.815 876.77 454.004 934.956 363.272 1000.14C361.183 1001.65 358.321 1001.72 356.233 1000.18C349.001 994.836 344.514 988.208 342.58 983.531C341.807 981.579 342.31 979.296 343.818 977.749Z" fill="#593325"/>
<path d="M725.852 804.59C725.852 804.59 711.194 810.704 686.055 799.656C660.916 788.608 592.577 787.503 592.577 787.503C592.577 787.503 614.699 708.62 565.504 652.165C565.504 652.165 525.901 722.762 498.055 733.331L485.601 733.883V683.505C485.601 683.505 496.16 621.304 563.068 574.866L583.914 557.005C583.914 557.005 657.165 542.938 706.978 626.129C756.753 709.283 725.852 804.59 725.852 804.59Z" fill="#F20F4B"/>
<path d="M481.386 587.056C480.69 583.557 480.419 575.382 489.276 565.402C501.11 552.071 516.348 558.884 516.348 558.884C524.431 563.192 529.923 573.504 533.056 581.09C534.371 584.257 530.774 587.203 527.68 585.583L521.299 582.268C519.133 588.234 498.094 594.679 498.094 594.679L497.978 594.642C497.784 607.605 498.094 645.463 507.762 671.757C511.553 682.068 519.249 701.218 493.839 734.031L479.839 733.478C479.8 733.478 448.435 682.768 481.386 587.056Z" fill="url(#paint2_linear)"/>
<path d="M552.587 510.162L591.61 562.603C594.163 566.028 593.815 570.631 590.798 573.688C585.538 579.028 576.682 586.54 567.129 588.271C564.151 588.787 561.134 587.608 559.51 585.214L538.78 554.906C538.741 554.869 534.758 507.253 552.587 510.162Z" fill="url(#paint3_linear)"/>
<path d="M473.612 506.258C473.922 507.253 515.381 562.824 515.381 562.824L548.217 539.623L517.122 481.4C517.122 481.364 468.739 489.613 473.612 506.258Z" fill="url(#paint4_linear)"/>
<path d="M524.932 499.935L543.032 528.181C568.016 511.02 533.982 514.058 543.883 530.169C544.695 533.3 525.946 492.385 543.032 528.181C525.946 492.385 550.806 511.02 533.982 514.058C569.254 467.877 566.624 478.262 533.982 514.058C537.966 519.287 549.8 487.561 557.303 494.963C560.01 497.651 547.866 513.45 550.806 511.02C533.595 466.607 556.994 505.937 550.806 511.02C528.103 455.086 527.485 440.276 545.314 477.507C527.485 440.276 553.01 517.759 550.806 511.02C548.795 504.833 554.209 498.13 557.303 494.963C558.734 493.49 559.43 491.501 559.237 489.513C558.734 484.836 556.259 477.213 545.314 477.507C541.524 477.618 538.314 475.04 537.733 471.431C536.921 466.238 533.827 460.199 523.849 460.162C513.291 460.125 508.418 466.901 506.175 472.278C505.092 474.893 502.346 476.366 499.406 476.439C498.555 476.476 497.666 476.734 496.854 477.471C494.224 479.827 490.395 480.306 487.494 478.281C483.163 475.298 476.897 473.456 469.162 478.354C454.04 487.892 460.228 505.937 469.201 514.223C478.212 522.509 493.953 511.277 500.412 502.476C504.86 496.362 514.064 496.178 519.247 496.62C521.606 496.804 523.694 498.02 524.932 499.935Z" fill="url(#paint5_linear)"/>
<path d="M548.333 520.915C548.333 520.915 533.288 505.816 538.161 498.525C543.034 491.233 554.327 489.208 558.079 503.128C562.797 520.473 548.333 520.915 548.333 520.915Z" fill="url(#paint6_linear)"/>
<path d="M657.784 564.555C657.784 564.555 736.41 612.319 753.621 667.743C770.831 723.167 732.311 734.067 695.647 739.002L692.901 696.689C692.901 696.689 718.581 696.689 702.221 673.561C685.823 650.434 641.772 635.004 641.772 635.004C641.772 635.004 530.117 534.688 657.784 564.555Z" fill="#F20F4B"/>
<path d="M692.862 697.646C693.326 697.646 703.923 697.572 707.52 691.164C709.956 686.782 708.448 680.669 702.995 673.009C686.597 649.882 643.899 634.709 642.081 634.083C641.54 633.899 640.96 634.157 640.766 634.673C640.573 635.188 640.844 635.74 641.385 635.925C641.811 636.072 685.32 651.502 701.332 674.114C706.321 681.148 707.791 686.598 705.741 690.281C702.724 695.657 692.978 695.731 692.862 695.731C692.32 695.731 691.856 696.173 691.856 696.688C691.856 697.204 692.32 697.646 692.862 697.646Z" fill="url(#paint7_linear)"/>
<path d="M525.553 733.736H555.836C559.703 733.736 562.913 730.827 563.145 727.144L567.09 655.811C567.322 651.834 563.996 648.482 559.78 648.482H523.194C519.055 648.482 515.768 651.723 515.884 655.664L518.243 726.997C518.359 730.753 521.608 733.736 525.553 733.736Z" fill="#BDD0FB"/>
<path d="M560.361 684.388L556.919 722.725C556.648 725.929 553.825 728.359 550.46 728.359H531.586C528.26 728.359 525.476 725.966 525.128 722.799L520.757 681.7L560.361 684.388Z" fill="#F20F4B"/>
<path d="M547.907 1044C548.719 1044 549.493 1043.85 550.305 1043.52C553.36 1042.23 554.791 1038.77 553.476 1035.79L427.008 749.019C425.694 746.036 422.135 744.674 419.08 745.926C416.025 747.215 414.594 750.676 415.909 753.659L542.377 1040.43C543.344 1042.64 545.548 1044 547.907 1044Z" fill="#744F8C"/>
<path d="M405.389 1044C407.709 1044 409.953 1042.67 410.92 1040.43L537.387 753.659C538.702 750.676 537.271 747.215 534.216 745.926C531.161 744.637 527.603 746.036 526.288 749.019L399.82 1035.79C398.505 1038.77 399.936 1042.23 402.991 1043.52C403.803 1043.82 404.615 1044 405.389 1044Z" fill="#744F8C"/>
<path d="M346.293 740.439C346.139 738.671 346.371 736.829 346.912 735.43C347.454 734.031 348.305 733.22 349.155 733.22H643.164C644.324 733.22 645.369 734.436 645.988 736.424C646.606 738.413 646.684 740.954 646.22 743.127L643.048 757.526C642.313 760.804 640.728 762.94 638.987 762.94H351.166C349.542 762.94 348.15 760.546 347.84 757.231L346.293 740.439Z" fill="#744F8C"/>
<path d="M695.608 739.002C695.608 739.002 707.094 720.92 691.972 699.34L590.45 715.36C590.45 715.36 541.835 707.515 539.515 707.7C537.194 707.847 505.48 726.481 505.48 726.481C505.48 726.481 506.563 728.654 514.105 728.249C521.647 727.844 516.696 729.133 516.696 729.133L516.967 732.779C516.967 732.779 522.227 733.92 526.442 729.648C530.658 725.376 542.377 723.314 542.377 723.314C542.377 723.314 567.283 740.844 591.726 732.373L695.608 739.002Z" fill="url(#paint8_linear)"/>
<path d="M1238.34 1042.08H1111.06C1094.74 1042.08 1081.24 1035.12 1080.39 1026.21L1063.8 854.564C1062.87 844.989 1076.87 836.924 1094.47 836.924H1248.28C1265.64 836.924 1279.53 844.731 1278.98 854.196L1269.05 1025.84C1268.5 1034.9 1254.93 1042.08 1238.34 1042.08Z" fill="#C8E0BD"/>
<path d="M1092.03 923.319L1106.53 1015.57C1107.73 1023.27 1119.53 1029.16 1133.68 1029.16H1213C1227.01 1029.16 1238.69 1023.38 1240.12 1015.79L1258.45 916.838L1092.03 923.319Z" fill="#F20F4B"/>
<path d="M788.815 134.678C780.809 148.23 778.605 164.139 776.632 179.57C774.66 195.037 772.726 210.872 765.146 224.682C757.566 238.455 742.985 249.909 726.625 249.503C705.431 248.951 689.381 229.654 668.419 226.597C645.562 223.283 624.562 240.481 613.423 259.778C602.285 279.075 597.373 301.245 585.77 320.321C565.969 352.839 529.072 372.467 491.944 385.209C459.186 396.441 424.301 403.586 389.61 400.75C354.918 397.915 320.342 384.326 297.447 359.357C276.214 336.23 266.429 305.222 264.031 274.619C259.661 220.079 278.341 163.44 317.829 123.778C357.355 84.0785 417.92 63.161 474.308 73.3988C487.883 75.8662 501.342 80.138 512.481 87.8716C526.636 97.7043 536.034 112.324 547.172 125.214C551.93 130.701 557.421 136.151 564.615 138.177C570.03 139.687 575.869 139.061 581.439 138.214C595.207 136.151 608.859 132.911 622.783 132.8C636.706 132.69 651.363 136.078 661.226 145.432C672.519 156.111 675.729 172.499 686.21 183.878C699.475 198.315 724.305 201.445 741.09 190.839C769.555 172.831 767.041 129.044 793.959 109.01C800.804 103.928 837.894 96.3417 829.927 105.548C826.794 109.194 811.672 111.956 806.451 115.639C799.296 120.721 793.185 127.239 788.815 134.678Z" fill="#F20F4B"/>
<path d="M435.247 100.687C368.416 100.687 314.232 151.95 314.232 212.014C314.232 242.691 328.387 266.002 351.167 281.432C358.863 286.662 363.465 295.021 363.465 304.007V339.545C363.465 350.003 372.361 358.473 383.345 358.473H487.149C498.133 358.473 507.028 350.003 507.028 339.545V304.007C507.028 295.021 511.63 286.625 519.327 281.432C542.106 266.002 556.261 242.691 556.261 212.014C556.261 151.987 502.077 100.687 435.247 100.687ZM380.56 242.617C364.703 242.617 351.863 230.391 351.863 215.292C351.863 200.193 370.195 187.966 386.052 187.966C401.909 187.966 409.296 200.193 409.296 215.292C409.257 230.391 396.417 242.617 380.56 242.617ZM431.379 257.9C428.092 273.956 410.069 281.469 408.909 272.852C407.981 265.781 422.058 258.71 428.595 255.838C430.064 255.212 431.689 256.39 431.379 257.9ZM461.546 272.852C460.424 281.432 442.402 273.956 439.076 257.9C438.766 256.39 440.39 255.175 441.86 255.838C448.396 258.71 462.474 265.781 461.546 272.852ZM489.933 243.906C474.077 243.906 461.236 231.679 461.236 216.581C461.236 201.482 468.623 189.255 484.48 189.255C500.337 189.255 518.669 201.482 518.669 216.581C518.63 231.679 505.79 243.906 489.933 243.906Z" fill="#744F8C"/>
<path d="M392.472 353.944C391.698 353.944 391.118 353.354 391.118 352.655V308.389C391.118 307.653 391.737 307.1 392.472 307.1C393.245 307.1 393.825 307.69 393.825 308.389V352.655C393.864 353.354 393.245 353.944 392.472 353.944Z" fill="#E7077D"/>
<path d="M409.566 353.944C408.793 353.944 408.213 353.354 408.213 352.655V308.389C408.213 307.653 408.831 307.1 409.566 307.1C410.34 307.1 410.92 307.69 410.92 308.389V352.655C410.959 353.354 410.34 353.944 409.566 353.944Z" fill="#E7077D"/>
<path d="M426.661 353.944C425.887 353.944 425.307 353.354 425.307 352.655V308.389C425.307 307.653 425.926 307.1 426.661 307.1C427.434 307.1 428.014 307.69 428.014 308.389V352.655C428.053 353.354 427.434 353.944 426.661 353.944Z" fill="#E7077D"/>
<path d="M443.755 353.944C442.981 353.944 442.401 353.354 442.401 352.655V308.389C442.401 307.653 443.02 307.1 443.755 307.1C444.49 307.1 445.109 307.69 445.109 308.389V352.655C445.109 353.354 444.529 353.944 443.755 353.944Z" fill="#E7077D"/>
<path d="M460.849 353.944C460.076 353.944 459.496 353.354 459.496 352.655V308.389C459.496 307.653 460.115 307.1 460.849 307.1C461.623 307.1 462.203 307.69 462.203 308.389V352.655C462.203 353.354 461.623 353.944 460.849 353.944Z" fill="#E7077D"/>
<path d="M477.944 353.944C477.17 353.944 476.59 353.354 476.59 352.655V308.389C476.59 307.653 477.209 307.1 477.944 307.1C478.717 307.1 479.298 307.69 479.298 308.389V352.655C479.298 353.354 478.679 353.944 477.944 353.944Z" fill="#E7077D"/>
</g>
<defs>
<linearGradient id="paint0_linear" x1="266.982" y1="873.446" x2="345.296" y2="998.17" gradientUnits="userSpaceOnUse">
<stop stop-color="#FEBBBA"/>
<stop offset="1" stop-color="#FF928E"/>
</linearGradient>
<linearGradient id="paint1_linear" x1="327.456" y1="991.198" x2="573.467" y2="1063.8" gradientUnits="userSpaceOnUse">
<stop stop-color="#FEBBBA"/>
<stop offset="1" stop-color="#FF928E"/>
</linearGradient>
<linearGradient id="paint2_linear" x1="533.332" y1="645.59" x2="466.317" y2="645.59" gradientUnits="userSpaceOnUse">
<stop stop-color="#FEBBBA"/>
<stop offset="1" stop-color="#FF928E"/>
</linearGradient>
<linearGradient id="paint3_linear" x1="610.058" y1="577.904" x2="531.662" y2="530.2" gradientUnits="userSpaceOnUse">
<stop stop-color="#FEBBBA"/>
<stop offset="1" stop-color="#FF928E"/>
</linearGradient>
<linearGradient id="paint4_linear" x1="489.275" y1="502.543" x2="593.735" y2="586.02" gradientUnits="userSpaceOnUse">
<stop stop-color="#FEBBBA"/>
<stop offset="1" stop-color="#FF928E"/>
</linearGradient>
<linearGradient id="paint5_linear" x1="550.821" y1="517.047" x2="457.041" y2="544.629" gradientUnits="userSpaceOnUse">
<stop stop-color="#09005D"/>
<stop offset="1" stop-color="#1A0F91"/>
</linearGradient>
<linearGradient id="paint6_linear" x1="628.328" y1="550.554" x2="548.716" y2="502.11" gradientUnits="userSpaceOnUse">
<stop stop-color="#FEBBBA"/>
<stop offset="1" stop-color="#FF928E"/>
</linearGradient>
<linearGradient id="paint7_linear" x1="912.793" y1="444.28" x2="405.778" y2="957.097" gradientUnits="userSpaceOnUse">
<stop stop-color="#E1473D"/>
<stop offset="1" stop-color="#E9605A"/>
</linearGradient>
<linearGradient id="paint8_linear" x1="604.253" y1="745.245" x2="601.395" y2="703.431" gradientUnits="userSpaceOnUse">
<stop stop-color="#FEBBBA"/>
<stop offset="1" stop-color="#FF928E"/>
</linearGradient>
<clipPath id="clip0">
<rect width="1477" height="1057" fill="white"/>
</clipPath>
</defs>
</svg>
