<svg width="1444" height="1024" viewBox="0 0 1444 1024" fill="none" xmlns="http://www.w3.org/2000/svg">
<rect width="1440" height="1024" transform="translate(4)" fill="white"/>
<g clip-path="url(#clip0)">
<path d="M870.443 948.061C881.171 946.575 891.74 945.202 901.988 943.83C978.047 933.88 1055.07 923.129 1128.89 908.718C1203.98 894.079 1285.49 862.741 1315.75 819.852C1338.65 787.6 1326.32 750.658 1304.54 719.206C1160.91 508.421 1145.7 531.181 1327.28 382.728C1509.02 234.275 1457.78 35.4988 1067.56 18.572C892.54 11.0235 799.027 82.3908 718.324 153.758C619.366 241.48 539.623 329.088 352.116 270.302C11.6894 163.708 -25.9401 375.065 11.6894 516.541C49.6392 658.018 435.382 648.868 261.165 778.107C207.043 818.48 202.079 890.076 265.168 926.789C418.408 1015.65 678.452 974.367 870.443 948.061Z" fill="#744F8C"/>
</g>
<path d="M855.385 116.06H399.644C388.957 116.06 380.56 124.413 380.56 135.044V729.259C380.56 739.891 388.957 748.244 399.644 748.244H477.891L440.867 993.524H472.929L509.953 748.244H744.694L781.718 993.524H813.781L776.757 748.244H855.004C865.691 748.244 874.088 739.891 874.088 729.259V135.044C874.47 124.792 866.073 116.06 855.385 116.06Z" fill="#F2A007"/>
<path d="M510.335 748.244H477.891L467.967 814.69H500.029L510.335 748.244Z" fill="#F2A007"/>
<path d="M777.138 748.244H744.694L755 814.69H787.062L777.138 748.244Z" fill="url(#paint0_linear)"/>
<path d="M802.711 725.083H452.318C450.027 725.083 448.501 723.564 448.501 721.286C448.501 719.008 450.027 717.489 452.318 717.489H802.711C805.002 717.489 806.528 719.008 806.528 721.286C806.528 723.184 805.002 725.083 802.711 725.083Z" fill="#FFFEFF"/>
<path d="M763.779 188.201V176.43H751.946V180.607H637.439V176.43H625.606V180.607H511.098V176.43H499.266V188.201H511.098V184.024H600.796C546.977 197.313 506.518 244.395 503.464 300.969H499.266V312.739H511.098V300.969H507.281C510.717 237.94 562.245 187.062 625.606 184.024V187.821H637.439V184.024C701.181 187.062 752.328 237.56 755.763 300.969H751.946V312.739H763.779V300.969H759.58C756.527 244.395 716.067 197.313 662.249 184.024H751.946V188.201H763.779Z" fill="#FFFEFF"/>
<path d="M421.019 692.05C418.729 692.05 417.202 690.531 417.202 688.253V176.051C417.202 173.772 418.729 172.254 421.019 172.254C423.309 172.254 424.836 173.772 424.836 176.051V688.253C424.836 690.151 423.309 692.05 421.019 692.05Z" fill="#FFFEFF"/>
<path d="M705.762 518.531C702.708 515.494 699.655 511.697 696.601 507.9C705.38 458.161 710.724 400.448 703.09 351.088C694.693 296.412 636.675 227.689 634.003 225.031C632.477 223.512 629.805 223.512 628.278 225.031C625.988 228.068 567.589 296.412 559.192 351.088C551.558 400.068 556.901 456.642 565.299 506.381C562.245 510.937 558.81 514.734 554.993 518.531C516.442 556.5 498.884 613.074 509.19 666.231C510.717 674.964 513.007 683.317 515.297 691.29C515.679 692.809 517.205 693.948 519.114 693.948H519.496C521.404 693.948 522.549 692.429 522.931 690.531C522.931 690.531 525.603 671.547 529.42 653.321C535.145 623.706 555.375 600.165 581.33 592.571C582.475 592.191 583.62 591.811 585.147 591.811C590.872 611.935 595.834 624.845 596.979 626.363C597.361 626.743 598.124 627.123 598.506 627.502L594.307 647.626C593.926 648.765 594.307 649.904 595.071 650.663C595.834 651.423 596.979 652.182 598.124 652.182H622.553C624.079 671.167 625.606 685.975 625.988 690.531C626.37 692.429 627.896 693.948 629.805 693.948C631.713 693.948 633.24 692.429 633.622 690.531C633.622 690.151 635.53 674.584 637.82 652.182H662.63C663.775 652.182 664.92 651.803 665.684 650.663C666.447 649.904 666.829 648.765 666.447 647.626L662.249 627.882C663.394 627.882 664.539 627.123 665.302 626.363C666.829 624.845 671.409 611.935 677.135 592.191C677.898 592.571 678.661 592.571 679.807 592.951C705.762 600.544 725.991 624.085 731.717 653.701C735.152 672.306 738.205 690.911 738.205 690.911C738.587 692.809 739.732 693.948 741.641 694.328H742.022C743.549 694.328 745.076 693.189 745.839 691.67C748.511 683.697 750.42 674.964 751.946 666.611C761.87 613.074 744.313 556.5 705.762 518.531ZM583.238 584.597C582.093 584.977 580.566 585.357 579.421 585.736C550.794 594.09 528.274 620.288 522.167 652.182C521.022 659.017 519.496 666.231 518.732 671.926C518.35 669.648 517.587 666.99 517.205 664.712C507.281 613.834 524.076 559.918 561.1 523.847C563.39 521.569 565.68 519.291 567.589 516.633C572.551 542.452 577.895 564.474 582.475 580.8C582.857 581.56 582.857 582.699 583.238 583.458C582.857 583.838 582.857 584.218 583.238 584.597ZM603.086 644.588L606.521 627.882H621.026C621.408 633.577 621.789 639.273 622.171 644.588H603.086ZM630.186 648.765V648.385C629.423 639.653 629.041 631.299 628.278 623.326V620.668C626.751 598.646 625.988 580.8 625.988 566.372C625.988 557.639 625.988 549.286 625.988 542.072C625.988 541.313 625.988 540.933 625.988 540.174C625.988 539.414 625.988 539.035 625.988 538.275C626.751 518.152 628.66 510.558 630.186 507.52C630.568 506.761 630.95 506.001 631.713 505.622C632.858 506.381 636.675 511.697 636.675 542.831C636.675 543.971 636.675 545.11 636.675 546.628C636.675 551.185 636.675 556.121 636.294 561.057C636.294 561.436 636.294 561.436 636.294 561.816C636.294 562.955 636.294 564.474 636.294 565.993C635.912 579.661 634.767 596.368 633.24 616.491C632.477 626.743 631.713 636.995 630.568 648.006V648.385C630.568 649.524 630.186 650.664 630.186 652.182C630.186 651.043 630.186 649.904 630.186 648.765ZM638.584 644.588C638.584 644.209 638.584 644.209 638.584 643.829C638.965 638.513 639.729 633.198 640.111 627.502H654.233L657.668 644.209H638.584V644.588ZM659.958 620.288H657.668H640.874C641.256 617.251 641.256 614.213 641.637 610.796C641.637 610.416 641.637 610.037 641.637 610.037C641.637 607.758 642.019 605.86 642.019 603.582C642.019 603.202 642.019 602.823 642.019 602.443C642.019 601.304 642.019 599.785 642.401 598.646C642.401 597.127 642.782 595.608 642.782 594.09C642.782 592.951 642.782 591.812 643.164 590.672C643.164 588.774 643.546 587.255 643.546 585.357C643.546 584.977 643.546 584.218 643.546 583.838C645.836 543.591 644.691 522.708 642.401 512.077C640.874 504.103 638.965 501.825 637.82 500.686C637.439 500.306 637.439 500.306 637.057 499.926C636.675 499.926 636.675 499.547 636.294 499.167C635.912 498.787 635.53 498.787 635.53 498.787C635.148 498.787 635.148 498.408 634.767 498.408C634.385 498.408 634.003 498.028 634.003 498.028H633.622C633.24 498.028 632.858 498.028 632.477 498.028C632.095 498.028 631.713 498.028 631.332 498.028H630.95C630.568 498.028 630.186 498.028 630.186 498.408C629.805 498.408 629.805 498.787 629.423 498.787C629.041 498.787 628.66 499.167 628.66 499.167C628.278 499.167 628.278 499.547 627.896 499.547C627.515 499.926 627.515 499.926 627.133 500.306C624.461 502.964 617.972 510.178 619.499 571.688C619.499 572.068 619.499 572.447 619.499 572.827C619.499 574.346 619.499 575.485 619.499 577.004C619.881 591.052 620.644 605.86 621.407 619.909H604.231H603.086C601.178 615.732 596.979 603.582 592.017 586.116C587.055 568.271 579.803 540.174 573.696 506.381C573.696 506.002 573.696 505.622 573.314 505.622C564.917 457.401 559.573 401.587 567.207 352.227C574.078 306.284 619.499 248.192 631.713 233.384C643.546 248.192 688.967 306.284 696.219 352.227C703.853 401.966 698.509 458.92 689.731 507.141C689.731 507.52 689.349 507.52 689.349 507.9C683.623 539.035 677.135 565.233 672.173 583.079C672.173 583.458 672.173 583.458 672.173 583.838C671.791 584.977 671.791 585.736 671.409 586.496C666.066 603.962 661.867 616.112 659.958 620.288ZM744.313 664.712C743.931 666.99 743.167 669.648 742.786 671.926C741.641 665.851 740.496 659.017 739.351 652.182C733.244 619.909 710.724 593.71 682.097 585.736C681.333 585.357 680.57 585.357 679.425 584.977C679.425 584.218 679.807 583.458 679.807 583.079V582.699C684.005 566.752 689.731 544.35 694.693 518.152C696.601 520.05 698.128 522.328 700.036 524.227C737.06 559.918 753.855 614.213 744.313 664.712ZM674.463 385.64C674.463 361.339 654.615 341.596 630.186 341.596C605.758 341.596 585.91 361.339 585.91 385.64C585.91 409.94 605.758 429.684 630.186 429.684C654.615 429.684 674.463 409.94 674.463 385.64ZM630.186 422.09C609.957 422.09 593.544 405.763 593.544 385.64C593.544 365.516 609.957 349.189 630.186 349.189C650.416 349.189 666.829 365.516 666.829 385.64C666.829 405.763 650.416 422.09 630.186 422.09Z" fill="#FFFEFF"/>
<path d="M915.693 658.257V640.032C921.418 638.134 925.998 632.818 925.998 626.363C925.998 618.39 919.509 611.935 911.494 611.935C903.478 611.935 896.99 618.39 896.99 626.363C896.99 632.818 901.188 638.134 907.295 640.032V658.257C901.57 660.156 896.99 665.471 896.99 671.926C896.99 679.9 903.478 686.354 911.494 686.354C919.509 686.354 925.998 679.9 925.998 671.926C925.998 665.471 921.8 660.156 915.693 658.257Z" fill="#CEE8FF"/>
<path d="M911.876 755.078C885.157 755.078 909.967 993.524 909.967 993.524C909.967 993.524 938.212 755.078 911.876 755.078Z" fill="url(#paint1_linear)"/>
<path d="M600.796 985.93C598.124 985.93 595.452 985.55 593.544 984.411L593.926 984.032C597.361 979.096 599.269 972.261 599.269 965.427C599.269 954.036 594.689 946.063 587.819 946.063C580.948 946.063 576.368 954.036 576.368 965.427C576.368 972.641 578.276 979.096 581.711 984.032L582.093 984.411C579.803 985.55 577.513 985.93 574.841 985.93C572.169 985.93 569.497 985.55 567.589 984.411L567.971 984.032C571.406 979.096 573.314 972.261 573.314 965.427C573.314 954.036 568.734 946.063 561.864 946.063C554.993 946.063 550.413 954.036 550.413 965.427C550.413 972.641 552.321 979.096 555.756 984.032L556.138 984.411C553.848 985.55 551.558 985.93 548.886 985.93C546.214 985.93 543.542 985.55 541.634 984.411L542.015 984.032C545.451 979.096 547.359 972.261 547.359 965.427C547.359 954.036 542.779 946.063 535.908 946.063C529.038 946.063 524.458 954.036 524.458 965.427C524.458 972.641 526.366 979.096 529.801 984.032L530.183 984.411C527.893 985.55 525.603 985.93 522.931 985.93C520.259 985.93 517.587 985.55 515.679 984.411L516.06 984.032C519.496 979.096 521.404 972.261 521.404 965.427C521.404 954.036 516.824 946.063 509.953 946.063C503.083 946.063 498.502 954.036 498.502 965.427C498.502 972.641 500.411 979.096 503.846 984.032L504.228 984.411C501.938 985.55 499.648 985.93 496.976 985.93C494.686 985.93 493.159 987.449 493.159 989.727C493.159 992.005 494.686 993.524 496.976 993.524C501.938 993.524 506.518 992.385 509.953 989.727C513.77 992.005 517.969 993.524 522.931 993.524C527.893 993.524 532.473 992.385 535.908 989.727C539.725 992.005 543.924 993.524 548.886 993.524C553.848 993.524 558.428 992.385 561.864 989.727C565.68 992.005 569.879 993.524 574.841 993.524C579.803 993.524 584.383 992.385 587.819 989.727C591.636 992.005 595.834 993.524 600.796 993.524C603.086 993.524 604.613 992.005 604.613 989.727C604.613 987.828 603.086 985.93 600.796 985.93ZM509.572 979.475C507.281 975.678 505.755 970.742 505.755 965.427C505.755 957.833 508.426 953.656 509.572 953.656C510.717 953.656 513.388 957.833 513.388 965.427C513.388 970.363 511.862 975.678 509.572 979.475ZM535.527 979.475C533.236 975.678 531.71 970.742 531.71 965.427C531.71 957.833 534.382 953.656 535.527 953.656C536.672 953.656 539.344 957.833 539.344 965.427C539.344 970.363 538.198 975.678 535.527 979.475ZM561.864 979.475C559.573 975.678 558.047 970.742 558.047 965.427C558.047 957.833 560.718 953.656 561.864 953.656C563.009 953.656 565.68 957.833 565.68 965.427C565.68 970.363 564.154 975.678 561.864 979.475ZM587.819 979.475C585.528 975.678 584.002 970.742 584.002 965.427C584.002 957.833 586.674 953.656 587.819 953.656C588.964 953.656 591.636 957.833 591.636 965.427C591.636 970.363 590.49 975.678 587.819 979.475Z" fill="#CEE8FF"/>
<path d="M1165.32 374.249C1165.32 390.196 1152.34 403.105 1136.31 403.105C1120.28 403.105 1107.3 390.196 1107.3 374.249C1107.3 358.302 1120.28 345.393 1136.31 345.393C1152.34 345.772 1165.32 358.682 1165.32 374.249Z" fill="url(#paint2_linear)"/>
<path d="M1108.45 454.743C1135.43 454.743 1157.3 432.984 1157.3 406.143C1157.3 379.302 1135.43 357.543 1108.45 357.543C1081.46 357.543 1059.59 379.302 1059.59 406.143C1059.59 432.984 1081.46 454.743 1108.45 454.743Z" fill="url(#paint3_linear)"/>
<path d="M1105.78 460.818C1110.74 460.439 1114.55 456.642 1114.17 451.706C1113.79 446.39 1114.94 441.074 1123.72 436.898C1142.42 428.165 1142.8 358.682 1108.07 360.2C1073.33 361.719 1077.53 408.801 1078.29 421.71C1079.06 434.62 1090.51 437.278 1093.94 441.834C1095.47 443.732 1095.85 447.909 1095.85 451.706C1096.61 457.021 1100.81 460.818 1105.78 460.818Z" fill="url(#paint4_linear)"/>
<path d="M1132.11 411.838C1132.49 416.015 1135.55 419.432 1138.98 419.052C1142.8 419.052 1145.47 415.255 1145.09 411.079C1144.71 406.902 1141.65 403.485 1138.22 403.865C1134.78 404.244 1132.11 407.662 1132.11 411.838Z" fill="#7DCEFF"/>
<path d="M1069.51 409.18C1069.9 413.357 1072.95 416.774 1076.39 416.395C1080.2 416.395 1082.87 412.598 1082.49 408.421C1082.11 404.244 1079.06 400.827 1075.62 401.207C1072.19 401.207 1069.51 405.004 1069.51 409.18Z" fill="url(#paint5_linear)"/>
<path d="M1119.9 398.929C1119.52 398.929 1119.52 398.929 1119.52 398.549C1117.61 396.651 1114.17 395.512 1111.12 396.651C1110.74 396.651 1110.36 396.651 1109.97 396.271C1109.97 395.891 1109.97 395.512 1110.36 395.132C1113.79 393.993 1117.61 394.752 1120.28 397.41C1120.66 397.79 1120.66 398.169 1120.28 398.549L1119.9 398.929Z" fill="#CA795E"/>
<path d="M1119.52 411.838C1119.13 411.838 1119.13 411.838 1119.13 411.459C1117.23 409.56 1113.79 408.421 1110.74 409.56C1110.36 409.56 1109.97 409.56 1109.59 409.18C1109.59 408.801 1109.59 408.421 1109.97 408.041C1113.41 406.902 1117.23 407.662 1119.9 410.32C1120.28 410.699 1120.28 411.079 1119.9 411.459C1119.9 411.838 1119.52 411.838 1119.52 411.838Z" fill="#CA795E"/>
<path d="M1098.91 409.94C1098.52 409.94 1098.52 409.94 1098.14 409.94C1095.85 408.421 1092.03 408.041 1089.74 409.56C1089.36 409.94 1088.98 409.56 1088.6 409.18C1088.22 408.801 1088.6 408.421 1088.98 408.041C1092.03 406.143 1096.23 406.523 1099.29 408.421C1099.67 408.801 1099.67 409.18 1099.67 409.56C1099.29 409.56 1098.91 409.94 1098.91 409.94Z" fill="#CA795E"/>
<path d="M1090.13 397.79C1089.74 397.79 1089.74 397.79 1089.36 397.41C1088.98 397.03 1089.36 396.651 1089.74 396.271C1092.8 394.373 1097 393.993 1100.43 395.891C1100.81 396.271 1100.81 396.651 1100.81 397.03C1100.43 397.41 1100.05 397.41 1099.67 397.41C1097 395.891 1093.18 396.271 1090.51 397.79C1090.13 397.79 1090.13 397.79 1090.13 397.79Z" fill="#826CE9"/>
<path d="M1104.25 419.052C1103.87 419.052 1103.87 419.052 1103.49 419.052C1102.72 418.673 1101.96 418.293 1101.58 417.534C1101.2 416.395 1101.58 414.876 1101.58 413.737L1103.87 405.004C1103.87 404.624 1104.25 404.244 1105.01 404.244C1105.39 404.244 1105.78 404.624 1105.78 405.384L1103.49 414.116C1103.1 415.255 1103.1 416.015 1103.49 416.774C1103.49 417.154 1103.87 417.534 1104.25 417.534C1104.63 417.534 1104.63 417.534 1104.63 417.534C1105.01 417.154 1105.39 417.154 1105.78 417.534C1106.16 417.913 1106.16 418.293 1105.78 418.673C1105.01 419.052 1104.63 419.052 1104.25 419.052Z" fill="#CA795E"/>
<path d="M1103.87 425.507C1100.43 425.507 1097.38 424.368 1094.71 422.47C1094.32 422.09 1094.32 421.71 1094.71 421.331C1095.09 420.951 1095.47 420.951 1095.85 421.331C1098.52 423.229 1101.58 424.368 1105.01 423.988C1108.07 423.609 1111.5 422.09 1113.41 419.812C1113.79 419.432 1114.17 419.432 1114.55 419.812C1114.94 420.192 1114.94 420.571 1114.55 420.951C1111.88 423.609 1108.45 425.127 1105.01 425.507C1104.63 425.507 1104.25 425.507 1103.87 425.507Z" fill="#CA795E"/>
<path d="M1078.68 412.218C1078.29 412.218 1077.91 411.838 1077.91 411.459L1077.53 405.763C1077.53 405.384 1077.91 405.004 1078.29 405.004C1078.68 405.004 1079.06 405.384 1079.06 405.763L1079.44 411.459C1079.44 411.838 1079.06 412.218 1078.68 412.218Z" fill="#CA795E"/>
<path d="M1135.55 415.256C1135.55 415.256 1135.17 415.256 1135.55 415.256C1134.78 414.876 1134.78 414.496 1134.78 414.116L1136.69 409.94C1136.69 409.56 1137.46 409.18 1137.84 409.56C1138.22 409.56 1138.6 410.32 1138.22 410.699L1136.31 414.876C1135.93 415.256 1135.93 415.256 1135.55 415.256Z" fill="#826CE9"/>
<path d="M1124.48 387.158C1106.16 395.512 1090.51 404.624 1078.68 401.966C1073.33 392.094 1081.73 378.426 1085.55 371.971C1089.36 365.516 1095.47 359.821 1103.1 358.682C1109.59 357.543 1116.08 359.821 1121.81 362.858C1128.3 366.275 1134.78 371.211 1138.22 377.666C1142.04 384.121 1143.56 391.715 1139.75 398.169C1140.89 402.726 1147.76 403.485 1149.29 408.041C1150.43 411.079 1149.29 414.116 1147.38 416.774C1145.47 419.432 1143.18 421.331 1141.27 423.609C1137.46 428.545 1136.31 434.999 1137.46 440.695C1132.49 433.86 1134.02 447.909 1132.11 439.556C1130.59 430.823 1119.52 405.384 1124.48 387.158Z" fill="#593325"/>
<path d="M1090.89 446.39L1093.94 461.198C1106.16 466.134 1108.07 468.032 1119.9 460.439L1121.42 446.39H1090.89Z" fill="#CEE8FF"/>
<path d="M1189.75 981.754L1156.54 612.694H1053.87L1014.93 979.096L996.611 993.144H1043.56L1101.2 648.006C1101.58 644.968 1104.25 642.69 1107.3 642.69C1110.36 642.69 1112.65 644.968 1113.03 647.626L1157.3 993.144" fill="#593325"/>
<path d="M1053.87 471.829C1042.41 473.728 1019.51 547.388 1019.51 547.388L989.741 474.487L970.656 486.637C970.656 486.637 985.542 584.218 1014.55 580.801C1043.56 577.383 1069.51 516.253 1069.51 516.253C1069.51 516.253 1065.7 469.931 1053.87 471.829Z" fill="#CEE8FF"/>
<path d="M1119.9 460.439C1119.9 460.439 1146.24 464.236 1152.34 467.653C1154.63 469.171 1156.92 550.046 1156.92 550.046L1163.03 622.946C1163.03 622.946 1088.22 636.615 1044.7 616.112L1067.61 560.297C1067.61 560.297 1063.03 532.2 1059.21 507.52C1056.16 488.915 1053.87 472.209 1053.87 471.829C1054.25 470.311 1093.94 461.198 1093.94 461.198L1119.9 460.439Z" fill="#CEE8FF"/>
<path d="M1062.64 530.681C1061.88 530.681 1061.12 530.302 1061.12 529.542C1060.74 527.644 1060.74 524.986 1060.35 522.708C1059.97 520.43 1059.97 518.531 1059.59 516.633C1055.01 512.836 1053.1 507.52 1051.96 503.723C1050.43 498.028 1053.87 490.434 1056.54 484.359C1057.3 482.84 1057.68 481.701 1058.06 480.183C1058.45 479.423 1059.21 479.043 1059.97 479.423C1060.74 479.803 1061.12 480.562 1060.74 481.322C1060.35 482.461 1059.59 483.979 1059.21 485.498C1056.92 491.194 1053.48 498.787 1054.63 503.344C1055.39 506.761 1057.3 511.697 1061.5 515.114L1061.88 515.494V516.253C1062.26 518.152 1062.26 520.43 1062.64 522.708C1063.03 525.366 1063.41 528.024 1063.41 529.542C1064.17 529.922 1063.41 530.681 1062.64 530.681Z" fill="#BAB9FB"/>
<path d="M977.527 482.84L968.366 474.867C968.366 474.867 944.319 480.183 965.313 465.754L961.114 454.743C961.114 454.743 974.092 450.946 977.527 456.262C981.344 461.198 985.161 478.284 985.161 478.284L977.527 482.84Z" fill="url(#paint6_linear)"/>
<path d="M1152.34 468.032C1165.32 474.867 1164.94 502.205 1163.03 507.52C1161.12 512.836 1094.71 594.469 1094.71 594.469L1015.31 632.438L1006.92 604.341L1078.29 568.65L1152.34 468.032Z" fill="#CEE8FF"/>
<path d="M1006.92 603.962C1006.92 603.962 990.123 592.191 985.924 594.849C981.725 597.507 991.649 603.962 991.649 603.962H957.297C957.297 603.962 968.366 613.454 973.71 616.112C979.054 619.149 999.665 621.048 999.665 621.048L1011.5 619.149L1006.92 603.962Z" fill="url(#paint7_linear)"/>
<path d="M1078.68 570.169C1078.29 570.169 1077.91 570.169 1077.91 569.789C1077.15 569.41 1077.15 568.271 1077.53 567.891L1135.93 488.536C1136.31 487.776 1137.46 487.776 1137.84 488.156C1138.6 488.536 1138.6 489.675 1138.22 490.055L1079.82 569.41C1079.44 569.789 1079.06 570.169 1078.68 570.169Z" fill="#BAB9FB"/>
<path d="M1062.64 609.277C1062.26 609.277 1061.5 608.898 1061.5 608.518C1061.12 607.758 1061.5 606.999 1062.26 606.619L1094.32 593.33L1141.27 534.478C1141.65 533.719 1142.8 533.719 1143.18 534.099C1143.94 534.478 1143.94 535.617 1143.56 535.997L1095.85 595.229L1063.41 608.898C1063.03 609.277 1062.64 609.277 1062.64 609.277Z" fill="#BAB9FB"/>
<path d="M979.054 241.737L971.801 240.598C969.13 240.218 967.603 236.801 969.511 234.523L973.71 228.448C974.855 226.929 974.473 225.031 973.328 223.512L967.221 217.437C966.076 216.298 963.786 215.918 962.259 217.057L956.152 221.234C953.862 222.753 950.808 221.613 950.045 218.956L948.9 211.741C948.518 209.843 946.991 208.704 945.083 208.704H936.686C934.777 208.704 933.25 209.843 932.869 211.741L931.724 218.956C931.342 221.613 927.907 223.132 925.617 221.234L919.509 217.057C917.983 215.918 916.074 216.298 914.547 217.437L908.44 223.512C907.295 224.651 906.914 226.929 908.059 228.448L912.257 234.523C913.784 236.801 912.639 239.839 909.967 240.598L902.715 241.737C900.806 242.117 899.661 243.635 899.661 245.534V254.267C899.661 256.165 900.806 257.684 902.715 258.064L909.967 259.203C912.639 259.582 914.166 263 912.257 265.278L908.059 271.353C906.914 272.872 907.295 274.77 908.44 276.289L914.547 282.364C915.693 283.503 917.983 283.883 919.509 282.744L925.617 278.567C927.907 277.048 930.96 278.187 931.724 280.845L932.869 288.059C933.25 289.958 934.777 291.097 936.686 291.097H945.083C946.991 291.097 948.518 289.958 948.9 288.059L950.045 280.845C950.427 278.187 953.862 276.669 956.152 278.567L962.259 282.744C963.786 283.883 965.694 283.503 967.221 282.364L973.328 276.289C974.473 275.15 974.855 272.872 973.71 271.353L969.511 265.278C967.984 263 969.13 259.962 971.801 259.203L979.054 258.064C980.962 257.684 982.107 256.165 982.107 254.267V245.914C982.107 243.635 980.962 242.117 979.054 241.737ZM940.884 264.898C932.487 264.898 925.617 258.064 925.617 249.711C925.617 241.357 932.487 234.523 940.884 234.523C949.281 234.523 956.152 241.357 956.152 249.711C956.152 258.064 949.281 264.898 940.884 264.898ZM1033.25 282.364L1028.29 281.605C1026.38 281.225 1025.62 278.947 1026.77 277.428L1029.82 273.251C1030.58 272.112 1030.58 270.973 1029.44 269.834L1025.24 265.658C1024.48 264.898 1022.95 264.518 1021.8 265.278L1017.6 268.315C1016.08 269.454 1013.79 268.695 1013.41 266.797L1012.64 261.861C1012.26 260.722 1011.5 259.582 1009.97 259.582H1004.25C1003.1 259.582 1001.96 260.342 1001.57 261.861L1000.81 266.797C1000.43 268.695 998.138 269.454 996.611 268.315L992.413 265.278C991.268 264.518 990.123 264.518 988.978 265.658L984.779 269.834C984.016 270.593 983.634 272.112 984.397 273.251L987.451 277.428C988.596 278.947 987.832 281.225 985.924 281.605L980.962 282.364C979.817 282.744 978.672 283.503 978.672 285.022V290.717C978.672 291.856 979.435 292.995 980.962 293.375L985.924 294.134C987.832 294.514 988.596 296.792 987.451 298.311L984.397 302.487C983.634 303.627 983.634 304.766 984.779 305.905L988.978 310.081C989.741 310.841 991.268 311.22 992.413 310.461L996.611 307.423C998.138 306.284 1000.43 307.044 1000.81 308.942L1001.57 313.878C1001.96 315.017 1002.72 316.156 1004.25 316.156H1009.97C1011.12 316.156 1012.26 315.397 1012.64 313.878L1013.41 308.942C1013.79 307.044 1016.08 306.284 1017.6 307.423L1021.8 310.461C1022.95 311.22 1024.09 311.22 1025.24 310.081L1029.44 305.905C1030.2 305.145 1030.58 303.627 1029.82 302.487L1026.77 298.311C1025.62 296.792 1026.38 294.514 1028.29 294.134L1033.25 293.375C1034.4 292.995 1035.54 292.236 1035.54 290.717V285.022C1035.16 283.883 1034.4 282.744 1033.25 282.364ZM1006.92 298.311C1001.19 298.311 996.611 293.755 996.611 288.059C996.611 282.364 1001.19 277.808 1006.92 277.808C1012.64 277.808 1017.22 282.364 1017.22 288.059C1017.6 293.755 1012.64 298.311 1006.92 298.311Z" fill="#C6D9B8"/>
<path d="M1040.12 173.013C1048.14 173.013 1054.25 165.799 1053.1 157.825C1052.72 154.788 1051.58 152.51 1050.05 150.611C1046.61 146.055 1039.74 143.397 1034.02 144.157C1033.25 136.563 1027.91 129.349 1021.04 125.932C1014.17 122.514 1005.39 122.514 998.52 126.691C991.649 130.488 987.451 138.841 987.069 146.435C981.725 146.055 976.382 148.333 972.946 152.51C972.946 152.89 972.565 152.89 972.565 153.269C966.458 161.622 972.946 173.393 983.634 173.393H1040.12V173.013Z" fill="#CEE8FF"/>
<path d="M1185.93 207.185H1168.75V224.271C1168.75 225.41 1167.99 226.17 1166.85 226.17H1149.67V243.256C1149.67 244.395 1148.91 245.154 1147.76 245.154H1130.59V262.24C1130.59 263.379 1129.82 264.139 1128.68 264.139C1127.53 264.139 1126.77 263.379 1126.77 262.24V243.256C1126.77 242.117 1127.53 241.357 1128.68 241.357H1145.85V224.271C1145.85 223.132 1146.62 222.373 1147.76 222.373H1164.94V205.287C1164.94 204.148 1165.7 203.388 1166.85 203.388H1185.93" fill="#DCA7F9"/>
<path d="M554.23 821.524C553.848 821.524 553.466 821.524 553.085 821.524C552.321 821.144 551.558 820.385 551.558 819.626L546.214 789.25C546.214 788.491 546.214 787.352 546.977 786.972C547.741 786.213 548.504 786.213 549.649 786.593L578.658 797.224C579.421 797.604 580.185 798.363 580.185 799.122C580.185 799.882 580.185 801.021 579.421 801.401L555.375 821.144C554.993 821.144 554.611 821.524 554.23 821.524ZM551.939 792.668L555.756 814.69L572.933 800.641L551.939 792.668Z" fill="#CEE8FF"/>
<path d="M948.518 356.024C948.518 356.404 948.136 356.783 947.755 357.163C946.991 357.543 946.228 357.922 945.083 357.543L916.838 344.633C916.074 344.253 915.311 343.494 915.311 342.735C915.311 341.975 915.693 340.836 916.456 340.457L941.648 322.611C942.411 322.231 943.174 321.852 944.319 322.231C945.083 322.611 945.846 323.371 945.846 324.13L948.9 354.885C948.518 355.264 948.518 355.644 948.518 356.024ZM922.945 341.975L943.174 351.088L941.266 329.066L922.945 341.975Z" fill="#CEE8FF"/>
<path d="M314.145 275.909C312.618 275.53 311.473 276.289 311.091 277.428L308.038 287.68L297.732 284.642C296.205 284.262 295.06 285.022 294.679 286.161C294.297 287.68 295.06 288.819 296.205 289.198L306.511 292.236L303.458 302.488C303.076 304.006 303.839 305.145 304.984 305.525C306.511 305.905 307.656 305.145 308.038 304.006L311.091 293.755L321.397 296.792C322.924 297.172 324.069 296.412 324.451 295.273C324.832 293.755 324.069 292.616 322.924 292.236L312.618 289.198L315.672 278.947C316.053 277.428 315.29 276.289 314.145 275.909Z" fill="#DCA7F9"/>
<path d="M401.934 853.038L392.392 848.102L397.354 838.61C398.117 837.471 397.354 835.952 396.209 835.193C395.064 834.434 393.537 835.193 392.774 836.332L387.812 845.824L378.269 840.888C377.124 840.129 375.597 840.888 374.834 842.027C374.071 843.166 374.834 844.685 375.979 845.445L385.521 850.381L380.559 859.873C379.796 861.012 380.559 862.531 381.705 863.29C382.85 864.049 384.376 863.29 385.14 862.151L390.102 852.659L399.644 857.595C400.789 858.354 402.316 857.595 403.079 856.456C403.461 855.317 403.079 853.798 401.934 853.038Z" fill="#A1E2FF"/>
<path d="M1220.67 600.924L1216.08 591.432C1215.32 590.293 1214.18 589.533 1212.65 590.293C1211.5 591.052 1210.74 592.191 1211.5 593.71L1216.08 603.202L1206.54 607.758C1205.4 608.518 1204.63 609.657 1205.4 611.176C1206.16 612.315 1207.31 613.074 1208.83 612.315L1218.38 607.758L1222.96 617.251" fill="#A1E2FF"/>
<path d="M1193.18 196.554V359.441C1193.18 365.896 1188.22 370.832 1181.73 370.832H1058.83C1052.34 370.832 1047.38 365.896 1047.38 359.441V196.554C1047.38 190.099 1052.34 185.163 1058.83 185.163H1181.73" fill="#F20F4B"/>
<path opacity="0.2" d="M1076.77 230.726C1082.88 230.726 1087.84 225.796 1087.84 219.715C1087.84 213.634 1082.88 208.704 1076.77 208.704C1070.65 208.704 1065.7 213.634 1065.7 219.715C1065.7 225.796 1070.65 230.726 1076.77 230.726Z" fill="#817EF9"/>
<path d="M1172.57 216.677H1100.05C1098.91 216.677 1097.76 215.538 1097.76 214.399V214.02C1097.76 212.881 1098.91 211.741 1100.05 211.741H1172.57C1173.72 211.741 1174.86 212.881 1174.86 214.02V214.399C1174.86 215.918 1173.72 216.677 1172.57 216.677Z" fill="#FFFEFF"/>
<path d="M1126.77 229.587H1099.67C1098.52 229.587 1097.38 228.448 1097.38 227.309V226.929C1097.38 225.79 1098.52 224.651 1099.67 224.651H1126.77C1127.91 224.651 1129.06 225.79 1129.06 226.929V227.309C1129.06 228.448 1128.3 229.587 1126.77 229.587Z" fill="#FFFEFF"/>
<path d="M1144.33 229.587H1137.07C1135.55 229.587 1134.4 228.448 1134.4 226.929C1134.4 225.41 1135.55 224.271 1137.07 224.271H1144.33C1145.85 224.271 1147 225.41 1147 226.929C1146.62 228.448 1145.47 229.587 1144.33 229.587Z" fill="#C69DF9"/>
<path d="M1107.3 242.117H1100.05C1098.52 242.117 1097.38 240.978 1097.38 239.459C1097.38 237.94 1098.52 236.801 1100.05 236.801H1107.3C1108.83 236.801 1109.97 237.94 1109.97 239.459C1109.97 240.978 1108.83 242.117 1107.3 242.117Z" fill="#FFFEFF"/>
<path opacity="0.2" d="M1076.77 282.364C1082.88 282.364 1087.84 277.434 1087.84 271.353C1087.84 265.272 1082.88 260.342 1076.77 260.342C1070.65 260.342 1065.7 265.272 1065.7 271.353C1065.7 277.434 1070.65 282.364 1076.77 282.364Z" fill="#817EF9"/>
<path d="M1172.57 268.695H1100.05C1098.91 268.695 1097.76 267.556 1097.76 266.417V265.658C1097.76 264.518 1098.91 263.379 1100.05 263.379H1172.57C1173.72 263.379 1174.86 264.518 1174.86 265.658V266.037C1174.86 267.556 1173.72 268.695 1172.57 268.695Z" fill="#FFFEFF"/>
<path d="M1126.77 281.225H1099.67C1098.52 281.225 1097.38 280.086 1097.38 278.947V278.567C1097.38 277.428 1098.52 276.289 1099.67 276.289H1126.77C1127.91 276.289 1129.06 277.428 1129.06 278.567V278.947C1129.06 280.086 1128.3 281.225 1126.77 281.225Z" fill="#FFFEFF"/>
<path d="M1144.33 281.225H1137.07C1135.55 281.225 1134.4 280.086 1134.4 278.567C1134.4 277.048 1135.55 275.909 1137.07 275.909H1144.33C1145.85 275.909 1147 277.048 1147 278.567C1146.62 280.086 1145.47 281.225 1144.33 281.225Z" fill="#C69DF9"/>
<path d="M1107.3 293.755H1100.05C1098.52 293.755 1097.38 292.616 1097.38 291.097C1097.38 289.578 1098.52 288.439 1100.05 288.439H1107.3C1108.83 288.439 1109.97 289.578 1109.97 291.097C1109.97 292.616 1108.83 293.755 1107.3 293.755Z" fill="#FFFEFF"/>
<path opacity="0.2" d="M1087.84 323.37C1087.84 329.445 1082.87 334.381 1076.77 334.381C1070.66 334.381 1065.7 329.445 1065.7 323.37C1065.7 317.295 1070.66 312.359 1076.77 312.359C1082.87 312.359 1087.84 317.295 1087.84 323.37Z" fill="#817EF9"/>
<path d="M1172.57 320.333H1100.05C1098.91 320.333 1097.76 319.194 1097.76 318.055V317.675C1097.76 316.536 1098.91 315.397 1100.05 315.397H1172.57C1173.72 315.397 1174.86 316.536 1174.86 317.675V318.055C1174.86 319.194 1173.72 320.333 1172.57 320.333Z" fill="#FFFEFF"/>
<path d="M1126.77 332.863H1099.67C1098.52 332.863 1097.38 331.724 1097.38 330.585V330.205C1097.38 329.066 1098.52 327.927 1099.67 327.927H1126.77C1127.91 327.927 1129.06 329.066 1129.06 330.205V330.585C1129.06 331.724 1128.3 332.863 1126.77 332.863Z" fill="#FFFEFF"/>
<path d="M1144.33 332.863H1137.07C1135.55 332.863 1134.4 331.724 1134.4 330.205C1134.4 328.686 1135.55 327.547 1137.07 327.547H1144.33C1145.85 327.547 1147 328.686 1147 330.205C1146.62 331.724 1145.47 332.863 1144.33 332.863Z" fill="#C69DF9"/>
<path d="M1107.3 345.393H1100.05C1098.52 345.393 1097.38 344.253 1097.38 342.735C1097.38 341.216 1098.52 340.077 1100.05 340.077H1107.3C1108.83 340.077 1109.97 341.216 1109.97 342.735C1109.97 344.253 1108.83 345.393 1107.3 345.393Z" fill="#FFFEFF"/>
<path d="M478.273 526.884H246.967C240.478 526.884 235.516 521.948 235.516 515.494V178.329C235.516 171.874 240.478 166.938 246.967 166.938H478.273C484.762 166.938 489.724 171.874 489.724 178.329V515.494C489.724 521.948 484.38 526.884 478.273 526.884Z" fill="#F20F4B"/>
<path d="M471.402 323.37H253.837C251.547 323.37 249.257 321.472 249.257 318.814C249.257 316.536 251.166 314.258 253.837 314.258H471.402C473.692 314.258 475.983 316.156 475.983 318.814C475.601 321.472 473.692 323.37 471.402 323.37Z" fill="#FFFEFF"/>
<path d="M471.402 346.532H253.837C251.547 346.532 249.257 344.633 249.257 341.975C249.257 339.697 251.166 337.419 253.837 337.419H471.402C473.692 337.419 475.983 339.317 475.983 341.975C475.601 344.253 473.692 346.532 471.402 346.532Z" fill="#FFFEFF"/>
<path d="M330.939 369.313H253.837C251.547 369.313 249.257 367.414 249.257 364.757C249.257 362.479 251.166 360.2 253.837 360.2H330.939C333.23 360.2 335.52 362.099 335.52 364.757C335.138 367.414 333.23 369.313 330.939 369.313Z" fill="#FFFEFF"/>
<path d="M303.457 416.015H252.692C251.165 416.015 249.638 414.876 249.638 412.977C249.638 411.459 250.783 409.94 252.692 409.94H303.457C304.984 409.94 306.51 411.079 306.51 412.977C306.129 414.496 304.984 416.015 303.457 416.015Z" fill="#FFFEFF"/>
<path d="M390.865 416.015H325.977C324.451 416.015 322.924 414.876 322.924 412.977C322.924 411.459 324.069 409.94 325.977 409.94H390.865C392.392 409.94 393.919 411.079 393.919 412.977C393.919 414.496 392.774 416.015 390.865 416.015Z" fill="#FFFEFF"/>
<path d="M417.202 416.015H414.148C412.622 416.015 411.095 414.876 411.095 412.977C411.095 411.459 412.24 409.94 414.148 409.94H417.202C418.729 409.94 420.256 411.079 420.256 412.977C420.256 414.496 418.729 416.015 417.202 416.015Z" fill="#FFFEFF"/>
<path opacity="0.2" d="M475.601 212.881H249.257V297.551H475.601V212.881Z" fill="#C6D9B8"/>
<path opacity="0.2" d="M475.601 433.101H249.257V509.798H475.601V433.101Z" fill="#C6D9B8"/>
<path d="M261.853 185.163C261.853 188.58 259.181 191.238 255.746 191.238C252.311 191.238 249.639 188.58 249.639 185.163C249.639 181.746 252.311 179.088 255.746 179.088C259.181 179.088 261.853 181.746 261.853 185.163Z" fill="#DCA7F9"/>
<path d="M283.228 185.163C283.228 188.58 280.556 191.238 277.121 191.238C273.686 191.238 271.014 188.58 271.014 185.163C271.014 181.746 273.686 179.088 277.121 179.088C280.174 179.088 283.228 181.746 283.228 185.163Z" fill="#FFDE42"/>
<path d="M304.603 185.163C304.603 188.58 301.931 191.238 298.496 191.238C295.06 191.238 292.388 188.58 292.388 185.163C292.388 181.746 295.06 179.088 298.496 179.088C301.931 179.088 304.603 181.746 304.603 185.163Z" fill="#7DCEFF"/>
<path d="M750.801 195.795H559.573C553.085 195.795 548.123 190.859 548.123 184.404V102.391C548.123 95.936 553.085 91 559.573 91H750.801C757.29 91 762.252 95.936 762.252 102.391V184.404C762.252 190.859 757.29 195.795 750.801 195.795Z" fill="url(#paint8_linear)"/>
<g opacity="0.2">
<g opacity="0.2">
<path opacity="0.2" d="M744.313 116.439H566.062C564.535 116.439 563.009 115.3 563.009 113.402C563.009 111.883 564.154 110.364 566.062 110.364H744.313C745.84 110.364 747.366 111.503 747.366 113.402C747.366 114.92 746.221 116.439 744.313 116.439Z" fill="#C6D9B8"/>
<path opacity="0.2" d="M744.313 131.247H566.062C564.535 131.247 563.009 130.108 563.009 128.21C563.009 126.691 564.154 125.172 566.062 125.172H744.313C745.84 125.172 747.366 126.311 747.366 128.21C747.366 130.108 746.221 131.247 744.313 131.247Z" fill="#C6D9B8"/>
<path opacity="0.2" d="M744.313 146.435H566.062C564.535 146.435 563.009 145.296 563.009 143.397C563.009 141.879 564.154 140.36 566.062 140.36H744.313C745.84 140.36 747.366 141.499 747.366 143.397C747.366 144.916 746.221 146.435 744.313 146.435Z" fill="#C6D9B8"/>
<path opacity="0.2" d="M744.313 161.622H566.062C564.535 161.622 563.009 160.483 563.009 158.585C563.009 157.066 564.154 155.547 566.062 155.547H744.313C745.84 155.547 747.366 156.686 747.366 158.585C747.366 160.104 746.221 161.622 744.313 161.622Z" fill="#C6D9B8"/>
<path opacity="0.2" d="M605.376 176.43H566.062C564.535 176.43 563.009 175.291 563.009 173.393C563.009 171.874 564.154 170.355 566.062 170.355H605.376C606.903 170.355 608.43 171.494 608.43 173.393C608.43 175.291 607.285 176.43 605.376 176.43Z" fill="#C6D9B8"/>
</g>
</g>
<path opacity="0.3" d="M1058.83 185.163C1052.34 185.163 1047.38 190.099 1047.38 196.554V205.287H1074.86C1081.35 205.287 1086.31 200.351 1086.31 193.896V185.163H1058.83Z" fill="#C5D9FF"/>
<path d="M1070.66 103.909H929.434C922.945 103.909 917.983 108.845 917.983 115.3V189.719C917.983 196.174 922.945 201.11 929.434 201.11H961.496V216.298L975.618 201.11H1071.04C1077.53 201.11 1082.49 196.174 1082.49 189.719V115.3C1082.11 109.225 1077.15 103.909 1070.66 103.909Z" fill="#F20F4B"/>
<path d="M971.801 152.51C971.801 156.686 968.366 160.104 964.168 160.104C959.969 160.104 956.534 156.686 956.534 152.51C956.534 148.333 959.969 144.916 964.168 144.916C968.366 144.916 971.801 148.333 971.801 152.51ZM1000.05 144.916C995.848 144.916 992.413 148.333 992.413 152.51C992.413 156.686 995.848 160.104 1000.05 160.104C1004.25 160.104 1007.68 156.686 1007.68 152.51C1007.68 148.333 1004.25 144.916 1000.05 144.916ZM1035.93 144.916C1031.73 144.916 1028.29 148.333 1028.29 152.51C1028.29 156.686 1031.73 160.104 1035.93 160.104C1040.12 160.104 1043.56 156.686 1043.56 152.51C1043.56 148.333 1040.12 144.916 1035.93 144.916Z" fill="#FFFEFF"/>
<path d="M1156.92 595.608H1022.95C1016.84 595.608 1012.26 600.544 1012.26 606.24V756.597C1012.26 762.672 1017.22 767.228 1022.95 767.228H1156.92C1163.03 767.228 1167.61 762.292 1167.61 756.597V606.24C1167.61 600.165 1163.03 595.608 1156.92 595.608ZM1053.1 603.962C1055.01 603.962 1056.16 605.48 1056.16 606.999C1056.16 608.898 1054.63 610.037 1053.1 610.037C1051.19 610.037 1050.05 608.518 1050.05 606.999C1050.05 605.48 1051.58 603.962 1053.1 603.962ZM1040.89 603.962C1042.8 603.962 1043.94 605.48 1043.94 606.999C1043.94 608.898 1042.41 610.037 1040.89 610.037C1038.98 610.037 1037.83 608.518 1037.83 606.999C1037.45 605.48 1038.98 603.962 1040.89 603.962ZM1028.29 603.962C1030.2 603.962 1031.35 605.48 1031.35 606.999C1031.35 608.898 1029.82 610.037 1028.29 610.037C1026.38 610.037 1025.24 608.518 1025.24 606.999C1025.24 605.48 1026.77 603.962 1028.29 603.962ZM1050.43 748.624H1029.44C1027.15 748.624 1025.62 746.725 1025.62 744.827C1025.62 742.928 1027.53 741.03 1029.44 741.03H1050.43C1052.72 741.03 1054.25 742.928 1054.25 744.827C1054.25 746.725 1052.34 748.624 1050.43 748.624ZM1089.36 748.624H1068.37C1066.08 748.624 1064.55 746.725 1064.55 744.827C1064.55 742.928 1066.46 741.03 1068.37 741.03H1089.36C1091.65 741.03 1093.18 742.928 1093.18 744.827C1093.18 746.725 1091.65 748.624 1089.36 748.624ZM1106.16 731.917H1029.44C1027.15 731.917 1025.62 730.019 1025.62 728.12C1025.62 725.842 1027.53 724.323 1029.44 724.323H1106.16C1108.45 724.323 1109.97 726.222 1109.97 728.12C1109.97 730.398 1108.07 731.917 1106.16 731.917ZM1025.24 711.414C1025.24 709.136 1027.15 707.617 1029.06 707.617H1071.42C1073.71 707.617 1075.24 709.515 1075.24 711.414C1075.24 713.692 1073.33 715.211 1071.42 715.211H1029.06C1027.15 715.211 1025.24 713.692 1025.24 711.414ZM1150.82 731.917H1123.33C1121.04 731.917 1119.52 730.019 1119.52 728.12C1119.52 725.842 1121.42 724.323 1123.33 724.323H1150.82C1153.11 724.323 1154.63 726.222 1154.63 728.12C1155.01 730.398 1153.11 731.917 1150.82 731.917ZM1155.01 694.328H1025.24V618.01H1155.01V694.328Z" fill="#F20F4B"/>
<path d="M899.28 267.176L901.952 264.139L925.998 285.401L927.143 283.123L900.425 248.571L904.624 245.914L930.197 285.022L925.617 288.059L899.28 267.176Z" fill="#C6D9B8"/>
<path d="M939.739 343.114C957.236 343.114 971.42 329.005 971.42 311.6C971.42 294.195 957.236 280.086 939.739 280.086C922.243 280.086 908.059 294.195 908.059 311.6C908.059 329.005 922.243 343.114 939.739 343.114Z" fill="url(#paint9_linear)"/>
<path d="M1121.81 995.422L1090.89 976.058L1019.13 521.189L910.731 531.82C888.211 729.639 886.684 976.438 886.684 976.438L871.034 995.043H934.395L963.022 565.613C963.022 562.955 965.313 560.677 967.603 560.677C969.511 560.677 971.038 561.816 971.42 563.335L1048.52 995.043H1121.81" fill="#F20F4B"/>
<path d="M1014.93 363.997C1025.62 367.415 1085.16 457.401 1085.55 468.412C1086.31 479.423 1038.98 554.982 1038.98 554.982L1026.38 527.644L1052.72 468.032L1003.86 403.865L1014.93 363.997Z" fill="#C6D9B8"/>
<path d="M943.556 359.821L879.813 325.649L845.461 216.677L824.468 224.271C824.468 224.271 849.278 340.077 853.858 346.532C858.439 352.986 924.09 399.309 924.09 399.309L943.556 359.821Z" fill="#C6D9B8"/>
<path d="M914.929 366.275L918.364 449.807L895.081 556.5L1033.25 551.564L1011.88 449.807L1015.31 364.377C946.991 344.633 914.929 366.275 914.929 366.275Z" fill="#F2A007"/>
<path d="M1018.75 528.024C1018.75 528.024 1037.07 526.884 1038.98 531.441C1040.89 535.997 1038.22 540.933 1037.45 542.452C1036.69 543.971 1041.65 549.286 1039.74 554.982C1037.83 560.677 1040.51 565.993 1038.22 570.169C1035.54 574.346 1027.15 572.827 1025.24 572.447C1022.95 572.068 1024.86 560.677 1024.86 560.677C1024.86 560.677 1019.89 558.778 1019.51 556.88C1019.13 554.982 1019.89 545.489 1019.89 545.489C1019.89 545.489 1014.93 540.174 1014.55 538.655C1014.17 537.136 1014.93 533.719 1014.93 533.719L1019.51 533.339L1018.75 528.024Z" fill="#DCA7F9"/>
<path d="M966.076 364.377C960.351 363.997 955.77 359.441 956.152 353.746C956.534 347.291 955.389 341.596 945.083 337.039C923.327 327.167 922.945 247.053 963.022 248.951C1003.1 250.85 998.138 304.766 996.993 319.574C996.23 334.381 982.871 337.419 979.054 342.735C977.527 345.013 977.145 349.569 976.763 354.125C976.763 359.821 971.801 364.757 966.076 364.377Z" fill="#DCA7F9"/>
<path d="M935.541 308.183C935.159 313.119 931.724 316.916 927.525 316.536C923.326 316.156 919.891 312.359 920.273 307.423C920.654 302.488 924.09 298.691 928.288 299.07C932.869 299.45 935.922 303.627 935.541 308.183Z" fill="#DCA7F9"/>
<path d="M1007.68 305.145C1007.3 310.081 1003.86 313.878 999.665 313.499C995.466 313.119 992.031 309.322 992.413 304.386C992.794 299.45 996.23 295.653 1000.43 296.033C1004.63 296.033 1008.06 300.209 1007.68 305.145Z" fill="#DCA7F9"/>
<path d="M958.061 306.664C958.061 308.942 956.534 310.461 954.244 310.841C951.953 310.841 950.427 309.322 950.045 307.044C950.045 304.766 951.572 303.247 953.862 302.867C956.152 302.487 958.061 304.386 958.061 306.664ZM978.29 302.108C976 302.108 974.473 304.006 974.473 306.284C974.473 308.563 976.382 310.081 978.672 310.081C980.962 310.081 982.489 308.183 982.489 305.905C982.107 304.006 980.199 302.108 978.29 302.108Z" fill="#6F3FD0"/>
<path d="M947.755 290.717C947.373 290.717 946.991 290.717 946.991 290.337C946.61 289.958 946.61 289.198 946.991 288.819C950.045 285.781 954.625 284.642 958.824 286.161C959.587 286.54 959.587 286.92 959.587 287.68C959.205 288.439 958.824 288.439 958.06 288.439C955.007 287.3 951.19 288.059 948.9 290.717C948.518 290.717 948.136 290.717 947.755 290.717Z" fill="#6F3FD0"/>
<path d="M982.107 289.578C981.725 289.578 981.726 289.578 981.344 289.578C978.29 287.68 974.473 287.68 971.038 289.198C970.656 289.578 969.893 289.198 969.511 288.819C969.13 288.439 969.511 287.68 969.893 287.3C973.71 285.401 978.672 285.401 982.107 287.68C982.489 288.059 982.871 288.819 982.489 289.198C982.871 289.198 982.489 289.578 982.107 289.578Z" fill="#6F3FD0"/>
<path d="M967.984 316.916C967.221 316.916 966.839 316.916 966.458 316.536C966.076 316.156 965.694 315.397 966.458 315.017C966.839 314.638 967.603 314.258 967.984 315.017H968.366C968.748 315.017 969.129 314.638 969.129 314.258C969.511 313.499 969.129 312.359 969.129 311.22L966.458 301.348C966.458 300.589 966.839 300.209 967.221 299.83C967.984 299.83 968.366 300.209 968.748 300.589L971.42 310.461C971.801 311.6 972.183 313.119 971.42 314.638C971.038 315.777 970.275 316.536 969.129 316.536C968.366 316.916 968.366 316.916 967.984 316.916Z" fill="#6F3FD0"/>
<path d="M968.366 324.13C967.985 324.13 967.603 324.13 967.221 324.13C963.023 323.75 958.824 321.852 956.152 318.814C955.77 318.434 955.77 317.675 956.152 317.295C956.534 316.916 957.297 316.916 957.679 317.295C960.351 319.953 963.786 321.472 967.221 321.852C971.038 322.231 974.473 321.092 977.527 318.814C977.908 318.434 978.672 318.434 979.053 319.194C979.435 319.574 979.435 320.333 978.672 320.713C976 322.991 972.183 324.13 968.366 324.13Z" fill="#6F3FD0"/>
<path d="M997.375 308.942C996.611 308.942 996.23 308.563 996.23 307.803L996.611 300.969C996.611 300.209 997.375 299.83 997.756 299.83C998.52 299.83 998.901 300.209 998.901 300.969L998.52 307.803C998.52 308.563 997.756 308.942 997.375 308.942Z" fill="#F08F78"/>
<path d="M931.724 312.359C931.342 312.359 930.96 311.98 930.579 311.6L928.67 306.664C928.288 305.905 928.67 305.525 929.434 305.145C930.197 304.766 930.579 305.145 930.96 305.905L932.869 310.841C933.251 311.6 932.869 311.98 932.105 312.359C932.105 312.359 932.105 312.359 931.724 312.359Z" fill="#6F3FD0"/>
<path d="M924.853 291.097C927.143 297.172 930.197 302.867 934.777 307.423C940.884 296.033 946.991 284.642 953.099 273.251C964.168 279.326 976 283.123 988.596 285.022C992.795 297.931 999.283 328.686 1003.48 341.596C1012.26 325.649 1012.26 288.819 1004.63 272.492C996.993 255.786 978.672 244.395 960.351 245.914C949.663 247.053 939.739 252.368 933.25 260.722C926.38 269.075 921.418 281.225 924.853 291.097Z" fill="#593325"/>
<path d="M1009.59 420.191C1009.21 420.191 1008.83 420.192 1008.83 419.812C1008.44 419.432 1008.44 418.673 1008.83 418.293C1016.08 410.699 1019.13 398.929 1015.7 388.677C1015.31 387.918 1015.7 387.538 1016.46 387.158C1017.22 386.779 1017.6 387.158 1017.99 387.918C1021.42 398.929 1018.75 411.459 1010.73 419.812C1009.97 419.812 1009.97 420.191 1009.59 420.191Z" fill="#FFBB00"/>
<path d="M992.413 346.532L989.741 360.58C989.741 360.58 962.641 371.591 940.502 359.821L938.976 346.532H992.413Z" fill="#C6D9B8"/>
<path d="M912.639 376.907C912.639 376.907 895.081 404.245 916.838 419.432C938.976 434.62 912.639 376.907 912.639 376.907Z" fill="#C6D9B8"/>
<path d="M845.08 216.677C845.08 216.677 854.622 200.73 855.385 196.554C856.149 192.377 853.859 177.569 852.332 177.569C850.805 177.569 848.133 193.896 848.133 193.896C848.133 193.896 836.301 154.788 833.629 154.029C831.339 153.269 837.064 180.607 837.064 180.607C837.064 180.607 827.903 155.547 825.232 156.307C822.56 157.066 830.575 183.265 830.575 183.265C830.575 183.265 819.125 159.344 816.834 160.104C814.544 160.863 823.705 187.441 823.705 187.441C823.705 187.441 815.689 172.254 813.399 173.013C811.109 173.772 822.178 216.298 822.178 216.298L824.087 224.271L845.08 216.677Z" fill="#DCA7F9"/>
<path d="M311.473 804.058C311.473 805.577 309.946 806.336 308.801 806.336L286.281 804.438L284.373 826.84C284.373 828.359 282.846 829.118 281.701 829.118L259.181 827.219L257.273 849.621C257.273 851.14 255.746 851.899 254.601 851.899L232.081 850.001L230.172 872.403C230.172 873.921 228.646 874.681 227.501 874.681C225.974 874.681 225.211 873.162 225.211 872.023L227.119 846.963C227.119 845.445 228.646 844.685 229.791 844.685L252.311 846.584L254.219 824.182C254.219 822.663 255.746 821.904 256.891 821.904L279.411 823.802L281.319 801.401C281.319 799.882 282.846 799.122 283.991 799.122L309.183 801.021C310.71 801.4 311.855 802.54 311.473 804.058Z" fill="#A1E2FF"/>
<path d="M585.147 283.123C584.765 283.503 584.383 283.503 584.002 283.503C583.238 283.503 582.093 283.123 581.711 282.364L564.154 256.545C563.772 255.786 563.39 254.647 564.154 253.887C564.535 253.128 565.299 252.368 566.444 252.368L597.743 250.09C598.506 250.09 599.651 250.47 600.033 251.229C600.414 251.989 600.796 253.128 600.033 253.887L586.292 281.984C585.91 282.364 585.528 282.744 585.147 283.123ZM570.642 257.304L583.238 275.909L593.162 255.786L570.642 257.304Z" fill="#E0F0FF"/>
<path d="M1142.42 527.644C1142.04 527.644 1141.65 527.644 1141.27 527.644C1140.51 527.264 1139.75 526.505 1139.75 525.745L1134.4 494.99C1134.4 494.231 1134.4 493.092 1135.17 492.712C1135.93 491.953 1136.69 491.953 1137.84 492.333L1167.23 503.344C1167.99 503.723 1168.75 504.483 1168.75 505.242C1168.75 506.001 1168.75 507.141 1167.99 507.52L1143.56 527.644C1143.18 527.644 1142.8 527.644 1142.42 527.644ZM1140.13 498.408L1143.94 520.43L1161.5 506.001L1140.13 498.408Z" fill="#DCA7F9"/>
<path d="M1183.26 862.151L1173.72 857.215L1178.68 847.723C1179.44 846.584 1178.68 845.065 1177.53 844.306C1176.39 843.546 1174.86 844.306 1174.1 845.445L1169.14 854.937L1159.59 850.001C1158.45 849.242 1156.92 850.001 1156.16 851.14C1155.4 852.279 1156.16 853.798 1157.3 854.557L1166.85 859.493L1161.88 868.986C1161.12 870.125 1161.88 871.643 1163.03 872.403C1164.17 873.162 1165.7 872.403 1166.46 871.264L1171.43 861.771L1180.97 866.707C1182.11 867.467 1183.64 866.707 1184.4 865.568C1184.79 864.429 1184.4 862.911 1183.26 862.151Z" fill="#E0F0FF"/>
<path d="M866.454 599.405L856.53 603.962L851.95 594.09C851.186 592.951 849.66 592.191 848.515 592.951C847.369 593.71 846.606 595.229 847.37 596.368L851.95 606.24L842.026 610.796C840.881 611.555 840.117 613.074 840.881 614.213C841.644 615.352 843.171 616.112 844.316 615.352L854.24 610.796L858.82 620.668C859.584 621.807 861.11 622.566 862.256 621.807C863.401 621.048 864.164 619.529 863.401 618.39L858.82 608.518L868.744 603.962C869.889 603.202 870.653 601.683 869.889 600.544C869.508 599.405 867.981 598.646 866.454 599.405Z" fill="#DCA7F9"/>
<path d="M746.221 239.459C751.183 243.635 755 251.609 754.618 258.443C754.237 265.278 750.801 275.909 750.801 275.909L748.893 274.39L746.221 239.459Z" fill="url(#paint10_linear)"/>
<path d="M763.015 286.54C763.779 294.894 757.672 302.108 749.656 302.867C741.259 303.627 734.007 297.552 733.243 289.578C732.48 281.225 738.587 274.011 746.603 273.251C754.618 272.112 762.252 278.187 763.015 286.54Z" fill="url(#paint11_linear)"/>
<path d="M787.444 509.798C787.444 509.798 790.497 514.355 793.551 515.494C796.986 516.633 817.216 519.67 820.651 519.291C823.705 518.911 831.72 513.216 831.72 513.216C831.72 513.216 851.187 514.355 838.209 509.798H787.444Z" fill="#7DCEFF"/>
<path d="M654.233 535.617C632.095 731.917 630.186 976.818 630.186 976.818L614.537 995.043H677.516L706.143 568.65C706.143 565.993 708.433 563.714 710.724 563.714C712.632 563.714 714.159 564.854 714.541 566.372L791.261 995.043H863.401L832.865 976.058L761.489 524.606L654.233 535.617Z" fill="#593325"/>
<path d="M814.544 411.459C814.544 411.459 788.207 351.088 783.245 349.189C778.283 347.291 758.054 341.216 714.922 341.216C701.181 341.216 652.325 353.366 648.508 358.302L660.722 417.913L654.233 535.617L767.214 546.628L774.466 411.459L792.788 434.24L814.544 411.459Z" fill="#F20F4B"/>
<path d="M720.266 348.81C716.449 349.189 713.014 349.189 709.96 346.152C704.617 340.457 704.998 331.724 699.654 326.028C696.983 323.37 693.929 321.472 691.257 319.194C687.059 315.397 684.387 310.461 682.097 305.525C671.409 282.744 670.264 231.106 706.907 228.828C743.549 226.549 748.893 266.797 749.274 285.401C749.274 292.616 748.893 300.589 746.603 307.423C745.458 310.841 743.549 314.638 740.877 317.295C737.824 320.333 734.007 321.472 730.953 324.13C726.755 327.547 729.045 334.382 729.427 338.938C729.427 345.013 725.991 348.43 720.266 348.81Z" fill="#7DCEFF"/>
<path d="M724.083 303.627C724.465 303.247 724.846 302.867 724.846 302.108C724.465 301.348 724.083 301.348 723.32 301.348C720.648 302.487 717.594 302.487 714.922 301.348C712.25 300.589 709.96 298.691 708.434 296.412C708.052 296.033 707.289 295.653 706.907 296.033C706.525 296.412 706.143 297.172 706.525 297.552C708.434 300.209 711.105 302.487 714.159 303.627C717.594 304.766 721.029 304.766 724.083 303.627Z" fill="#6F3FD0"/>
<path d="M722.938 327.547C723.319 327.167 723.701 326.788 723.701 326.028C723.701 325.269 722.938 325.269 722.174 325.269C716.831 326.788 711.487 327.167 706.143 326.028C705.38 326.028 704.998 326.408 704.617 326.788C704.617 327.547 704.998 327.927 705.38 328.306C711.487 329.445 717.212 329.066 722.938 327.547Z" fill="#6F3FD0"/>
<path d="M714.922 270.593C714.922 270.593 715.304 270.593 715.304 270.214C715.686 269.834 715.686 269.075 715.304 268.695C712.632 266.417 709.197 265.658 705.761 266.417C702.326 267.176 699.273 269.075 697.746 272.112C697.364 272.492 697.746 273.251 698.127 273.631C698.509 274.011 699.273 273.631 699.654 273.251C701.181 270.973 703.471 269.075 706.143 268.695C708.815 268.315 711.869 269.075 713.777 270.593C714.159 270.593 714.541 270.593 714.922 270.593Z" fill="#6F3FD0"/>
<path d="M740.877 270.973C740.877 270.593 740.877 270.593 740.877 270.973C741.641 270.593 741.641 269.834 741.259 269.075C739.351 266.417 736.297 264.898 732.862 264.518C729.427 264.518 726.373 265.658 724.083 267.936C723.701 268.315 723.701 269.075 724.083 269.454C724.465 269.834 725.228 269.834 725.61 269.454C727.518 267.556 730.19 266.417 732.48 266.417C735.152 266.417 737.442 267.936 739.351 269.834C739.732 270.973 740.114 270.973 740.877 270.973Z" fill="#6F3FD0"/>
<path d="M725.61 293.755C726.755 293.375 727.518 292.616 727.518 291.097C727.518 289.578 726.755 288.439 726.373 287.68L720.266 279.706C719.884 279.326 719.121 278.947 718.739 279.326C718.357 279.706 717.976 280.465 718.357 280.845L724.464 288.819C724.846 289.198 725.228 289.958 725.228 290.337C725.228 290.717 724.465 291.097 723.701 291.097C722.938 291.097 721.793 290.337 721.029 289.578C720.648 289.198 719.884 289.198 719.502 289.958C719.121 290.337 719.121 291.097 719.884 291.476C721.029 292.236 722.174 292.995 723.701 293.375C724.465 294.134 724.846 294.134 725.61 293.755Z" fill="#6F3FD0"/>
<path d="M738.205 229.967C714.922 219.335 690.112 225.41 685.532 235.282C685.532 235.282 672.936 234.903 666.829 241.737C655.76 254.267 669.501 281.605 669.501 281.605C669.501 281.605 673.699 280.845 677.516 282.744C681.333 284.642 685.15 298.311 688.204 297.172C691.257 296.033 687.822 264.898 687.822 264.898C687.822 264.898 702.326 264.139 702.708 251.989C702.708 251.989 724.464 258.823 740.877 258.823C742.022 264.139 747.366 285.781 748.893 285.022C750.42 284.262 750.801 264.518 750.801 257.684C751.183 250.09 752.328 236.421 738.205 229.967Z" fill="url(#paint12_linear)"/>
<path d="M699.654 352.607L693.547 333.242L739.351 330.964L734.007 349.949L699.654 352.607Z" fill="#F20F4B"/>
<path d="M730.19 275.909C732.48 275.909 734.007 277.428 734.388 279.706C734.388 281.984 732.862 283.503 730.572 283.883C728.281 283.883 726.755 282.364 726.373 280.086C726.373 277.808 728.281 275.909 730.19 275.909ZM703.09 281.225C703.09 283.503 704.998 285.022 707.288 285.022C709.578 285.022 711.105 283.123 711.105 280.845C711.105 278.567 709.197 277.048 706.907 277.048C704.617 277.048 703.09 278.947 703.09 281.225Z" fill="#6F3FD0"/>
<path d="M887.829 406.902H766.069C763.397 406.902 761.107 408.801 760.725 411.459L746.603 502.584H693.929C693.929 506.761 697.364 509.798 701.181 509.798H750.038H807.292H871.798C874.47 509.798 876.76 507.9 877.141 505.242L892.028 411.459C892.028 408.801 890.119 406.902 887.829 406.902Z" fill="#C6D9B8"/>
<path d="M648.508 358.302C638.584 366.275 595.071 457.021 595.834 465.754C596.979 474.487 641.256 557.639 641.256 557.639L656.142 530.302L632.095 468.032L660.34 417.913L648.508 358.302Z" fill="#F20F4B"/>
<path d="M669.119 531.061C669.119 531.061 650.798 524.227 646.981 528.023C643.546 532.2 645.072 537.895 645.072 540.174C645.072 542.072 638.584 545.869 638.965 552.324C639.347 558.778 634.767 563.335 635.912 568.65C637.057 573.966 646.217 575.105 648.508 575.105C650.798 575.485 652.706 563.335 652.706 563.335C652.706 563.335 658.432 562.955 659.577 561.436C660.34 559.538 663.012 549.666 663.012 549.666C663.012 549.666 669.883 545.869 670.646 544.35C671.409 542.831 671.791 539.034 671.791 539.034L667.211 537.136L669.119 531.061Z" fill="#7DCEFF"/>
<path d="M686.295 289.958C687.44 299.83 684.005 308.562 674.081 309.702C664.157 310.841 655.378 303.247 654.233 293.375C653.088 283.503 660.722 274.77 670.646 273.631C680.57 272.492 685.532 280.086 686.295 289.958Z" fill="url(#paint13_linear)"/>
<path d="M698.891 226.17C698.891 226.17 677.898 242.876 677.898 277.048L666.066 278.187C665.684 278.187 667.211 220.095 698.891 226.17Z" fill="url(#paint14_linear)"/>
<path d="M487.815 262.24C450.409 264.518 440.103 295.273 445.829 337.039C451.554 378.805 518.351 378.046 534.382 356.783C555.757 327.547 547.359 258.823 487.815 262.24Z" fill="url(#paint15_linear)"/>
<path d="M445.829 545.489C416.057 614.213 346.207 978.336 346.207 978.336L316.053 995.422H384.758L435.714 790.769L486.67 586.116C487.433 582.699 490.487 580.421 493.922 580.421C498.121 580.421 501.556 583.838 501.556 588.015L500.029 995.802H558.047L539.725 978.716C539.725 978.716 559.573 611.176 553.848 556.5L445.829 545.489Z" fill="#593325"/>
<path d="M439.34 391.335C433.233 397.41 410.331 488.156 416.82 499.926C423.309 511.697 453.844 442.214 453.844 442.214L439.34 391.335Z" fill="url(#paint16_linear)"/>
<path d="M553.084 386.399C564.154 392.094 586.673 480.183 583.238 497.269C579.803 514.355 536.29 427.785 536.29 427.785L553.084 386.399Z" fill="url(#paint17_linear)"/>
<path d="M508.426 373.11C508.426 373.11 495.831 381.843 487.052 372.351C487.052 372.351 485.907 361.34 484.761 358.302C483.616 355.264 467.204 351.847 462.623 334.381C456.516 311.6 456.898 265.278 492.395 267.176C527.893 268.695 532.473 308.942 521.786 335.9C511.098 362.858 508.426 373.11 508.426 373.11Z" fill="url(#paint18_linear)"/>
<path d="M451.554 327.167C452.318 331.344 456.516 334.002 460.715 332.863C464.914 332.103 467.585 327.927 466.44 323.75C465.677 319.574 461.478 316.916 457.28 318.055C453.081 318.814 450.409 322.991 451.554 327.167Z" fill="url(#paint19_linear)"/>
<path d="M521.404 323.37C522.168 327.547 526.366 330.205 530.565 329.066C534.763 328.306 537.435 324.13 536.29 319.953C535.527 315.777 531.328 313.119 527.129 314.258C522.931 315.397 520.259 319.574 521.404 323.37Z" fill="url(#paint20_linear)"/>
<path d="M471.402 307.803C471.784 307.803 472.166 307.803 472.547 307.424C473.692 305.905 475.601 305.145 477.128 305.145C479.036 304.766 480.944 305.525 482.09 306.284C482.471 306.664 483.235 306.664 483.616 305.905C483.998 305.525 483.998 304.766 483.235 304.386C481.326 302.867 479.036 302.487 476.364 302.867C474.074 303.247 471.784 304.386 470.257 305.905C469.875 306.284 469.875 307.044 470.257 307.424C471.021 307.803 471.402 307.803 471.402 307.803Z" fill="#CA795E"/>
<path d="M492.395 307.803C492.777 307.803 493.159 307.803 493.159 307.423C494.686 305.905 496.976 305.525 498.884 305.525C500.793 305.905 502.701 306.664 504.228 308.563C504.61 308.942 505.373 309.322 505.755 308.942C506.136 308.563 506.518 307.803 506.136 307.423C504.61 305.525 501.938 304.006 499.266 303.627C496.594 303.247 493.922 304.386 492.014 305.905C491.632 306.284 491.632 307.044 492.014 307.423C492.014 307.423 492.014 307.803 492.395 307.803Z" fill="#CA795E"/>
<path d="M487.433 334.002C488.579 334.002 489.724 333.622 490.105 333.242C490.487 332.863 490.869 332.103 490.487 331.724C490.105 331.344 489.342 330.964 488.96 331.344C487.815 332.103 487.433 331.724 487.433 331.724C487.433 331.724 487.052 331.344 487.433 330.205L488.579 321.472C488.579 320.713 488.197 320.333 487.433 320.333C486.67 320.333 486.288 320.713 486.288 321.472L485.143 330.205C485.143 330.964 484.761 332.863 486.288 334.002C486.67 333.622 487.052 334.002 487.433 334.002Z" fill="#CA795E"/>
<path d="M525.221 325.649C525.603 325.649 526.366 325.269 526.366 324.889C526.748 322.991 526.748 320.713 526.748 318.435C526.748 317.675 526.366 317.295 525.603 317.295C524.839 317.295 524.457 317.675 524.457 318.435C524.457 320.333 524.457 322.231 524.076 324.13C523.694 324.889 524.076 325.269 525.221 325.649C524.839 325.649 524.839 325.649 525.221 325.649Z" fill="#CA795E"/>
<path d="M525.984 321.852H526.366C527.511 321.472 528.656 321.472 529.801 321.472C530.565 321.472 530.946 321.092 530.946 320.713C530.946 319.953 530.565 319.574 530.183 319.574C528.656 319.194 527.129 319.574 525.603 319.953C524.839 320.333 524.839 320.713 524.839 321.472C524.839 321.472 525.603 321.852 525.984 321.852Z" fill="#CA795E"/>
<path d="M487.433 340.836C488.578 340.836 489.342 340.836 490.487 340.836C494.686 340.457 498.502 338.178 500.411 334.761C500.793 334.381 500.793 333.622 500.029 333.242C499.648 332.863 498.884 332.863 498.502 333.622C496.594 336.66 493.54 338.558 490.105 338.938C486.67 339.317 483.235 338.178 480.563 335.9C480.181 335.521 479.418 335.521 479.036 335.9C478.654 336.28 478.654 337.039 479.036 337.419C481.326 339.317 484.38 340.836 487.433 340.836Z" fill="#CA795E"/>
<path d="M475.219 319.574C476.364 321.472 478.654 322.231 480.563 321.092C482.471 319.953 483.235 317.675 482.09 315.777C480.945 313.878 478.654 313.119 476.746 314.258C474.838 315.397 474.074 317.675 475.219 319.574Z" fill="#CA795E"/>
<path d="M495.831 319.953C496.976 321.852 499.266 322.611 501.174 321.472C503.083 320.333 503.846 318.055 502.701 316.156C501.556 314.258 499.266 313.499 497.357 314.638C495.449 315.777 494.686 318.055 495.831 319.953Z" fill="#CA795E"/>
<path d="M475.601 361.719L477.891 378.805C477.891 378.805 501.556 392.474 518.351 378.046L519.877 361.719H475.601Z" fill="url(#paint21_linear)"/>
<path d="M524.458 378.046C524.458 378.046 546.214 382.222 553.085 386.399C555.756 387.918 547.359 492.712 547.359 492.712L565.299 565.233C565.299 565.233 479.036 581.18 429.034 557.639L455.371 493.472C455.371 493.472 438.959 393.233 439.722 391.335C440.485 389.437 468.349 378.805 468.349 378.805L524.458 378.046Z" fill="url(#paint22_linear)"/>
<path opacity="0.4" d="M451.173 464.995C451.936 464.995 452.318 464.236 452.318 463.856C451.936 461.957 451.936 459.679 451.936 457.401C451.936 455.123 451.554 452.845 451.554 450.567C451.554 450.187 451.554 449.807 451.173 449.807C446.211 446.01 443.92 440.315 442.775 436.139C440.867 429.304 441.63 421.71 443.92 414.876C444.302 414.116 443.92 413.737 443.157 413.357C442.394 412.977 442.012 413.357 441.63 414.116C438.958 421.331 438.195 429.304 440.103 436.898C441.248 441.454 443.539 447.15 448.882 451.706C449.264 453.604 449.264 455.882 449.264 457.781C449.264 460.059 449.646 462.337 449.646 464.615C450.027 464.236 450.409 464.995 451.173 464.995Z" fill="#2DB3FF"/>
<path opacity="0.4" d="M549.649 441.834C550.031 441.834 550.413 441.834 550.413 441.454C556.52 433.481 557.665 421.71 552.703 412.598C552.321 412.218 551.558 411.838 551.176 412.218C550.794 412.598 550.413 413.357 550.794 413.737C555.375 421.71 554.611 432.721 548.886 439.935C548.504 440.315 548.504 441.074 549.268 441.454C549.268 441.834 549.649 441.834 549.649 441.834Z" fill="#2DB3FF"/>
<path d="M492.777 383.741C501.556 383.741 510.335 381.843 518.35 378.426C519.114 378.046 519.114 377.666 519.114 376.907C518.732 376.147 518.35 376.147 517.587 376.147C504.228 381.843 488.96 382.602 475.219 378.805C474.456 378.805 474.074 378.805 473.692 379.565C473.692 380.324 473.692 380.704 474.456 381.083C480.181 382.982 486.67 383.741 492.777 383.741Z" fill="#2A5875"/>
<path d="M464.15 381.843L470.257 447.15C470.639 450.946 473.692 453.604 477.509 453.604L524.458 452.845C528.274 452.845 531.328 449.807 531.328 446.01L534.763 380.324C535.145 376.147 531.71 372.73 527.511 372.73L471.402 373.869C466.822 374.249 463.768 377.666 464.15 381.843Z" fill="#C6D9B8"/>
<path d="M466.44 407.282C465.677 406.902 464.913 407.282 464.15 407.282C461.86 407.662 459.57 409.18 457.661 410.32C455.753 411.459 451.554 413.357 451.554 416.015C451.554 420.571 455.371 423.229 456.516 424.748C457.661 425.887 455.371 431.582 458.806 435.379C462.242 439.176 461.86 444.492 465.295 447.15C468.73 449.807 475.219 446.01 476.746 444.871C478.273 443.732 473.311 435.379 473.311 435.379C473.311 435.379 476.746 432.342 476.746 430.443C476.364 428.924 472.929 421.331 472.929 421.331C472.929 421.331 475.219 415.635 475.219 414.116C474.837 412.977 473.311 410.32 473.311 410.32L469.494 411.459C469.494 411.459 468.349 408.421 468.349 408.041C466.822 407.662 466.44 407.662 466.44 407.282Z" fill="url(#paint23_linear)"/>
<path d="M532.855 406.143C533.237 406.143 533.618 405.763 534 406.143C535.908 406.523 537.817 407.662 539.725 408.421C542.397 409.56 548.504 411.459 548.504 414.876C548.886 419.432 545.069 422.47 543.924 423.609C542.779 424.748 545.451 430.443 542.016 434.62C538.58 438.796 539.344 443.732 536.29 446.77C532.855 449.807 526.366 446.01 524.839 444.871C523.313 443.732 527.893 434.999 527.893 434.999C527.893 434.999 524.076 431.962 524.458 430.443C524.839 428.924 527.893 420.951 527.893 420.951C527.893 420.951 525.221 415.256 525.603 413.737C525.984 412.598 527.511 409.56 527.511 409.56L531.328 410.699C531.328 410.699 531.328 407.282 532.855 406.143Z" fill="url(#paint24_linear)"/>
<path d="M456.135 424.368C456.135 424.368 413.385 479.043 416.82 499.547C419.874 520.43 444.684 517.392 451.554 502.964C458.043 488.536 466.822 439.176 466.822 439.176L456.135 424.368Z" fill="url(#paint25_linear)"/>
<path d="M543.542 422.09C543.542 422.09 586.292 476.765 582.857 497.269C579.803 518.152 554.993 515.114 548.123 500.686C541.634 486.258 532.855 436.898 532.855 436.898L543.542 422.09Z" fill="url(#paint26_linear)"/>
<path d="M478.654 288.819C485.143 316.536 521.022 351.468 521.022 351.468C521.022 351.468 541.634 338.178 536.29 312.359C530.946 286.92 516.824 263 489.342 264.518C462.242 266.037 453.463 284.642 453.463 296.033C453.463 307.423 459.952 318.055 459.952 318.055L478.654 288.819Z" fill="url(#paint27_linear)"/>
<path d="M364.528 641.551H302.312C294.679 641.551 288.19 647.626 288.19 655.599V694.708C288.19 702.301 294.297 708.756 302.312 708.756H321.015L333.611 721.286L346.207 708.756H364.91C372.544 708.756 379.033 702.681 379.033 694.708V655.599C378.651 648.006 372.162 641.551 364.528 641.551ZM338.192 685.595L333.229 688.633L328.268 685.595C316.053 678.001 316.053 672.306 316.053 670.028C316.053 665.092 319.87 661.295 324.832 661.295C328.268 661.295 331.321 663.193 332.848 666.231C334.375 663.193 337.428 661.295 340.863 661.295C345.825 661.295 349.642 665.092 349.642 670.028C350.406 672.306 350.406 678.001 338.192 685.595Z" fill="#F2A007"/>
<defs>
<linearGradient id="paint0_linear" x1="765.959" y1="752.941" x2="765.959" y2="805.418" gradientUnits="userSpaceOnUse">
<stop offset="0.0104037" stop-color="white"/>
<stop offset="1" stop-color="#F2A007" stop-opacity="0"/>
</linearGradient>
<linearGradient id="paint1_linear" x1="911.339" y1="751.54" x2="911.339" y2="1051.16" gradientUnits="userSpaceOnUse">
<stop offset="0.00309198" stop-color="#5C00A9"/>
<stop offset="1" stop-color="#817EF9"/>
</linearGradient>
<linearGradient id="paint2_linear" x1="1086.34" y1="497.862" x2="1184.12" y2="253.979" gradientUnits="userSpaceOnUse">
<stop offset="0.00309198" stop-color="#5C00A9"/>
<stop offset="1" stop-color="#817EF9"/>
</linearGradient>
<linearGradient id="paint3_linear" x1="1073.27" y1="492.623" x2="1171.05" y2="248.739" gradientUnits="userSpaceOnUse">
<stop offset="0.00309198" stop-color="#5C00A9"/>
<stop offset="1" stop-color="#817EF9"/>
</linearGradient>
<linearGradient id="paint4_linear" x1="904.472" y1="596.816" x2="1111.12" y2="401.447" gradientUnits="userSpaceOnUse">
<stop stop-color="#FFD125"/>
<stop offset="1" stop-color="#FFF576"/>
</linearGradient>
<linearGradient id="paint5_linear" x1="890.834" y1="582.391" x2="1097.48" y2="387.02" gradientUnits="userSpaceOnUse">
<stop stop-color="#FFD125"/>
<stop offset="1" stop-color="#FFF576"/>
</linearGradient>
<linearGradient id="paint6_linear" x1="871.142" y1="561.561" x2="1077.79" y2="366.192" gradientUnits="userSpaceOnUse">
<stop stop-color="#FFD125"/>
<stop offset="1" stop-color="#FFF576"/>
</linearGradient>
<linearGradient id="paint7_linear" x1="949.55" y1="644.495" x2="1156.19" y2="449.125" gradientUnits="userSpaceOnUse">
<stop stop-color="#FFD125"/>
<stop offset="1" stop-color="#FFF576"/>
</linearGradient>
<linearGradient id="paint8_linear" x1="626.214" y1="178.869" x2="751.684" y2="24.7069" gradientUnits="userSpaceOnUse">
<stop stop-color="white"/>
<stop offset="0.1247" stop-color="white"/>
<stop offset="0.9976" stop-color="#EAEFFF"/>
</linearGradient>
<linearGradient id="paint9_linear" x1="919.645" y1="277.092" x2="986.568" y2="393.085" gradientUnits="userSpaceOnUse">
<stop offset="0.00309198" stop-color="#5C00A9"/>
<stop offset="1" stop-color="#817EF9"/>
</linearGradient>
<linearGradient id="paint10_linear" x1="741.721" y1="290.274" x2="749.467" y2="254.496" gradientUnits="userSpaceOnUse">
<stop offset="0.00942211" stop-color="#817EF9"/>
<stop offset="0.9976" stop-color="#E4ABF9"/>
</linearGradient>
<linearGradient id="paint11_linear" x1="747.182" y1="291.456" x2="754.928" y2="255.679" gradientUnits="userSpaceOnUse">
<stop offset="0.00942211" stop-color="#817EF9"/>
<stop offset="0.9976" stop-color="#E4ABF9"/>
</linearGradient>
<linearGradient id="paint12_linear" x1="654.838" y1="190.643" x2="784.398" y2="358.413" gradientUnits="userSpaceOnUse">
<stop offset="0.00309198" stop-color="#5C00A9"/>
<stop offset="1" stop-color="#817EF9"/>
</linearGradient>
<linearGradient id="paint13_linear" x1="662.443" y1="303.868" x2="713.09" y2="233.607" gradientUnits="userSpaceOnUse">
<stop offset="0.00942211" stop-color="#817EF9"/>
<stop offset="0.9976" stop-color="#E4ABF9"/>
</linearGradient>
<linearGradient id="paint14_linear" x1="645.231" y1="300.564" x2="712.206" y2="207.651" gradientUnits="userSpaceOnUse">
<stop offset="0.00942211" stop-color="#817EF9"/>
<stop offset="0.9976" stop-color="#E4ABF9"/>
</linearGradient>
<linearGradient id="paint15_linear" x1="443.912" y1="369.849" x2="567.363" y2="240.692" gradientUnits="userSpaceOnUse">
<stop offset="0.00309198" stop-color="#5C00A9"/>
<stop offset="1" stop-color="#817EF9"/>
</linearGradient>
<linearGradient id="paint16_linear" x1="384.502" y1="532.857" x2="499.777" y2="317.645" gradientUnits="userSpaceOnUse">
<stop offset="0.00942211" stop-color="#7DCEFF"/>
<stop offset="0.9976" stop-color="#2EB3FF"/>
</linearGradient>
<linearGradient id="paint17_linear" x1="488.685" y1="588.662" x2="603.961" y2="373.449" gradientUnits="userSpaceOnUse">
<stop offset="0.00942211" stop-color="#7DCEFF"/>
<stop offset="0.9976" stop-color="#2EB3FF"/>
</linearGradient>
<linearGradient id="paint18_linear" x1="337.824" y1="465.969" x2="574.327" y2="242.945" gradientUnits="userSpaceOnUse">
<stop stop-color="#FFD125"/>
<stop offset="1" stop-color="#FFF576"/>
</linearGradient>
<linearGradient id="paint19_linear" x1="322.705" y1="452.525" x2="559.21" y2="229.499" gradientUnits="userSpaceOnUse">
<stop stop-color="#FFD125"/>
<stop offset="1" stop-color="#FFF576"/>
</linearGradient>
<linearGradient id="paint20_linear" x1="354.915" y1="484.092" x2="591.419" y2="261.071" gradientUnits="userSpaceOnUse">
<stop stop-color="#FFD125"/>
<stop offset="1" stop-color="#FFF576"/>
</linearGradient>
<linearGradient id="paint21_linear" x1="403.384" y1="542.973" x2="518.661" y2="327.759" gradientUnits="userSpaceOnUse">
<stop offset="0.00942211" stop-color="#7DCEFF"/>
<stop offset="0.9976" stop-color="#2EB3FF"/>
</linearGradient>
<linearGradient id="paint22_linear" x1="452.8" y1="569.441" x2="568.076" y2="354.229" gradientUnits="userSpaceOnUse">
<stop offset="0.00942211" stop-color="#7DCEFF"/>
<stop offset="0.9976" stop-color="#2EB3FF"/>
</linearGradient>
<linearGradient id="paint23_linear" x1="378.602" y1="509.211" x2="615.106" y2="286.188" gradientUnits="userSpaceOnUse">
<stop stop-color="#FFD125"/>
<stop offset="1" stop-color="#FFF576"/>
</linearGradient>
<linearGradient id="paint24_linear" x1="409.548" y1="542.029" x2="646.052" y2="319.005" gradientUnits="userSpaceOnUse">
<stop stop-color="#FFD125"/>
<stop offset="1" stop-color="#FFF576"/>
</linearGradient>
<linearGradient id="paint25_linear" x1="391.543" y1="522.936" x2="628.047" y2="299.912" gradientUnits="userSpaceOnUse">
<stop stop-color="#FFD125"/>
<stop offset="1" stop-color="#FFF576"/>
</linearGradient>
<linearGradient id="paint26_linear" x1="441.759" y1="576.187" x2="678.264" y2="353.163" gradientUnits="userSpaceOnUse">
<stop stop-color="#FFD125"/>
<stop offset="1" stop-color="#FFF576"/>
</linearGradient>
<linearGradient id="paint27_linear" x1="440.741" y1="366.818" x2="564.193" y2="237.661" gradientUnits="userSpaceOnUse">
<stop offset="0.00309198" stop-color="#5C00A9"/>
<stop offset="1" stop-color="#817EF9"/>
</linearGradient>
<clipPath id="clip0">
<rect width="1428" height="963" fill="white" transform="matrix(-1 0 0 1 1428 18)"/>
</clipPath>
</defs>
</svg>
