<svg width="1390" height="946" viewBox="0 0 1390 946" fill="none" xmlns="http://www.w3.org/2000/svg">
<g clip-path="url(#clip0)">
<path d="M1390 -55H-50V946H1390V-55Z" fill="white"/>
<path d="M1460 9.52502H-756V1033.01H1460V9.52502Z" fill="white"/>
<path d="M1460 9.52502H-756V1033.01H1460V9.52502Z" fill="white"/>
<path d="M1575 85.7656H-641V1109.25H1575V85.7656Z" fill="white"/>
<path d="M383.165 873.995C376.462 872.734 369.907 871.474 363.502 870.33C315.984 861.625 267.87 852.233 221.842 839.634C174.92 826.806 123.975 799.317 105.058 761.865C90.757 733.689 98.503 701.39 112.059 673.902C201.732 489.615 211.266 509.544 97.908 379.662C-15.5995 249.893 16.4267 76.0293 260.124 61.2548C369.46 54.6115 427.853 117.033 478.201 179.455C540.019 256.193 589.771 332.817 706.854 281.391C919.419 188.159 942.954 373.018 919.418 496.716C895.734 620.414 654.867 612.396 763.607 725.443C797.421 760.719 800.549 823.37 761.075 855.44C665.443 933.097 503.077 897.016 383.165 873.995Z" fill="#744F8C"/>
<path d="M816.885 828.629C810.182 827.369 803.627 826.109 797.222 824.963C749.704 816.259 701.59 806.867 655.562 794.268C608.64 781.44 557.695 753.952 538.778 716.499C524.477 688.324 532.223 656.025 545.779 628.536C635.452 444.25 644.986 464.179 531.628 334.296C418.12 204.528 450.147 30.6637 693.844 15.8887C803.18 9.24563 861.573 71.6675 911.921 134.088C973.74 210.827 1023.49 287.451 1140.57 236.025C1353.14 142.793 1376.67 327.653 1353.14 451.351C1329.45 575.048 1088.59 567.031 1197.33 680.077C1231.14 715.354 1234.27 778.004 1194.79 810.074C1099.16 887.729 936.797 851.65 816.885 828.629Z" fill="#744F8C"/>
<path d="M985.24 99.1481C988.47 109.256 981.09 119.618 968.78 122.271C956.47 124.925 943.846 118.859 940.615 108.751C937.383 98.6427 944.77 88.2808 957.08 85.6278C969.55 82.9738 982.01 89.0394 985.24 99.1481Z" fill="#1B2747"/>
<path d="M138.71 340.199L127.938 335.776L108.394 327.563L78.0779 314.927C89.3119 296.858 107.778 293.952 107.778 293.952L97.0059 289.53L103.316 279.295L131.323 290.92L124.552 288.14L153.33 241.515C137.017 228.247 146.558 197.037 155.484 176.441C155.484 169.239 154.407 157.867 148.405 157.867C147.79 157.867 147.174 157.993 146.405 158.246C135.325 162.037 151.329 184.907 145.327 199.691C142.557 206.388 136.248 209.041 130.554 209.041C123.629 209.041 117.473 205.25 119.32 200.449C121.013 196.279 123.937 195.269 126.553 195.269C129.631 195.269 132.401 196.659 132.401 196.659C132.401 196.659 132.093 196.659 131.785 196.659C130.092 196.659 125.783 196.911 125.937 200.07C125.937 201.586 128.553 202.597 131.631 202.597C136.402 202.597 142.557 199.943 141.788 192.109C140.711 179.474 120.859 150.159 146.558 150.159C146.712 150.159 146.712 150.159 146.866 150.159C155.176 150.159 159.947 159.383 161.64 163.553C162.717 161.532 163.486 160.015 164.102 158.878L162.409 158.119L165.487 153.065L245.971 186.55L242.893 191.604L241.2 190.846C240.431 191.857 239.353 193.499 237.968 195.269C240.585 194.636 245.047 193.625 249.356 193.625C253.511 193.625 257.512 194.51 259.975 197.164C275.517 214.222 234.891 218.517 221.81 225.215C209.961 231.28 217.809 240.63 222.272 240.63C222.733 240.63 223.195 240.504 223.503 240.377C227.35 238.23 223.041 234.059 223.041 234.059C223.041 234.059 233.66 237.471 227.042 244.927C225.657 246.569 223.657 247.2 221.656 247.2C213.808 247.2 203.651 237.345 212.423 227.236C223.503 214.474 255.358 211.568 252.434 201.965C251.818 199.943 250.126 199.06 247.971 199.06C242.739 199.06 234.583 203.482 229.197 206.64C215.039 223.698 191.956 246.822 170.411 246.822C169.18 246.822 167.949 246.695 166.718 246.569L137.941 293.195L159.177 302.039L152.868 312.274L142.096 307.852C141.788 308.104 149.944 322.13 138.71 340.199Z" fill="#B14214"/>
<path d="M141.172 355.109L61.9189 322.13L68.6909 311.01L127.938 335.65L138.71 340.072L147.943 343.989L141.172 355.109Z" fill="#B14214"/>
<path d="M138.71 340.198L127.938 335.776L138.71 340.198Z" fill="#83220E"/>
<path d="M258.59 182.507C258.59 182.507 276.595 176.567 283.058 183.644C298.601 200.702 257.974 204.998 244.893 211.694C231.813 218.391 242.585 229.005 246.586 226.858C250.433 224.709 246.125 220.54 246.125 220.54C246.125 220.54 256.743 223.952 250.126 231.406C243.508 238.987 224.426 226.478 235.506 213.717C246.586 200.954 278.441 198.048 275.517 188.445C272.593 178.842 246.894 196.659 246.894 196.659L258.59 182.507Z" fill="#F3632F"/>
<path d="M185.646 152.181C185.646 152.181 180.876 136.766 169.949 136.639C143.942 136.513 163.794 165.954 165.025 178.59C166.102 191.224 149.328 190.341 149.174 186.55C149.021 182.759 155.638 183.138 155.638 183.138C155.638 183.138 146.097 178.083 142.557 186.929C139.018 195.774 162.563 201.081 168.564 186.171C174.566 171.26 158.562 148.517 169.642 144.726C180.722 140.935 178.567 168.607 178.567 168.607L185.646 152.181Z" fill="#F3632F"/>
<path d="M177.952 225.594L147.79 274.493L160.716 279.926L190.878 231.027L177.952 225.594Z" fill="#F3632F"/>
<path d="M227.042 159.383L188.416 143.336C188.416 143.336 146.097 216.244 182.568 231.406C219.04 246.569 265.668 175.43 265.668 175.43L227.042 159.383Z" fill="#FAB42C"/>
<path d="M175.797 299.007L120.243 275.883L126.553 265.648L182.107 288.772L175.797 299.007Z" fill="#EAA819"/>
<path d="M165.179 294.585L148.097 287.508L131.016 280.432C131.016 280.432 112.549 283.338 101.315 301.407L131.631 314.043L161.947 326.678C173.181 308.483 165.179 294.585 165.179 294.585Z" fill="#F3632F"/>
<path d="M269.054 173.03L188.724 139.545L185.646 144.473L265.976 177.957L269.054 173.03Z" fill="#F3632F"/>
<path d="M164.563 341.589L85.3109 308.609L92.0819 297.49L171.488 330.469L164.563 341.589Z" fill="#B33922"/>
<path d="M216.886 190.972C215.193 198.427 207.344 204.366 198.727 207.272C194.418 208.788 187.185 210.178 185.8 214.6C184.107 219.655 191.802 222.561 196.726 223.319C209.96 225.468 221.964 217.507 230.428 210.305C237.199 204.493 244.585 198.68 249.51 191.73C254.434 184.781 252.895 178.589 244.739 174.294C232.582 167.976 218.578 162.921 205.498 157.993C204.267 157.614 196.726 153.824 195.187 155.214C193.648 156.73 203.189 163.553 204.267 164.564C210.73 170.249 216.424 178.589 217.193 186.424C217.347 187.94 217.193 189.456 216.886 190.972Z" fill="#FEE647"/>
<path d="M145.943 286.624C145.943 286.624 156.253 301.66 148.097 320.866L156.715 324.404C156.715 324.404 168.103 306.841 165.179 294.584L145.943 286.624Z" fill="#F6882D"/>
<path d="M80.2319 562.206C82.3869 562.333 84.5409 562.459 86.6959 562.585C84.5409 562.459 82.3869 562.333 80.2319 562.206Z" fill="#38BFF3"/>
<path d="M224.888 665.818C225.042 666.702 225.349 667.461 225.349 668.346C225.349 667.587 225.042 666.702 224.888 665.818Z" fill="#229ACA"/>
<path d="M226.119 672.515C226.273 673.4 226.427 674.157 226.427 674.916C226.427 674.157 226.273 673.4 226.119 672.515Z" fill="#229ACA"/>
<path d="M227.042 679.591C227.042 680.349 227.196 680.98 227.196 681.739C227.196 680.98 227.042 680.223 227.042 679.591Z" fill="#229ACA"/>
<path d="M221.195 653.056C221.502 653.815 221.656 654.572 221.964 655.331C221.81 654.572 221.502 653.815 221.195 653.056Z" fill="#229ACA"/>
<path d="M223.195 659.374C223.503 660.132 223.657 661.016 223.811 661.775C223.811 661.016 223.503 660.258 223.195 659.374Z" fill="#229ACA"/>
<path d="M209.499 629.301C209.653 629.554 209.807 629.807 209.961 630.06C209.807 629.933 209.653 629.554 209.499 629.301Z" fill="#229ACA"/>
<path d="M213.038 635.113C213.346 635.619 213.5 635.998 213.808 636.503C213.5 635.998 213.192 635.493 213.038 635.113Z" fill="#229ACA"/>
<path d="M218.886 646.864C219.194 647.623 219.502 648.254 219.809 648.887C219.502 648.254 219.194 647.623 218.886 646.864Z" fill="#229ACA"/>
<path d="M216.116 640.926C216.424 641.558 216.732 642.064 217.04 642.695C216.732 642.064 216.424 641.558 216.116 640.926Z" fill="#229ACA"/>
<path d="M1147.92 434.287C1153.11 437.555 1161.57 438.743 1162.12 433.098C1162.94 427.157 1155.84 427.157 1150.1 423.591C1144.37 420.026 1135.08 411.411 1135.08 411.411L1106.13 437.257C1106.13 437.257 1136.72 467.263 1141.64 465.777C1144.64 464.886 1144.09 462.212 1144.09 462.212C1144.09 462.212 1146.83 465.777 1149.28 464.886C1151.74 464.291 1151.74 461.321 1151.74 461.321C1151.74 461.321 1154.47 463.995 1156.38 461.024C1158.57 457.459 1153.65 445.575 1147.92 434.287Z" fill="#B0614E"/>
<path d="M1150.1 461.618C1150.1 461.618 1147.92 453.597 1142.46 445.575L1145.19 443.496C1150.92 452.111 1153.11 460.43 1153.38 460.727L1150.1 461.618Z" fill="black"/>
<path d="M1142.73 462.806C1142.73 462.806 1139.45 455.676 1135.63 450.032L1138.36 447.953C1142.46 453.894 1145.73 461.024 1145.73 461.321L1142.73 462.806Z" fill="black"/>
<path d="M1137.54 433.395C1134.54 433.395 1131.8 432.505 1129.35 430.722L1131.26 427.751C1134.26 430.127 1138.63 430.424 1142.18 428.642L1143.82 431.91C1141.91 432.801 1139.72 433.395 1137.54 433.395Z" fill="black"/>
<path d="M1065.99 234.352L1038.68 244.75L1011.64 217.418L1043.05 147.01L1062.71 171.371L1073.09 184.145L1067.62 204.643L1064.35 217.121L1065.99 234.352Z" fill="#B0614E"/>
<path d="M1062.71 171.371L1073.09 184.145L1067.62 204.94C1058.89 197.514 1052.88 186.224 1052.06 174.341C1055.61 173.153 1059.16 172.262 1062.71 171.371Z" fill="#262626"/>
<path d="M1109.68 137.504C1108.04 159.488 1098.21 182.957 1085.65 189.195C1061.07 201.672 1047.96 174.639 1047.96 174.639L1044.96 133.642L1044.68 129.779V128.888V128.294V127.403C1044.68 127.403 1044.68 126.809 1044.96 126.214C1045.23 125.62 1045.5 124.729 1046.05 123.541C1048.23 117.599 1053.15 106.904 1062.16 100.071C1069.26 94.7238 1078.82 91.4559 1091.66 95.6154C1095.48 96.8031 1098.76 98.8833 1101.49 101.854C1104.22 105.122 1106.41 108.984 1107.77 113.44C1108.59 115.816 1109.14 118.491 1109.41 121.164C1109.41 121.758 1109.68 122.055 1109.68 122.649C1109.96 125.026 1110.23 127.403 1110.23 129.779C1109.68 132.453 1109.68 134.829 1109.68 137.504Z" fill="#B0614E"/>
<path d="M1083.46 164.241C1082.92 164.241 1082.65 164.241 1082.1 163.943L1082.92 160.973C1083.46 161.27 1084.01 160.973 1084.56 160.675C1085.1 160.378 1085.38 159.785 1085.38 159.191L1088.38 142.554L1091.11 143.148L1088.11 159.785C1087.83 161.27 1087.02 162.458 1085.92 163.053C1085.1 163.943 1084.28 164.241 1083.46 164.241Z" fill="#262626"/>
<path d="M1078.28 141.365C1078 142.554 1076.91 143.445 1076.36 143.148C1075.54 142.851 1075.27 141.662 1075.54 140.475C1075.82 139.286 1076.91 138.394 1077.46 138.692C1078.28 138.989 1078.55 140.177 1078.28 141.365Z" fill="#262626"/>
<path d="M1100.4 148.198C1100.12 149.387 1099.03 150.278 1098.49 149.981C1097.67 149.684 1097.39 148.495 1097.67 147.307C1097.94 146.119 1099.03 145.227 1099.58 145.525C1100.4 145.822 1100.67 147.01 1100.4 148.198Z" fill="#262626"/>
<path d="M1076.09 168.4C1074.73 167.806 1073.36 166.617 1072.81 164.835C1072.27 163.349 1072.27 161.27 1073.09 159.785L1075.54 160.973C1075.27 161.864 1075.27 162.756 1075.54 163.646C1075.82 164.538 1076.64 165.132 1077.18 165.429L1076.09 168.4Z" fill="#262626"/>
<path d="M1076.09 128.591C1075.54 128.591 1074.73 128.591 1074.18 128.888C1073.63 129.185 1073.09 129.779 1073.09 130.671C1073.09 131.859 1074.18 132.75 1075 133.344C1077.18 134.532 1079.64 134.829 1082.1 134.829C1082.92 134.829 1084.01 134.532 1084.28 133.642C1085.38 131.859 1082.92 130.374 1082.1 129.779C1080.19 128.888 1078 128.591 1076.09 128.591Z" fill="#262626"/>
<path d="M1099.58 135.424C1099.03 135.424 1098.49 135.424 1097.94 135.424C1097.39 135.721 1096.85 136.018 1096.85 136.612C1096.57 137.503 1097.39 138.692 1098.21 139.286C1099.85 140.475 1102.04 141.365 1103.95 141.662C1104.77 141.662 1105.59 141.662 1105.86 141.068C1106.95 139.583 1105.31 138.097 1104.49 137.503C1103.13 136.315 1101.49 135.721 1099.58 135.424Z" fill="#262626"/>
<path d="M1107.23 113.44C1097.67 111.063 1087.83 108.984 1078.28 106.607C1070.08 118.491 1057.52 126.511 1044.14 128.888V128.294V127.403C1044.14 127.403 1044.14 126.809 1044.41 126.214C1044.68 125.62 1044.96 124.729 1045.5 123.541C1047.69 117.599 1052.6 106.904 1061.62 100.071C1068.72 94.7238 1078.28 91.4559 1091.11 95.6154C1094.94 96.8031 1098.21 98.8833 1100.94 101.854C1103.67 104.825 1105.86 108.984 1107.23 113.44Z" fill="#262626"/>
<path d="M1053.15 128.888C1052.33 125.917 1049.87 123.838 1047.41 123.244C1044.68 122.649 1041.95 123.244 1039.49 125.026C1034.31 128.591 1031.57 136.315 1033.76 142.851C1035.94 149.09 1042.5 153.545 1048.51 152.655" fill="#B0614E"/>
<path d="M1041.13 141.959C1040.86 138.692 1041.41 135.424 1042.77 132.75L1039.49 133.047L1039.22 130.077L1045.23 129.482L1046.32 131.859C1044.14 134.532 1043.04 138.097 1043.59 141.365L1041.13 141.959Z" fill="#262626"/>
<path d="M1146.01 409.035L1103.13 449.14C1103.13 449.14 1056.43 423.591 1014.91 387.348C997.44 372.197 981.05 354.966 969.58 337.142L976.13 319.019L1018.19 203.158C1018.19 203.158 1034.58 245.047 1064.35 217.418C1064.35 217.418 1093.57 237.917 1099.85 250.691C1104.77 261.089 1100.67 344.271 1100.67 344.271L1146.01 409.035Z" fill="#F20F4B"/>
<path d="M1128.53 643.134L1159.93 699.579L1269.18 636.895C1265.63 628.875 1257.16 624.418 1248.97 623.824C1240.77 623.526 1232.58 626.201 1224.66 628.577C1216.74 630.954 1208.27 633.033 1200.08 631.548C1191.34 629.765 1183.42 623.526 1179.05 614.911" fill="black"/>
<path d="M1062.98 360.908L1065.99 317.831L1068.99 341.3L1062.98 360.908Z" fill="#F20F4B"/>
<path d="M1032.39 464.588L1131.8 660.365L1206.91 615.803L1068.99 356.452L962.75 354.372L964.39 673.437H1050.15L1042.23 446.17" fill="#F2A007"/>
<path d="M1041.68 365.364L1014.91 387.348C997.44 372.197 981.05 354.966 969.58 337.142L976.13 319.019L996.07 286.638L998.53 307.731L1041.68 365.364Z" fill="#F20F4B"/>
<path d="M1194.7 592.777L1120.74 638.788L1122.5 642.139L1196.47 596.128L1194.7 592.777Z" fill="white"/>
<path d="M332.609 778.901L328.275 778.576C330.803 737.225 342.359 696.2 361.498 659.733C380.998 623.266 406.998 593.636 437.332 573.775C467.665 553.913 502.693 543.169 538.443 543.169C574.554 543.169 609.582 553.913 639.555 573.775C669.888 593.636 695.888 623.591 715.389 659.733C734.528 695.874 746.083 736.9 748.611 778.25L744.278 778.576C741.75 737.876 730.555 697.176 711.416 661.361C692.277 625.545 666.638 596.567 637.027 576.705C607.416 557.169 573.471 546.75 538.443 546.75C503.415 546.75 469.471 557.169 439.859 576.38C410.248 595.916 384.609 625.22 365.47 661.036C346.692 697.502 335.137 738.202 332.609 778.901Z" fill="black"/>
<path d="M1143.31 778.901C1143.31 778.901 1115.86 640.523 1020.17 640.523C924.112 640.523 896.306 778.901 896.306 778.901" fill="#F20F4B"/>
<path d="M574.194 583.217H266.525C246.664 583.217 230.414 597.869 230.414 615.777C230.414 633.685 246.664 648.336 266.525 648.336H574.555V583.217H574.194Z" fill="#F2A007"/>
<path d="M574.194 634.336V597.218H263.275C252.803 597.218 244.497 605.683 244.497 615.777C244.497 625.871 252.803 634.336 263.275 634.336H574.194Z" fill="white"/>
<path d="M188.525 713.782H496.554C516.415 713.782 532.666 699.13 532.666 681.222C532.666 663.314 516.415 648.663 496.554 648.663H188.525V713.782Z" fill="#F2A007"/>
<path d="M188.525 662.338V699.781H499.804C510.277 699.781 518.582 691.316 518.582 681.223C518.582 671.129 510.277 662.663 499.804 662.663H188.525V662.338Z" fill="white"/>
<path d="M893.779 778.901H626.916C597.666 778.901 573.832 757.412 573.832 731.039V263.479C573.832 237.106 597.666 215.616 626.916 215.616H893.779C923.029 215.616 946.862 237.106 946.862 263.479V731.039C946.862 757.412 923.029 778.901 893.779 778.901Z" fill="#F2A007"/>
<path d="M626.916 750.901C614.999 750.901 605.249 742.109 605.249 731.365V263.479C605.249 252.734 614.999 243.943 626.916 243.943H893.779C905.695 243.943 915.445 252.734 915.445 263.479V731.039C915.445 741.783 905.695 750.574 893.779 750.574H626.916V750.901Z" fill="white"/>
<path d="M825.528 274.224H695.527C681.083 274.224 668.805 265.433 665.194 253.061L658.694 229.943H862.001L855.501 253.061C852.251 265.433 839.612 274.224 825.528 274.224Z" fill="#F2A007"/>
<path d="M861.278 512.888V566.937L837.445 551.634L812.889 566.937V512.888H861.278Z" fill="white"/>
<path d="M880.228 508.547C884.097 487.07 867.923 466.836 844.102 463.353C820.281 459.87 797.834 474.457 793.965 495.934C790.096 517.412 806.27 537.646 830.091 541.129C853.912 544.613 876.359 530.025 880.228 508.547Z" fill="#F20F4B"/>
<path d="M861.639 502.144C861.639 514.191 850.806 523.958 837.445 523.958C824.084 523.958 813.25 514.191 813.25 502.144C813.25 490.096 824.084 480.328 837.445 480.328C850.806 480.328 861.639 490.096 861.639 502.144Z" fill="#F2A007"/>
<path d="M759.805 480.002H639.916V503.771H759.805V480.002Z" fill="#F2A007"/>
<path d="M759.805 526.237H639.916V550.006H759.805V526.237Z" fill="#F2A007"/>
<path d="M880.778 347.159H786.167V370.927H880.778V347.159Z" fill="#F2A007"/>
<path d="M880.778 393.393H786.167V417.162H880.778V393.393Z" fill="#F2A007"/>
<path d="M705.277 387.533C703.833 387.533 702.027 387.533 700.583 387.206L700.944 381.672C721.527 382.974 739.944 373.857 747.166 364.09C748.972 361.484 751.861 356.926 749.333 352.693C741.75 339.67 715.389 350.74 715.027 350.74L712.5 345.53C712.861 345.53 720.444 342.274 729.111 340.972C745 338.693 751.861 344.553 754.75 349.763C757.639 354.647 756.917 360.833 752.222 367.02C747.889 372.881 740.666 378.415 732 381.997C723.333 385.579 714.305 387.533 705.277 387.533Z" fill="#F2A007"/>
<path d="M691.194 387.533C682.166 387.533 672.777 385.58 664.472 382.324C655.805 378.742 648.583 373.207 644.25 367.347C639.916 361.16 638.833 355.3 641.722 350.089C644.611 344.88 651.833 339.02 667.361 341.298C676.027 342.6 683.611 345.531 683.972 345.857L681.444 351.067C681.083 351.067 654.722 339.996 647.138 353.02C644.611 357.253 647.5 361.811 649.305 364.416C656.527 374.184 674.583 383.627 695.528 381.998L695.889 387.533C694.444 387.533 692.639 387.533 691.194 387.533Z" fill="#F2A007"/>
<path d="M698.055 404.789C677.472 404.789 660.86 389.812 660.86 371.252V329.901H735.25V371.252C735.25 389.812 718.639 404.789 698.055 404.789Z" fill="#F20F4B"/>
<path d="M722.611 434.093H673.5L685.777 396.324H710.333L722.611 434.093Z" fill="#F20F4B"/>
<path d="M880.778 612.847H760.889V636.616H880.778V612.847Z" fill="#F2A007"/>
<path d="M880.778 659.082H760.889V682.85H880.778V659.082Z" fill="#F2A007"/>
<path d="M726.944 603.729H639.916V698.479H726.944V603.729Z" fill="#F2A007"/>
<path d="M712.139 603.729H655.083V683.501H712.139V603.729Z" fill="white"/>
<path d="M700.222 597.218H666.999V609.916H700.222V597.218Z" fill="#F20F4B"/>
<path d="M604.888 124.449L527.61 146.264L580.693 194.127L604.888 124.449Z" fill="#F20F4B"/>
<path d="M519.279 187.339L535.11 201.613L571.369 168.92L555.538 154.646L519.279 187.339Z" fill="#F20F4B"/>
<path d="M785.445 780.204C768.472 761.645 763.778 735.597 773.167 713.782C782.917 691.316 807.111 675.361 833.111 674.059C857.306 672.756 881.501 684.804 893.417 703.363C898.473 681.874 903.89 660.058 916.168 640.848C930.612 617.08 953.72 600.8 977.92 597.544C1006.81 593.311 1038.95 607.637 1055.92 632.382C1070.72 653.872 1075.42 682.85 1068.56 711.829C1062.06 738.202 1047.97 757.087 1031.36 779.227L1030.64 780.204L1027.03 777.925L1027.75 776.948C1044 755.134 1058.08 736.248 1064.22 710.852C1071.09 682.85 1066.75 654.849 1052.31 634.336C1036.06 610.893 1005.72 597.544 978.64 601.451C955.89 604.707 933.862 620.335 920.14 642.802C907.501 663.64 902.084 687.083 896.667 709.874L892.334 710.2C882.584 690.339 858.028 676.989 833.473 678.292C809.639 679.594 786.528 694.898 777.5 715.41C768.833 735.597 773.167 760.668 789.056 777.925L785.445 780.204Z" fill="black"/>
<path d="M424.332 323.39C416.387 332.832 406.998 341.623 395.804 347.81C384.609 353.996 370.526 356.926 357.887 353.996C345.248 351.066 334.053 340.972 332.97 328.925C331.887 316.877 342.359 304.505 355.72 302.552C349.581 303.854 343.442 304.83 337.303 303.528C331.164 302.226 325.387 298.319 323.942 293.109C321.775 286.272 327.192 279.108 333.692 274.875C340.192 270.968 348.137 269.341 355.72 266.736C373.776 260.549 388.942 248.501 397.609 233.199C413.859 231.896 430.109 229.292 446.359 227.663C452.859 236.129 461.887 241.665 472.721 244.594C480.665 246.548 488.61 246.548 496.554 247.199C504.499 247.85 512.804 249.479 519.665 253.386C526.527 257.293 531.221 264.456 530.138 271.945C529.054 279.108 520.027 284.969 512.443 282.364C527.249 288.225 536.638 303.854 534.471 318.18C531.943 332.832 517.86 344.879 501.971 346.832C490.776 348.135 479.221 344.554 469.471 339.019C459.721 333.483 451.776 325.994 443.832 318.832" fill="black"/>
<path d="M464.776 322.087L457.915 345.204L393.276 340.646L401.581 322.739L407.72 281.061L452.498 255.339L464.776 322.087Z" fill="#FFB78F"/>
<path d="M433.721 281.387C428.304 293.76 417.109 303.528 403.748 308.412L407.72 282.364L421.082 274.55C425.054 276.829 429.026 279.108 433.721 281.387Z" fill="black"/>
<path d="M462.971 233.85V234.501C462.971 235.152 462.971 235.803 462.971 236.129C462.971 236.781 462.971 237.106 462.971 237.432L461.887 239.71L438.415 284.643C438.415 284.643 410.248 307.11 384.97 283.666C371.248 270.968 369.442 240.362 378.47 216.594C378.831 215.942 378.831 215.291 379.192 214.64C379.554 213.988 379.915 213.012 380.276 212.361V212.034C380.276 211.709 380.637 211.709 380.637 211.383C380.998 210.407 381.359 209.756 381.72 208.779C382.081 208.128 382.442 207.476 382.804 207.151C383.165 206.5 383.526 205.523 384.248 204.872C388.942 197.057 395.081 190.871 402.665 187.289C404.47 186.638 406.276 185.987 408.081 185.336C408.804 185.01 409.887 185.01 410.609 184.685C411.331 184.685 412.054 184.359 412.776 184.359C414.581 184.034 416.748 184.034 418.554 184.359C418.915 184.359 418.915 184.359 419.276 184.359C436.609 185.661 447.082 192.825 453.582 201.29C459.721 209.43 461.887 218.547 462.971 225.71C463.332 228.641 463.332 230.919 463.693 232.874L462.971 233.85Z" fill="#FFB78F"/>
<path d="M399.776 259.898C397.97 259.898 396.165 258.921 395.082 257.619C393.998 256.316 393.276 254.688 393.637 253.061L396.887 234.501L401.221 235.152L397.97 253.712C397.97 254.363 397.97 254.688 398.332 255.339C398.693 255.665 399.415 255.99 399.776 255.99V259.898Z" fill="black"/>
<path d="M414.221 237.432C414.221 238.734 414.943 240.036 416.026 240.036C417.109 240.036 418.193 239.059 418.193 237.757C418.193 236.454 417.471 235.152 416.387 235.152C415.304 235.152 414.221 236.129 414.221 237.432Z" fill="black"/>
<path d="M383.526 235.478C383.526 236.781 384.248 238.083 385.331 238.083C386.415 238.083 387.498 237.106 387.498 235.803C387.498 234.501 386.776 233.199 385.693 233.199C384.609 232.874 383.887 233.85 383.526 235.478Z" fill="black"/>
<path d="M422.165 226.036C422.887 226.361 423.971 226.687 424.693 227.012C425.415 227.338 425.776 227.989 425.776 228.641C425.415 229.617 423.971 229.617 422.526 229.617C419.276 229.617 416.026 228.966 413.137 227.989C412.054 227.663 410.97 227.012 410.609 226.361C409.887 224.734 413.137 224.408 414.582 224.408C417.109 224.734 419.637 225.385 422.165 226.036Z" fill="black"/>
<path d="M390.026 223.105C390.748 223.105 391.47 223.431 392.193 223.756C392.915 224.082 393.276 224.408 393.276 225.059C393.276 226.036 391.831 226.361 390.387 226.687C387.859 227.012 384.609 227.012 382.081 226.687C380.998 226.361 380.276 226.036 379.915 225.71C379.193 224.408 382.081 223.756 383.165 223.431C385.331 222.78 387.859 222.78 390.026 223.105Z" fill="black"/>
<path d="M416.387 260.223C416.748 263.154 414.582 265.759 411.332 266.41C408.082 266.735 405.193 264.781 404.47 261.852" fill="white"/>
<path d="M206.219 322.739C204.414 315.901 206.219 305.808 213.081 306.784C220.303 307.761 217.414 315.901 219.581 323.39C221.747 330.879 228.247 344.228 228.247 344.228L187.441 369.624C187.441 369.624 164.33 325.343 167.941 320.134C170.108 316.877 172.997 318.506 172.997 318.506C172.997 318.506 170.108 314.273 171.914 311.668C173.719 309.063 176.969 310.041 176.969 310.041C176.969 310.041 175.164 306.133 179.136 304.83C183.108 303.203 195.386 312.645 206.219 322.739Z" fill="#FFB78F"/>
<path d="M191.053 325.343C183.469 316.552 175.164 311.668 175.164 311.668L177.691 308.412C178.053 308.737 186.719 313.947 194.664 323.064L191.053 325.343Z" fill="black"/>
<path d="M183.469 332.181C178.414 325.994 171.552 320.134 171.191 320.134L174.441 317.203C174.802 317.528 181.664 323.39 187.08 329.901L183.469 332.181Z" fill="black"/>
<path d="M203.692 344.879C201.525 339.344 203.33 332.506 207.664 327.948L210.914 330.879C207.303 334.134 206.219 339.344 208.025 343.577L203.692 344.879Z" fill="black"/>
<path d="M558.666 460.466C568.777 401.533 524.36 335.111 511.721 328.925C502.693 324.366 464.415 322.087 464.415 322.087C464.415 322.087 413.859 349.763 401.22 322.739C401.22 322.739 358.609 325.668 344.526 334.134C330.442 342.274 286.025 389.161 286.025 389.161L232.942 335.111L179.136 366.043C179.136 366.043 216.692 479.677 282.775 479.677C350.303 479.677 394.359 416.186 396.887 418.464" fill="#F2A007"/>
<path d="M488.249 367.019H320.331V509.306H488.249V367.019Z" fill="#F2A007"/>
<path d="M332.248 476.746L342.72 412.604L344.887 485.212L332.248 476.746Z" fill="#F4BA38"/>
<path d="M285.303 641.5L296.859 713.782H144.469C144.108 704.014 150.608 694.898 158.914 690.014C167.219 685.129 176.969 683.176 186.358 681.222C195.747 679.269 205.497 676.664 213.081 670.478C221.386 663.965 226.442 653.547 226.442 642.802" fill="black"/>
<path d="M375.942 498.236C375.942 498.236 251.358 408.045 194.303 435.721C122.441 470.56 170.469 669.176 170.469 669.176L298.303 662.012L268.331 529.168" fill="#F20F4B"/>
<path d="M181.664 706.619L168.302 778.901H28.1906C27.8295 769.134 34.3295 760.017 42.6351 755.134C50.941 750.249 60.691 748.296 70.08 746.342C79.469 744.389 89.219 741.783 96.802 735.597C105.108 729.085 110.163 718.666 110.163 707.921" fill="black"/>
<path d="M484.998 583.217H253.525L197.914 724.527H90.6631C90.6631 724.527 133.274 549.029 173.719 515.167C199.358 493.677 271.942 484.235 320.331 480.002C347.414 477.724 367.276 477.072 367.276 477.072L387.498 476.746L485.721 474.467C485.721 474.467 486.804 476.746 488.248 480.328C491.86 489.119 498.36 506.376 501.971 524.284C507.026 549.029 506.665 575.729 484.998 583.217Z" fill="#F20F4B"/>
<path d="M501.971 523.958C462.248 536.656 422.165 538.284 422.165 538.284L406.276 509.631L387.859 476.421L486.082 474.142C486.082 474.142 487.165 476.421 488.61 480.002C491.86 488.468 498.36 505.724 501.971 523.958Z" fill="#F20F4B"/>
<path d="M380.998 496.282C371.97 499.864 365.47 498.887 364.026 494.329C362.942 490.747 376.665 485.864 389.304 483.258C397.609 481.631 406.998 478.375 406.998 478.375" fill="#FFB78F"/>
<path d="M407.359 478.701L430.832 518.098C430.832 518.098 379.554 534.378 374.137 530.471C370.887 528.192 372.692 525.912 372.692 525.912C372.692 525.912 367.637 528.192 365.109 526.238C362.581 524.285 363.665 521.68 363.665 521.68C363.665 521.68 358.97 522.983 357.887 519.075C356.803 514.843 368.359 505.074 380.637 496.283" fill="#FFB78F"/>
<path d="M365.831 523.307L362.22 520.702C362.581 520.377 369.081 513.213 380.276 507.027L382.803 510.609C371.97 516.144 365.831 523.307 365.831 523.307Z" fill="black"/>
<path d="M374.137 527.54L371.248 524.609C371.609 524.284 378.831 518.749 386.415 514.516L388.581 518.097C381.72 522.004 374.498 527.54 374.137 527.54Z" fill="black"/>
<path d="M488.249 435.395V480.002C486.804 476.42 485.721 474.142 485.721 474.142L387.498 476.42L385.332 472.513L465.86 433.768L469.471 417.488L488.249 435.395Z" fill="#F4BA38"/>
<path d="M558.666 460.466C548.554 519.4 426.498 529.168 426.498 529.168L395.804 476.421L474.526 437.024L469.471 417.488" fill="#F2A007"/>
<path d="M462.248 226.361C461.887 226.361 461.887 226.361 461.526 226.361C446.721 227.338 431.554 221.152 421.804 211.058C416.748 205.523 412.776 199.336 410.609 192.499C407.359 196.732 403.387 200.314 399.054 203.243C393.637 207.151 387.137 210.081 380.276 211.709C380.637 210.732 380.998 210.081 381.359 209.105C381.72 208.454 382.081 207.802 382.443 207.476C382.804 206.825 383.165 205.849 383.887 205.197C388.581 197.383 394.72 191.196 402.304 187.615C404.109 186.963 405.915 186.312 407.72 185.661C408.443 185.336 409.526 185.336 410.248 185.01C410.97 185.01 411.693 184.685 412.415 184.685C414.22 184.359 416.387 184.359 418.193 184.685C418.554 184.685 418.554 184.685 418.915 184.685C436.248 185.987 446.721 193.15 453.221 201.616C458.998 209.756 461.165 219.198 462.248 226.361Z" fill="black"/>
<path d="M452.137 229.943C453.943 227.012 457.915 225.71 461.526 225.71C465.137 225.71 468.748 227.663 471.276 229.943C477.054 235.478 477.776 244.594 473.082 250.456C468.387 256.641 458.637 259.247 451.054 256.316" fill="#FFB78F"/>
<path d="M465.137 247.525L460.804 247.199C461.165 243.618 459.359 239.71 456.47 237.106L457.915 233.525H465.86V237.757H462.248C464.054 240.688 465.137 244.269 465.137 247.525Z" fill="black"/>
<path d="M214.546 592.391L170.412 723.902L174.906 725.126L219.039 593.615L214.546 592.391Z" fill="white"/>
<path d="M419.095 464.668L415.486 466.83L458.697 525.377L462.307 523.215L419.095 464.668Z" fill="black"/>
<path d="M248.265 350.262L189.241 391.61L192.124 394.95L251.148 353.603L248.265 350.262Z" fill="black"/>
<path d="M425.054 351.066C420.72 351.066 416.748 350.414 412.776 349.437C397.248 345.205 386.054 332.181 386.415 318.832H390.748C390.387 330.227 400.498 341.623 413.859 345.205C426.137 348.461 440.582 345.856 453.221 338.367C463.332 332.506 472.36 323.39 481.387 310.366L485.36 312.645C475.61 326.319 466.221 335.437 455.748 341.948C446.359 348.135 435.526 351.066 425.054 351.066Z" fill="white"/>
<path d="M555.777 713.782H247.747C227.886 713.782 211.636 728.434 211.636 746.342C211.636 764.25 227.886 778.901 247.747 778.901H555.777V713.782Z" fill="#F20F4B"/>
<path d="M555.777 764.901V727.783H244.497C234.025 727.783 225.719 736.248 225.719 746.342C225.719 756.436 234.025 764.901 244.497 764.901H555.777Z" fill="white"/>
<path d="M467.304 740.807V774.669L482.11 755.134L496.554 774.669V740.807H467.304Z" fill="#F2A007"/>
<path d="M248.831 256.641C241.608 256.641 235.83 254.037 232.219 248.827C227.525 242.641 227.164 234.501 231.136 227.989C234.747 222.128 241.247 218.547 249.553 218.547C260.025 218.547 269.775 227.012 270.497 236.454C271.22 245.897 262.192 255.339 251.719 256.316C250.636 256.641 249.914 256.641 248.831 256.641ZM249.553 222.779C243.053 222.779 237.997 225.385 235.108 229.943C232.219 234.827 232.58 241.665 236.192 246.548C239.442 250.781 244.858 253.061 251.358 252.409C259.664 251.758 266.525 244.269 266.164 236.781C265.442 229.617 257.858 222.779 249.553 222.779Z" fill="black"/>
<path d="M1122.36 778.902H1028.47L995.25 601.125L986.22 554.239L946.862 342.926L1035.33 329.25L1072.53 528.842L1082.28 579.636L1122.36 778.902Z" fill="#F2A007"/>
<path d="M1082.28 579.636C1053.39 586.798 1024.14 593.962 995.25 601.125L986.58 554.238C1015.47 545.773 1044 537.308 1072.89 528.842L1082.28 579.636Z" fill="#F20F4B"/>
<path d="M1076.6 552.247L989.86 574.802L991.16 578.869L1077.91 556.314L1076.6 552.247Z" fill="white"/>
<path d="M1203.61 778.901H1142.95L1128.5 720.945L1121.28 691.316L1044 376.788L1103.22 365.066L1179.06 674.385L1187 706.619L1203.61 778.901Z" fill="#F2A007"/>
<path d="M1187 706.619C1167.5 711.503 1148 716.061 1128.5 720.945L1121.28 691.641C1140.42 686.107 1159.92 680.245 1179.06 674.71L1187 706.619Z" fill="white"/>
<path d="M1182.04 688.135L1124.17 704.533L1125.47 708.26L1183.34 691.861L1182.04 688.135Z" fill="black"/>
<path d="M1219.86 346.181C1212.64 346.181 1206.86 343.577 1203.25 338.367C1198.56 332.181 1198.2 324.041 1202.17 317.528C1205.78 311.668 1212.28 308.086 1220.59 308.086C1231.06 308.086 1240.81 316.552 1241.53 325.994C1242.25 335.437 1233.22 344.879 1222.75 345.856C1222.03 346.181 1220.95 346.181 1219.86 346.181ZM1220.59 312.319C1214.09 312.319 1209.03 314.924 1206.14 319.483C1203.25 324.366 1203.61 331.204 1207.22 336.088C1210.47 340.321 1215.89 342.599 1222.39 341.948C1230.7 341.297 1237.56 333.808 1237.2 326.32C1236.47 318.831 1228.89 312.319 1220.59 312.319Z" fill="black"/>
<path d="M1066.39 417.162C1073.97 422.371 1080.47 422.697 1082.64 418.79C1084.81 415.534 1072.53 408.045 1061.34 403.161C1054.11 399.905 1046.53 395.346 1045.81 395.021" fill="#B0614E"/>
<path d="M1046.17 395.021L1014.03 427.581C1014.03 427.581 1058.45 453.629 1064.59 451.024C1068.2 449.396 1067.11 446.791 1067.11 446.791C1067.11 446.791 1071.09 450.048 1074.34 448.744C1077.22 447.442 1076.86 444.512 1076.86 444.512C1076.86 444.512 1080.84 446.791 1082.64 443.21C1084.81 439.302 1076.14 427.581 1066.75 416.837" fill="#B0614E"/>
<path d="M1074.7 445.489C1074.7 445.489 1070.36 437.349 1062.06 429.86L1064.59 427.581C1073.25 435.721 1077.95 443.861 1077.95 444.186L1074.7 445.489Z" fill="#262626"/>
<path d="M1065.31 447.768C1065.31 447.768 1059.89 440.931 1053.75 435.721L1056.28 433.442C1062.42 438.977 1067.83 445.815 1068.2 446.14L1065.31 447.768Z" fill="#262626"/>
<path d="M1006.45 305.807L1002.11 329.901L1058.45 391.766L1017.28 439.302C1017.28 439.302 902.445 392.742 896.667 336.413C890.89 279.759 964.56 218.221 977.2 215.291C989.83 212.361 1036.06 213.663 1036.06 213.663" fill="#F20F4B"/>
<path d="M917.612 374.834L914.001 372.555C925.918 356.601 929.529 342.274 925.195 330.227C919.418 313.947 900.279 307.11 899.917 307.11L901.362 303.203C902.084 303.528 922.668 310.691 929.168 328.925C934.223 342.274 930.251 357.577 917.612 374.834Z" fill="black"/>
<path d="M1220.39 140.965C1223.62 151.074 1216.23 161.435 1203.92 164.089C1191.61 166.742 1178.99 160.677 1175.76 150.569C1172.53 140.46 1179.91 130.099 1192.23 127.446C1204.69 124.792 1217.16 130.858 1220.39 140.965Z" fill="#1B2747"/>
<path d="M118.62 481.416C121.852 491.525 114.465 501.885 102.154 504.539C89.843 507.193 77.224 501.128 73.992 491.019C70.761 480.91 78.147 470.549 90.459 467.895C102.924 465.242 115.389 471.307 118.62 481.416Z" fill="#1B2747"/>
<path d="M55.013 854.059C58.245 864.167 50.858 874.528 38.5467 877.181C26.2356 879.835 13.6167 873.77 10.385 863.661C7.15341 853.553 14.5401 843.191 26.8512 840.538C39.3162 837.885 51.781 843.95 55.013 854.059Z" fill="#1B2747"/>
<path d="M845.437 871.197C848.669 881.305 841.282 891.666 828.971 894.32C816.66 896.973 804.041 890.909 800.81 880.8C797.578 870.691 804.965 860.33 817.276 857.676C829.741 855.023 842.206 861.088 845.437 871.197Z" fill="#1B2747"/>
</g>
<defs>
<clipPath id="clip0">
<rect width="1440" height="1001" fill="white" transform="translate(-50 -55)"/>
</clipPath>
</defs>
</svg>
