<svg width="1440" height="1024" viewBox="0 0 1440 1024" fill="none" xmlns="http://www.w3.org/2000/svg">
<g clip-path="url(#clip0)">
<rect width="1440" height="1024" fill="white"/>
<path d="M848.593 1138H657.407C369.429 1138 136 903.058 136 613.213V420.787C136 130.942 369.429 -104 657.407 -104C1050.96 -104 1370 217.112 1370 613.213C1370 903.058 1136.57 1138 848.593 1138Z" fill="white"/>
<path d="M516.245 797.371C539.528 763.023 569.962 706.849 579.142 633.166C583.666 596.843 584.331 546.092 564.474 493.566C559.984 481.715 541.49 432.772 521.899 434.479C513.717 435.182 506.832 444.589 504.071 452.121C495.091 476.593 523.03 497.617 512.852 517.502C509.659 523.729 503.073 529.152 498.683 527.947C496.654 527.378 490.467 524.164 490.767 486.636C491.166 436.019 502.907 426.712 500.313 392.733C499.248 378.874 496.155 338.366 472.307 328.792C464.79 325.779 452.815 324.875 445.531 331.336C433.224 342.25 443.269 365.951 449.855 410.108C456.507 454.8 456.574 500.563 451.851 501.366C448.126 502.002 440.01 474.685 435.553 454.23C427.57 417.54 432.293 407.697 427.171 382.723C418.523 340.676 390.816 299.499 376.414 302.713C362.278 305.86 361.546 351.623 361.513 354.837C361.313 377.769 366.801 388.348 381.536 442.179C394.641 490.017 394.807 498.052 392.18 499.291C388.654 500.964 379.94 490.218 374.884 482.452C361.147 461.328 361.313 441.744 358.952 424.001C354.029 386.975 335.536 337.831 314.148 335.989C302.64 335.019 291.83 347.84 287.24 357.013C282.217 367.056 280.521 381.117 291.165 409.974C311.787 465.914 341.39 475.991 350.37 523.662C353.064 538.091 354.062 556.804 349.505 558.21C344.317 559.851 332.974 538.559 322.065 517.87C299.314 474.685 296.553 457.243 287.839 456.842C276.63 456.34 263.125 484.36 259.367 510.572C256.506 530.558 255.841 573.175 309.558 642.874C372.057 723.955 453.481 770.723 516.245 797.371Z" fill="#F20F4B"/>
<path opacity="0.26" d="M347.244 452.691C372.09 501.098 364.506 513.05 385.661 563.399C403.688 606.283 418.456 619.641 447.161 664.534C466.985 695.533 491.864 739.121 515.646 796.132C408.877 741.531 382.035 698.58 380.538 667.48C379.94 654.926 382.268 620.076 360.182 600.726C347.177 589.344 339.194 595.102 321.3 582.18C291.098 560.386 285.411 523.528 284.745 518.674C282.284 500.998 286.674 494.202 286.974 480.979C287.14 474.283 286.209 466.65 283.315 458.08C284.845 457.21 286.375 456.775 287.839 456.842C296.553 457.243 299.314 474.685 322.065 517.87C332.974 538.559 344.317 559.851 349.505 558.21C354.062 556.771 353.064 538.057 350.37 523.662C341.423 475.991 311.82 465.914 291.165 409.974C280.521 381.117 282.251 367.09 287.24 357.013C291.431 348.61 300.811 337.228 311.188 336.056C308.993 348.577 308.328 362.503 310.789 377.267C315.612 406.124 328.617 416.468 347.244 452.691Z" fill="#F20F4B"/>
<path opacity="0.26" d="M479.391 407.798C481.121 433.274 475.566 439.266 472.539 471.304C468.681 512.313 466.752 532.801 476.797 553.758C490.966 583.285 514.715 585.193 519.804 615.322C521.999 628.412 518.008 630.822 520.502 647.862C524.261 673.338 536.235 688.302 540.892 697.509C549.041 713.678 549.606 741.866 517.276 794.927C532.277 703.97 513.518 657.905 490.168 632.563C469.08 609.698 450.587 610.602 431.861 580.339C406.915 540.032 427.005 517.971 408.578 441.241C397.402 394.708 387.091 388.816 382.301 348.041C380.372 331.671 380.372 316.573 381.303 303.182C396.371 308.17 419.388 345.095 427.171 382.79C432.326 407.764 427.57 417.607 435.553 454.297C440.01 474.718 448.092 502.069 451.851 501.433C456.574 500.63 456.474 454.867 449.855 410.175C443.303 365.985 433.224 342.283 445.531 331.403C451.385 326.214 460.266 325.779 467.417 327.352C467.584 338.634 468.515 348.376 469.679 356.444C473.138 380.547 477.895 385.87 479.391 407.798Z" fill="white"/>
<path d="M501.277 897.635C486.842 905 445.232 923.747 395.207 911.461C360.515 902.958 316.244 878.185 303.438 838.983C299.713 827.601 295.489 805.305 302.939 800.987C308.128 797.974 317.275 804.769 319.038 806.075C334.205 817.357 330.081 832.79 345.348 845.645C351.268 850.633 359.816 854.952 361.613 853.043C365.704 848.691 328.75 819.399 307.796 770.489C290.666 730.484 283.681 676.117 304.203 661.755C304.968 661.22 313.117 655.662 319.104 658.675C331.711 665.003 316.843 700.12 336.533 729.781C341.157 736.744 348.009 743.942 350.403 742.669C355.492 739.958 334.671 702.028 325.79 645.419C318.007 595.939 329.016 575.15 336.933 565.241C339.061 562.563 349.14 550.444 355.526 552.955C361.546 555.332 361.413 569.626 361.28 581.009C361.014 607.958 353.829 615.959 357.156 632.597C360.016 647.059 367.766 659.245 370.227 658.542C373.287 657.638 366.635 637.451 366.169 608.46C365.937 593.897 365.105 540.635 393.078 524.834C399.098 521.419 408.611 518.54 412.669 522.39C416.86 526.374 413.068 535.48 404.886 560.186C399.83 575.485 393.677 594.935 390.417 617.633C387.889 635.342 388.954 642.037 392.346 643.778C395.173 645.218 399.497 643.109 402.125 640.799C415.197 629.316 396.803 603.907 408.511 574.815C412.037 566.011 419.92 553.022 427.138 553.892C439.71 555.432 444.101 598.149 444.567 603.137C446.529 623.458 449.323 652.415 435.553 682.645C428.535 698.045 417.924 712.205 423.712 721.11C425.242 723.487 428.435 726.232 431.661 725.864C439.178 724.994 439.345 707.92 451.951 685.758C457.206 676.552 462.86 666.576 468.981 667.246C475.899 667.982 480.988 682.076 482.451 692.922C486.642 723.554 465.056 749.633 471.143 754.219C471.675 754.621 473.903 754.453 478.327 754.119C488.272 753.315 490.634 751.809 493.927 752.478C501.51 754.085 505.236 765.601 505.601 766.84C511.788 786.759 486.709 800.116 474.103 842.23C467.584 863.957 470.577 872.695 472.473 876.745C479.292 891.073 495.49 896.128 501.277 897.635Z" fill="#F2A007"/>
<path d="M502.475 897.266C501.81 897.333 501.178 897.4 500.512 897.434C500.712 897.501 500.912 897.534 501.078 897.601C501.543 897.501 502.009 897.367 502.475 897.266Z" fill="url(#paint0_linear)"/>
<path d="M501.277 897.635C501.211 897.668 501.144 897.702 501.078 897.735C502.841 897.467 504.604 897.166 506.433 896.798C505.069 896.965 503.772 897.099 502.475 897.233C502.009 897.333 501.543 897.467 501.078 897.568C501.144 897.601 501.211 897.635 501.277 897.635Z" fill="url(#paint1_linear)"/>
<path d="M477.396 884.043C482.285 889.6 488.605 893.048 493.827 895.157C487.574 891.943 482.052 888.227 477.396 884.043Z" fill="url(#paint2_linear)"/>
<path d="M499.648 897.969C500.08 897.902 500.546 897.835 500.978 897.768C500.878 897.735 500.745 897.735 500.645 897.701C500.28 897.768 499.947 897.869 499.581 897.936C499.614 897.936 499.614 897.969 499.648 897.969Z" fill="url(#paint3_linear)"/>
<path opacity="0.8" d="M308.527 707.987C309.791 731.186 324.46 737.346 342.753 773.635C353.796 795.529 350.304 796.969 358.785 814.143C363.475 823.617 394.043 882.838 456.208 896.496C464.823 898.405 479.857 900.681 499.115 898.036C499.248 898.003 499.415 897.969 499.548 897.936C499.282 897.802 498.982 897.702 498.716 897.568C473.571 899.275 460.532 892.546 453.215 885.415C443.502 875.941 445.964 866.601 431.428 850.767C416.427 834.396 408.844 836.137 401.194 824.487C386.725 802.56 406.715 785.922 395.672 757.064C385.86 731.454 366.169 734.166 358.985 707.552C354.229 690.01 362.378 687.264 358.087 663.529C353.464 638.087 343.419 637.384 341.789 616.628C340.292 597.646 348.308 593.093 349.14 569.559C349.339 564.136 349.073 559.014 348.574 554.294C343.452 557.306 338.396 563.433 336.933 565.207C329.016 575.116 318.007 595.906 325.79 645.385C334.671 701.994 355.492 739.924 350.403 742.636C348.009 743.908 341.157 736.744 336.533 729.747C316.876 700.086 331.744 664.969 319.104 658.642C316.177 657.169 312.718 657.738 309.891 658.775C310.623 662.291 311.221 666.04 311.587 669.99C313.35 689.507 307.762 693.223 308.527 707.987Z" fill="#F2A007"/>
<path d="M499.681 897.501C498.982 897.367 498.284 897.199 497.585 897.032C497.984 897.199 498.35 897.4 498.75 897.568C499.049 897.534 499.382 897.534 499.681 897.501Z" fill="url(#paint4_linear)"/>
<path d="M499.581 897.936C499.947 897.869 500.28 897.768 500.645 897.701C500.346 897.635 500.013 897.568 499.714 897.501C499.415 897.534 499.082 897.534 498.783 897.568C499.016 897.702 499.315 897.802 499.581 897.936Z" fill="url(#paint5_linear)"/>
<path d="M499.149 898.034C499.315 898.002 499.481 898.002 499.647 897.969C499.614 897.969 499.614 897.936 499.58 897.936C499.414 897.969 499.281 898.002 499.149 898.034Z" fill="url(#paint6_linear)"/>
<path opacity="0.8" d="M499.149 898.036C474.469 903.593 453.88 904.33 439.677 903.928C413.534 903.225 385.295 902.054 368.232 883.105C363.176 877.481 362.311 873.866 354.428 866.434C338.063 850.967 327.154 852.675 318.406 840.154C312.419 831.584 315.313 827.634 310.556 812.335C309.425 808.719 307.929 804.669 305.933 800.283C304.869 800.317 303.871 800.518 303.006 801.053C295.555 805.372 299.78 827.667 303.505 839.05C316.31 878.251 360.581 903.024 395.273 911.527C444.101 923.512 484.88 905.97 500.246 898.237C500.08 898.17 499.88 898.07 499.714 898.003C499.481 898.003 499.315 898.003 499.149 898.036Z" fill="white"/>
<path opacity="0.8" d="M469.08 667.212C462.96 666.542 457.273 676.518 452.051 685.725C439.444 707.853 439.278 724.96 431.761 725.83C428.535 726.198 425.342 723.453 423.812 721.076C418.024 712.172 428.634 698.011 435.653 682.611C449.423 652.381 446.629 623.424 444.666 603.103C444.201 598.149 439.81 555.432 427.237 553.858C419.986 552.955 412.137 565.977 408.611 574.782C396.903 603.873 415.33 629.282 402.225 640.765C399.597 643.075 395.273 645.184 392.446 643.744C389.087 642.004 387.989 635.308 390.517 617.599C393.776 594.901 399.897 575.451 404.986 560.152C413.168 535.446 416.96 526.34 412.769 522.357C410.573 520.247 406.748 520.18 402.757 521.051C402.757 524.566 402.424 528.181 401.56 531.797C398.466 544.954 391.781 546.661 388.189 561.324C384.995 574.413 389.452 576.656 386.958 593.227C384.43 610.066 379.541 609.698 377.911 622.754C375.616 641.066 384.962 643.711 386.792 667.747C388.488 689.976 380.971 693.491 385.827 707.886C390.849 722.784 399.497 720.809 409.343 737.514C422.714 760.245 410.241 769.986 423.545 791.914C433.457 808.217 444.766 810.125 447.261 825.86C448.724 835.066 445.332 837.61 446.995 848.021C449.39 863.12 458.969 873.33 462.994 877.582C473.837 889.098 487.042 894.488 497.652 896.998C496.355 896.396 495.091 895.76 493.86 895.124C488.671 893.015 482.318 889.566 477.429 884.009C471.641 878.854 467.151 873.062 464.257 866.735C458.304 853.646 458.337 843.268 458.337 843.268C458.437 822.177 473.105 814.143 468.881 801.957C464.657 789.805 447.46 790.374 446.363 780.063C445.531 772.497 454.612 770.924 458.736 758.805C463.359 745.213 454.445 739.924 456.674 723.788C458.869 707.886 468.448 706.313 472.673 690.478C474.036 685.323 474.901 678.427 473.537 669.622C472.14 668.283 470.644 667.379 469.08 667.212Z" fill="#F2A007"/>
<path d="M499.681 897.501C499.947 897.467 500.213 897.467 500.512 897.434C498.816 896.965 496.454 896.229 493.794 895.157C495.024 895.793 496.288 896.429 497.585 897.032C498.317 897.199 499.016 897.367 499.681 897.501Z" fill="url(#paint7_linear)"/>
<path d="M501.078 897.601C500.945 897.634 500.779 897.668 500.645 897.701C500.745 897.734 500.878 897.734 500.978 897.767C501.011 897.767 501.045 897.767 501.078 897.767C501.144 897.734 501.211 897.701 501.277 897.668C501.211 897.634 501.144 897.601 501.078 897.601Z" fill="url(#paint8_linear)"/>
<path d="M501.045 897.768C501.045 897.768 501.078 897.768 501.078 897.735C501.045 897.735 501.011 897.735 500.978 897.735C501.011 897.768 501.011 897.768 501.045 897.768Z" fill="url(#paint9_linear)"/>
<path d="M499.648 897.969C499.814 898.036 500.013 898.137 500.18 898.204C500.479 898.07 500.745 897.902 501.011 897.768H500.978C500.546 897.835 500.08 897.902 499.648 897.969Z" fill="url(#paint10_linear)"/>
<path d="M500.645 897.701C500.778 897.668 500.945 897.634 501.078 897.601C500.912 897.568 500.712 897.501 500.512 897.434C500.246 897.467 499.947 897.467 499.681 897.501C500.013 897.568 500.313 897.635 500.645 897.701Z" fill="url(#paint11_linear)"/>
<path d="M654.18 663.529C741.625 591.152 767.036 525.436 774.121 478.937C779.543 443.25 789.987 315.133 764.209 216.711C760.75 203.554 750.273 166.495 767.469 150.225C775.086 142.994 788.989 139.111 798.801 144.266C814.567 152.501 807.549 177.542 817.827 246.572C821.12 268.7 826.275 295.951 844.003 324.005C845.267 326.013 856.975 344.526 860.335 342.919C864.792 340.777 850.024 304.99 832.794 246.17C812.771 177.81 808.979 145.003 820.388 113.266C822.982 106.035 829.468 87.9911 838.848 87.6898C852.518 87.2546 866.987 124.649 872.276 154.175C877.365 182.597 872.309 194.649 879.693 237.801C884.948 268.533 889.272 272.718 892.432 273.086C899.55 273.99 909.229 256.716 913.154 241.517C922.135 206.768 900.315 185.677 877.298 118.087C862.863 75.6716 854.048 48.7225 866.721 34.9969C879.327 21.3382 908.531 25.7572 927.39 35.1643C960.053 51.4676 971.195 87.5559 982.371 123.778C990.653 150.593 1009.85 212.727 1002.13 257.251C1000.4 267.294 1001.63 280.484 1004.19 280.92C1008.41 281.656 1021.09 247.777 1023.75 212.76C1027.47 164.118 1011.04 125.352 1006.45 115.108C985.664 68.9427 957.425 52.9741 964.343 40.1189C970.53 28.6362 999.966 28.5693 1021.85 38.8468C1060.8 57.1587 1071.51 106.404 1080.73 148.752C1087.78 181.158 1110.29 284.602 1067.49 335.722C1061.77 342.551 1045.43 359.758 1050.42 373.082C1052.99 379.878 1061.23 385.971 1068.52 385.134C1094.7 382.188 1104.27 290.762 1105.47 278.509C1110.79 224.042 1086.25 194.482 1101.81 180.656C1112.42 171.249 1134.28 173.592 1148.18 183.133C1189.79 211.622 1188.13 323.302 1137.7 396.449C1083.22 475.488 979.012 498.956 983.502 510.572C985.464 515.627 1005.42 512.146 1013.84 510.673C1023.62 508.966 1118.04 490.888 1158.09 407.965C1175.95 370.94 1173.42 340.81 1185.5 339.605C1197.54 338.4 1214.64 366.922 1217 390.691C1224.55 466.483 1086.85 537.856 1030.53 567.048C956.194 605.547 831.298 655.829 654.18 663.529Z" fill="#F2A007"/>
<path opacity="0.26" d="M942.557 119.359C962.115 156.753 942.324 174.931 951.737 239.977C959.421 293.138 974.255 292.033 976.118 326.649C978.812 376.463 949.974 413.187 899.75 477.095C866.422 519.51 826.175 569.759 754.829 613.715C721.934 633.968 690.535 647.928 663.394 657.637C661.664 658.641 659.934 659.612 658.172 660.616C712.488 649.468 754.497 634.973 784.066 623.021C819.922 608.492 837.617 597.646 853.117 584.556C878.396 563.265 879.194 551.782 918.609 502.169C961.017 448.74 965.075 455.736 978.613 429.624C1001.36 385.669 987.393 370.604 1012.57 334.65C1032.43 306.295 1047.83 306.027 1056.84 280.35C1062.86 263.21 1059.44 253.602 1053.92 211.923C1041.91 121.032 1050.96 111.458 1035.19 92.8447C1017.73 72.1894 999.102 75.1019 981.074 47.3159C978.014 42.6291 975.586 37.9423 973.59 33.3894C969.233 34.8624 965.94 37.0719 964.31 40.1518C957.392 53.007 985.631 69.009 1006.42 115.14C1011.04 125.384 1027.47 164.151 1023.72 212.793C1021.02 247.81 1008.38 281.689 1004.16 280.953C1001.6 280.517 1000.37 267.327 1002.1 257.284C1009.81 212.76 990.62 150.626 982.338 123.811C971.129 87.5554 959.986 51.5005 927.357 35.1972C909.362 26.1919 882.021 21.8064 868.55 33.2221C875.402 40.8213 883.318 49.6593 892.033 59.5016C923.265 94.7529 938.865 112.362 942.557 119.359Z" fill="#F2A007"/>
<path opacity="0.26" d="M1185.5 339.571C1173.43 340.777 1175.99 370.906 1158.09 407.932C1118.05 490.888 1023.62 508.932 1013.84 510.639C1005.42 512.112 985.465 515.594 983.503 510.539C979.012 498.889 1083.19 475.422 1137.7 396.416C1188.13 323.268 1189.79 211.589 1148.18 183.1C1139.47 177.141 1127.62 173.994 1117.38 174.797C1120.31 186.816 1124.07 200.608 1128.86 215.74C1141.89 256.95 1150.18 268.5 1150.64 292.001C1151.34 328.859 1132.02 357.113 1124.56 368.027C1102.28 400.667 1086.51 396.75 1022.65 448.238C980.842 481.916 964.81 501.969 959.754 508.463C935.606 539.497 924.796 566.848 921.636 573.677C906.436 606.484 846.532 642.874 655.545 662.458C655.112 662.826 654.68 663.195 654.214 663.563C831.365 655.863 956.262 605.614 1030.57 567.082C1086.88 537.89 1224.58 466.517 1217.03 390.725C1214.64 366.889 1197.54 338.366 1185.5 339.571Z" fill="#F2A007"/>
<path opacity="0.26" d="M801.628 261.905C807.915 301.207 794.643 304.253 802.892 338.5C812.338 377.635 831.996 383.393 828.537 408.233C825.543 429.658 809.977 432.169 794.111 462.935C779.543 491.156 778.877 515.728 777.547 525.637C773.921 552.452 748.909 593.629 660.234 658.776C661.298 658.407 662.329 658.039 663.394 657.671C707.166 632.496 736.336 605.279 756.16 582.515C777.979 557.44 779.01 548.535 819.523 500.228C861 450.749 873.772 443.551 885.347 414.928C890.536 402.107 908.131 358.586 892.997 314.296C880.192 276.768 855.412 272.483 852.352 236.127C850.423 212.995 859.869 208.241 856.31 180.388C853.283 156.753 845.267 150.794 838.981 126.055C836.619 116.815 834.424 104.529 834.125 89.3636C827.239 94.017 822.483 107.341 820.321 113.266C808.946 145.003 812.737 177.81 832.728 246.17C849.957 304.99 864.758 340.81 860.268 342.919C856.909 344.526 845.234 326.013 843.937 324.005C826.208 295.951 821.053 268.667 817.76 246.572C807.515 177.542 814.5 152.501 798.734 144.266C792.914 141.22 785.663 141.387 779.143 143.496C776.416 154.477 774.953 166.528 775.917 179.417C778.412 213.262 794.976 220.259 801.628 261.905Z" fill="white"/>
<path d="M877.032 844.707C864.692 805.037 851.82 742.401 864.326 669.187C870.479 633.132 884.549 584.356 918.742 539.932C926.458 529.889 958.29 488.511 976.583 495.876C984.2 498.956 988.059 509.936 988.558 518.004C990.088 544.049 957.259 555.967 961.25 577.962C962.514 584.858 967.237 591.955 971.794 592.089C973.889 592.156 980.741 590.884 991.318 554.896C1005.59 506.354 997.039 494.001 1009.35 462.265C1014.37 449.343 1029.04 411.48 1054.61 409.304C1062.66 408.601 1074.37 411.246 1079.49 419.582C1088.11 433.609 1071.64 453.36 1052.59 493.7C1033.29 534.542 1019.99 578.297 1024.28 580.439C1027.67 582.146 1043.31 558.378 1053.48 540.133C1071.74 507.359 1070.05 496.579 1082.19 474.183C1102.64 436.488 1141.03 405.187 1153.9 412.485C1166.54 419.649 1154 463.638 1153.07 466.717C1146.65 488.712 1138.33 497.249 1108.66 544.418C1082.29 586.365 1079.83 593.997 1081.96 595.939C1084.85 598.584 1096.29 590.85 1103.38 584.892C1122.6 568.689 1128.12 549.941 1135.51 533.638C1150.91 499.659 1182.8 458.047 1203.83 462.566C1215.13 464.977 1221.75 480.443 1223.48 490.553C1225.38 501.634 1222.95 515.56 1204.42 540.066C1168.54 587.536 1137.27 588.507 1114.92 631.492C1108.17 644.481 1101.81 662.123 1105.74 664.801C1110.23 667.881 1127.22 650.841 1143.66 634.237C1177.92 599.588 1185.6 583.72 1194.05 585.862C1204.89 588.641 1209.71 619.406 1205.76 645.619C1202.73 665.571 1191.02 706.547 1119.51 757.499C1036.22 816.72 944.785 837.61 877.032 844.707Z" fill="#F20F4B"/>
<path opacity="0.26" d="M1138.37 564.437C1100.58 603.471 1104.41 617.13 1069.62 659.11C1039.98 694.864 1021.99 703.3 981.539 737.848C953.6 761.718 917.212 796.098 877.963 843.703C995.908 822.746 1033.99 789.47 1044.4 760.178C1048.59 748.36 1056.44 714.347 1083.19 702.262C1098.92 695.165 1104.87 703.032 1125.76 695.902C1160.95 683.883 1177.05 650.272 1179.11 645.853C1186.6 629.65 1184.33 621.85 1187.86 609.129C1189.66 602.668 1192.72 595.638 1197.97 588.306C1196.74 587.034 1195.41 586.164 1193.98 585.795C1185.53 583.619 1177.85 599.521 1143.59 634.17C1127.16 650.774 1110.16 667.814 1105.67 664.734C1101.75 662.023 1108.07 644.414 1114.85 631.425C1137.2 588.44 1168.44 587.469 1204.36 539.999C1222.88 515.494 1225.31 501.567 1223.42 490.486C1221.85 481.247 1216.17 467.588 1206.55 463.437C1205.02 476.058 1201.63 489.582 1195.01 502.973C1182.07 529.119 1166.64 535.245 1138.37 564.437Z" fill="#F20F4B"/>
<path opacity="0.26" d="M1024.91 482.786C1015.9 506.655 1019.49 514.02 1013.1 545.555C1004.92 585.929 1000.86 606.082 985.198 623.189C963.113 647.292 939.83 642.17 926.259 669.521C920.372 681.405 923.498 684.887 916.181 700.454C905.205 723.754 889.439 734.533 882.321 741.965C869.848 755.021 861.166 781.87 876.766 842.062C888.707 750.636 919.973 712.037 949.642 694.662C976.451 678.961 993.846 685.255 1020.56 661.754C1056.05 630.52 1043.24 603.504 1083.02 535.479C1107.17 494.235 1118.74 491.624 1135.11 453.995C1141.66 438.897 1146.05 424.435 1149.01 411.379C1133.15 411.714 1100.45 440.337 1082.12 474.115C1069.98 496.511 1071.68 507.324 1053.42 540.065C1043.24 558.31 1027.61 582.079 1024.21 580.371C1019.92 578.229 1033.23 534.474 1052.52 493.632C1071.58 453.292 1088.04 433.541 1079.43 419.514C1075.34 412.819 1066.95 409.806 1059.64 409.236C1056.24 419.983 1052.52 429.021 1049.09 436.386C1038.78 458.582 1032.66 462.264 1024.91 482.786Z" fill="#F20F4B"/>
<path d="M1041.34 113.534L513.817 98.2016L439.877 96.0591C417.425 95.3896 399.098 112.898 399.098 135.127V192.105V943.498C399.098 965.727 417.392 982.633 439.843 980.457L922.866 933.823L1041.44 922.407C1060.1 920.6 1075 902.288 1075 882.168V202.483V150.928C1075.07 130.842 1060.04 114.103 1041.34 113.534Z" fill="url(#paint12_linear)"/>
<path d="M1084.65 881.801C1084.65 901.887 1070.01 919.596 1051.39 921.404L452.682 979.252C430.297 981.428 412.336 965.192 412.336 942.997V135.429C412.336 113.233 430.331 95.7583 452.716 96.4279L1051.52 113.869C1070.11 114.405 1084.65 131.144 1084.65 151.196V881.801Z" fill="#744F8C"/>
<path opacity="0.7" d="M439.943 122.707V912.599C439.943 934.694 457.705 952.135 479.89 950.06L1028.24 899.175C1046.96 897.434 1060.6 878.787 1060.6 858.634V138.475L439.943 122.707Z" fill="white"/>
<path d="M1084.65 151.196V202.115L412.336 191.703V135.428C412.336 113.233 429.965 95.7579 452.35 96.3939L1051.29 113.836C1069.92 114.371 1084.65 131.11 1084.65 151.196Z" fill="#744F8C"/>
<path d="M490.002 145.137C490.002 156.117 481.054 164.821 469.978 164.62C458.869 164.419 449.822 155.28 449.822 144.233C449.822 133.185 458.869 124.481 469.978 124.749C481.054 125.05 490.002 134.156 490.002 145.137Z" fill="white"/>
<path d="M549.806 146.476C549.806 157.356 540.992 165.993 530.115 165.792C519.205 165.591 510.324 156.519 510.324 145.605C510.324 134.658 519.205 126.021 530.115 126.289C540.992 126.523 549.806 135.596 549.806 146.476Z" fill="white"/>
<path d="M608.579 147.781C608.579 158.561 599.931 167.165 589.221 166.93C578.477 166.729 569.763 157.757 569.763 146.911C569.763 136.064 578.477 127.494 589.221 127.762C599.898 128.03 608.579 136.968 608.579 147.781Z" fill="white"/>
<g opacity="0.15">
<path opacity="0.15" d="M933.51 932.819L452.483 979.285C430.098 981.461 412.336 964.555 412.336 942.36V135.428C412.336 113.233 429.965 95.7579 452.35 96.3939L525.891 98.5365C523.995 107.307 522.265 116.246 520.802 125.285C520.602 126.423 520.403 127.561 520.203 128.699C518.606 138.977 517.243 149.388 516.278 159.9C515.214 171.148 514.549 182.464 514.382 193.913C513.384 250.589 523.529 308.907 552.899 363.106C622.615 491.758 744.452 494.671 838.582 609.899C883.385 664.734 928.753 753.516 933.144 907.309C933.41 915.478 933.543 922.876 933.51 932.819Z" fill="#C6D9B8"/>
</g>
<g opacity="0.3">
<path opacity="0.3" d="M1018.23 250.154L509.826 246.17C503.107 246.103 496.721 247.71 491.133 250.589C478.161 257.251 469.247 270.743 469.247 286.309V404.015C469.247 426.344 487.507 444.12 509.826 443.652L926.459 435.115L1018.19 433.24C1037.25 432.839 1052.69 415.866 1052.69 395.411V287.515C1052.72 267.06 1037.29 250.288 1018.23 250.154Z" fill="url(#paint13_linear)"/>
</g>
<g opacity="0.3">
<path opacity="0.3" d="M1018.23 706.346L509.826 738.25C503.107 738.685 496.721 740.727 491.133 744.008C478.161 751.574 469.247 765.701 469.247 781.302V898.974C469.247 921.303 487.507 937.807 509.826 935.765L926.459 897.802L1018.19 889.433C1037.25 887.692 1052.69 869.648 1052.69 849.16V741.297C1052.72 720.842 1037.29 705.141 1018.23 706.346Z" fill="url(#paint14_linear)"/>
</g>
<g opacity="0.3">
<path opacity="0.3" d="M1018.23 477.564L509.826 491.457C503.107 491.624 496.721 493.466 491.133 496.546C478.161 503.676 469.247 517.469 469.247 533.036V650.741C469.247 673.07 487.507 690.211 509.826 688.972L926.459 665.772L1018.19 660.65C1037.25 659.579 1052.69 642.071 1052.69 621.616V513.719C1052.72 493.265 1037.29 477.028 1018.23 477.564Z" fill="url(#paint15_linear)"/>
</g>
<path d="M1073.04 266.96V374.522C1073.04 394.909 1057.71 411.782 1038.78 412.116L533.741 420.854C511.588 421.222 493.461 403.446 493.461 381.217V263.913C493.461 248.38 502.308 234.956 515.181 228.361C520.735 225.515 527.055 223.942 533.741 224.009L1038.78 229.599C1057.71 229.8 1073.04 246.572 1073.04 266.96Z" fill="#D8DEE8"/>
<path d="M1065.46 266.424C1065.46 248.648 1052.42 234.085 1035.92 233.918L532.643 228.695C513.351 228.495 497.585 244.028 497.585 263.378V378.606C497.585 397.956 513.484 413.388 532.776 413.087L1035.82 404.952C1052.32 404.684 1065.46 390.055 1065.46 372.279V266.424Z" fill="white"/>
<path d="M710.193 297.959L720.171 317.41L742.256 320.155C744.618 320.456 745.583 323.268 743.853 324.942L727.921 340.442L731.713 361.8C732.112 364.11 729.617 365.952 727.488 364.914L707.565 355.339L687.408 366.152C685.213 367.324 682.652 365.617 683.084 363.24L686.976 341.413L670.512 326.348C668.716 324.708 669.713 321.795 672.175 321.393L694.892 317.845L704.937 298.026C706.002 295.884 709.128 295.85 710.193 297.959Z" fill="#F2A007"/>
<path d="M793.047 297.089L802.526 316.07L823.548 318.782C825.809 319.083 826.707 321.829 825.078 323.469L809.91 338.567L813.503 359.39C813.902 361.633 811.507 363.441 809.478 362.436L790.519 353.063L771.36 363.574C769.265 364.713 766.837 363.039 767.236 360.729L770.928 339.437L755.262 324.741C753.566 323.134 754.497 320.289 756.858 319.92L778.478 316.472L788.058 297.156C789.022 295.08 792.016 295.047 793.047 297.089Z" fill="url(#paint16_linear)"/>
<path d="M871.91 296.285L880.957 314.832L901.014 317.477C903.176 317.744 904.007 320.456 902.477 322.029L888.008 336.759L891.434 357.08C891.8 359.289 889.538 361.03 887.609 360.026L869.548 350.853L851.288 361.097C849.292 362.202 846.964 360.562 847.363 358.319L850.889 337.529L835.954 323.168C834.324 321.594 835.222 318.816 837.451 318.447L858.04 315.1L867.153 296.252C868.118 294.277 870.945 294.277 871.91 296.285Z" fill="url(#paint17_linear)"/>
<path d="M947.147 295.482L955.762 313.593L974.887 316.171C976.949 316.439 977.748 319.083 976.284 320.623L962.481 335.019L965.74 354.87C966.106 357.013 963.944 358.72 962.082 357.75L944.852 348.778L927.423 358.787C925.527 359.859 923.299 358.285 923.665 356.076L927.024 335.789L912.788 321.762C911.258 320.222 912.09 317.51 914.218 317.175L933.843 313.894L942.557 295.482C943.488 293.574 946.216 293.54 947.147 295.482Z" fill="#D8DEE8"/>
<path d="M1018.93 294.746L1027.17 312.455L1045.43 314.999C1047.4 315.267 1048.16 317.845 1046.77 319.351L1033.59 333.412L1036.72 352.828C1037.05 354.937 1034.99 356.578 1033.23 355.641L1016.76 346.87L1000.13 356.645C998.337 357.716 996.208 356.143 996.54 354L999.734 334.182L986.13 320.456C984.666 318.983 985.464 316.305 987.493 315.97L1006.22 312.79L1014.53 294.779C1015.47 292.871 1018.03 292.837 1018.93 294.746Z" fill="#D8DEE8"/>
<path d="M937.002 273.488C937.002 277.538 933.576 280.819 929.751 280.819L683.783 280.083C679.659 280.083 676.465 276.634 676.465 272.416V268.767C676.465 264.549 679.492 261.135 683.617 261.168L929.918 262.608C933.743 262.641 937.002 265.922 937.002 270.006V273.488Z" fill="url(#paint18_linear)"/>
<path d="M588.722 386.071C553.431 386.506 524.461 357.783 524.461 321.996C524.461 286.242 553.431 257.318 588.722 257.519C623.646 257.753 651.819 286.477 651.819 321.594C651.819 356.745 623.68 385.636 588.722 386.071Z" fill="url(#paint19_linear)"/>
<path d="M646.763 321.628C646.763 353.967 620.919 380.481 588.722 380.849C556.258 381.217 529.683 354.871 529.683 321.963C529.683 289.055 556.225 262.541 588.722 262.708C620.886 262.909 646.763 289.289 646.763 321.628Z" fill="white"/>
<path d="M567.534 376.999C542.621 373.216 537.1 370.471 534.539 365.349C530.813 357.917 533.541 345.798 539.861 338.333C545.415 331.771 552.367 330.466 552.134 325.946C551.968 322.23 547.211 321.762 543.719 314.798C542.688 312.756 540.725 308.806 541.59 304.019C542.854 297.022 549.274 293.373 549.806 293.072C556.525 289.389 560.35 293.641 565.405 290.327C571.725 286.175 568.865 277.471 574.785 274.961C579.076 273.153 584.597 276.065 586.028 276.835C590.817 279.38 590.318 281.957 594.343 283.531C599.066 285.372 601.328 282.459 606.816 283.631C611.34 284.602 614.632 287.782 617.293 290.963C623.28 298.127 620.32 302.378 624.744 311.183C630.964 323.603 640.377 322.13 642.04 332.073C642.905 337.261 640.676 339.638 642.406 347.606C643.57 352.996 645.033 353.933 645.299 357.113C646.031 366.219 635.288 374.287 633.292 375.727C620.486 384.799 602.725 382.355 567.534 376.999Z" fill="url(#paint20_linear)"/>
<path opacity="0.3" d="M607.614 352.627C591.05 351.556 579.807 366.755 575.35 363.039C571.126 359.524 583.067 347.372 578.976 333.345C574.984 319.552 559.252 316.707 560.516 308.906C561.913 300.068 582.967 297.792 582.468 291.297C582.169 287.481 574.752 286.644 573.255 280.551C572.856 278.911 572.989 277.271 573.421 275.731C569.33 278.944 571.193 286.51 565.438 290.293C560.383 293.607 556.558 289.356 549.839 293.038C549.307 293.34 542.887 296.989 541.623 303.985C540.758 308.772 542.754 312.723 543.752 314.765C547.244 321.762 552.001 322.197 552.167 325.913C552.367 330.432 545.448 331.738 539.894 338.299C533.541 345.765 530.846 357.883 534.572 365.315C537.133 370.437 542.654 373.182 567.567 376.965C602.791 382.288 620.519 384.765 633.292 375.693C638.248 372.178 644.068 366.219 645.332 360.93C642.838 363.206 640.376 364.311 638.115 364.746C627.404 366.788 622.482 353.598 607.614 352.627Z" fill="url(#paint21_linear)"/>
<path d="M547.344 379.61C543.952 374.555 546.014 366.554 546.446 364.88C548.143 358.319 552.134 354.234 553.598 352.761C563.576 342.819 578.776 342.819 590.218 342.819C601.627 342.819 607.98 342.819 614.898 346.736C627.338 353.799 635.886 370.337 630.897 378.539C627.804 383.661 621.784 381.719 585.761 383.426C562.246 384.531 551.602 385.971 547.344 379.61Z" fill="url(#paint22_linear)"/>
<path d="M584.231 323.302C584.231 323.302 586.66 340.777 574.386 344.325C572.956 344.727 572.523 346.535 573.621 347.539L588.722 361.733C589.62 362.604 591.083 362.503 591.915 361.566L605.552 346.233C606.45 345.229 606.051 343.656 604.82 343.187C600.463 341.58 592.613 336.893 594.243 324.105L584.231 323.302Z" fill="url(#paint23_linear)"/>
<path d="M576.714 313.627C576.714 313.828 580.007 330.867 588.489 330.834C596.505 330.8 599.532 318.247 600.529 312.388C600.629 311.384 600.729 310.413 600.829 309.409C600.297 309.576 598.933 309.944 597.336 309.509C596.971 309.409 594.642 308.773 593.777 306.831C592.813 304.688 594.576 302.948 593.578 301.073C592.979 299.968 591.815 299.466 590.917 299.198C591.516 300.069 592.68 302.044 592.015 303.851C591.582 305.057 590.351 306.228 587.591 306.931C579.741 308.973 576.648 309.743 576.714 313.627Z" fill="url(#paint24_linear)"/>
<path d="M578.81 315.669C578.81 315.669 574.453 311.953 574.053 314.229C573.255 318.983 577.014 321.594 579.043 320.188C581.038 318.749 578.81 315.669 578.81 315.669Z" fill="url(#paint25_linear)"/>
<path d="M598.035 315.602C598.035 315.602 602.392 311.886 602.758 314.162C603.556 318.883 599.831 321.527 597.802 320.121C595.773 318.715 598.035 315.602 598.035 315.602Z" fill="url(#paint26_linear)"/>
<g opacity="0.3">
<path opacity="0.3" d="M947.613 413.69L533.741 420.854C511.588 421.222 493.461 403.446 493.461 381.217V263.913C493.461 248.38 502.308 234.955 515.181 228.361C516.544 229.298 517.908 230.235 519.239 231.24C519.538 231.44 519.804 231.675 520.103 231.909C532.942 241.584 543.852 254.104 550.305 270.307C550.97 271.981 551.602 273.689 552.167 275.463C552.167 275.496 552.201 275.53 552.201 275.53C555.261 285.071 558.587 294.076 562.212 302.546C573.554 328.792 588.19 349.313 609.943 361.633C614.433 364.177 619.256 366.387 624.378 368.228C626.241 368.897 628.17 369.5 630.099 370.069C651.187 376.162 677.53 376.396 711.024 369.467C713.485 368.964 715.947 368.429 718.375 367.96C719.739 367.659 721.102 367.391 722.499 367.123C737.866 363.976 752.867 361.097 767.569 358.888C768.6 358.754 769.631 358.586 770.629 358.453C775.052 357.816 779.443 357.281 783.833 356.812C787.126 356.444 790.419 356.143 793.679 355.875C794.377 355.841 795.076 355.774 795.774 355.741C799.267 355.507 802.726 355.306 806.185 355.205C808.38 355.138 810.576 355.105 812.738 355.071C818.259 355.038 823.78 355.205 829.235 355.574C835.355 356.009 841.409 356.712 847.429 357.75C849.924 358.185 852.419 358.653 854.88 359.189C884.749 365.65 913.853 380.48 942.79 408.903C944.353 410.409 945.883 411.982 947.447 413.589C947.513 413.556 947.58 413.623 947.613 413.69Z" fill="#D8DEE8"/>
</g>
<path d="M1073.04 719.268V826.83C1073.04 847.218 1057.71 865.162 1038.78 866.835L533.741 911.226C511.588 913.168 493.461 896.664 493.461 874.435V757.131C493.461 741.598 502.308 727.571 515.181 720.038C520.735 716.791 527.055 714.783 533.741 714.381L1038.78 684.318C1057.71 683.214 1073.04 698.881 1073.04 719.268Z" fill="#D8DEE8"/>
<path d="M1065.46 718.8C1065.46 701.024 1052.42 687.399 1035.92 688.403L532.643 718.666C513.351 719.838 497.585 736.476 497.585 755.826V871.054C497.585 890.404 513.484 904.732 532.776 903.058L1035.82 859.437C1052.32 857.998 1065.46 842.464 1065.46 824.688V718.8Z" fill="white"/>
<path d="M710.193 775.912L720.171 794.659L742.256 795.864C744.618 795.998 745.583 798.743 743.853 800.551L727.921 817.156L731.713 838.246C732.112 840.522 729.617 842.531 727.488 841.661L707.565 833.492L687.408 845.711C685.213 847.05 682.652 845.51 683.084 843.134L686.976 821.039L670.512 807.146C668.716 805.639 669.713 802.627 672.175 802.091L694.892 796.935L704.937 776.414C706.002 774.104 709.128 773.87 710.193 775.912Z" fill="url(#paint27_linear)"/>
<path d="M793.047 769.183L802.526 787.495L823.548 788.7C825.809 788.834 826.707 791.512 825.078 793.253L809.91 809.423L813.503 830.011C813.902 832.22 811.507 834.195 809.478 833.325L790.519 825.291L771.36 837.175C769.265 838.481 766.837 836.974 767.236 834.631L770.928 813.071L755.262 799.48C753.566 798.007 754.497 795.094 756.858 794.525L778.478 789.537L788.058 769.551C789.022 767.442 792.016 767.208 793.047 769.183Z" fill="url(#paint28_linear)"/>
<path d="M871.91 762.789L880.957 780.699L901.014 781.938C903.176 782.072 904.007 784.716 902.477 786.39L888.008 802.158L891.434 822.244C891.8 824.42 889.538 826.328 887.609 825.491L869.548 817.624L851.288 829.174C849.292 830.413 846.964 828.973 847.363 826.697L850.889 805.673L835.954 792.349C834.324 790.91 835.222 788.064 837.451 787.528L858.04 782.708L867.153 763.19C868.118 761.081 870.945 760.847 871.91 762.789Z" fill="url(#paint29_linear)"/>
<path d="M947.147 756.696L955.762 774.205L974.887 775.443C976.949 775.577 977.748 778.155 976.284 779.795L962.481 795.161L965.74 814.812C966.106 816.921 963.944 818.796 962.082 817.959L944.852 810.226L927.423 821.474C925.527 822.679 923.299 821.24 923.665 819.03L927.024 798.509L912.788 785.486C911.258 784.08 912.09 781.302 914.218 780.8L933.843 776.146L942.557 757.098C943.488 755.022 946.216 754.821 947.147 756.696Z" fill="url(#paint30_linear)"/>
<path d="M1018.93 750.905L1027.17 768.011L1045.43 769.25C1047.4 769.384 1048.16 771.895 1046.77 773.502L1033.59 788.499L1036.72 807.682C1037.05 809.757 1034.99 811.565 1033.23 810.762L1016.76 803.162L1000.13 814.109C998.337 815.314 996.208 813.875 996.54 811.732L999.734 791.68L986.13 778.925C984.666 777.552 985.464 774.841 987.493 774.339L1006.22 769.819L1014.53 751.239C1015.47 749.264 1018.03 749.03 1018.93 750.905Z" fill="#D8DEE8"/>
<path d="M937.002 736.61C937.002 740.661 933.576 744.176 929.751 744.443L683.783 761.148C679.659 761.416 676.465 758.269 676.465 754.051V750.402C676.465 746.184 679.492 742.502 683.617 742.267L929.918 726.265C933.743 726.031 937.002 729.078 937.002 733.128V736.61Z" fill="url(#paint31_linear)"/>
<path d="M588.722 872.594C553.431 875.506 524.461 848.825 524.461 813.071C524.461 777.318 553.431 746.352 588.722 744.075C623.646 741.832 651.819 768.58 651.819 803.698C651.819 838.782 623.68 869.715 588.722 872.594Z" fill="url(#paint32_linear)"/>
<path d="M646.763 804.066C646.763 836.405 620.919 864.76 588.722 867.405C556.258 870.083 529.683 845.578 529.683 812.703C529.683 779.795 556.225 751.407 588.722 749.298C620.886 747.189 646.763 771.727 646.763 804.066Z" fill="white"/>
<path d="M535.869 870.954C531.545 864.158 537.632 851.972 541.457 846.348C552.566 830.044 572.922 827.969 589.487 826.295C605.685 824.655 621.285 823.048 632.627 833.894C640.011 840.958 646.829 854.416 642.306 862.216C637.549 870.451 624.278 865.463 592.48 867.974C557.223 870.786 541.258 879.423 535.869 870.954Z" fill="url(#paint33_linear)"/>
<path d="M604.82 827.768C604.82 830.814 597.503 834.999 588.456 835.702C579.375 836.405 571.991 833.325 571.991 830.279C571.991 827.232 579.375 828.036 588.456 827.333C597.503 826.629 604.82 824.721 604.82 827.768Z" fill="url(#paint34_linear)"/>
<path d="M582.402 808.284C579.907 808.451 585.662 825.759 576.581 828.873C575.716 829.174 575.55 830.379 576.348 830.747C578.777 831.886 583.367 833.225 590.85 832.656C595.707 832.287 599.266 830.145 601.095 828.772C601.727 828.304 601.661 827.366 600.995 827.065C598.201 825.826 594.343 821.508 595.474 807.782L582.402 808.284Z" fill="url(#paint35_linear)"/>
<path d="M574.818 787.562C574.852 787.796 575.617 803.899 579.275 811.732C580.34 813.975 585.562 813.306 588.921 812.77C591.848 812.301 596.438 813.038 597.736 810.929C602.924 802.359 602.026 782.138 602.026 782.138C602.026 782.138 599.366 775.577 588.456 776.514C577.513 777.452 574.818 787.562 574.818 787.562Z" fill="url(#paint36_linear)"/>
<path d="M577.38 796.065C577.38 796.065 575.085 793.554 572.923 793.353C570.761 793.152 569.364 798.877 572.291 802.359C575.251 805.807 578.643 802.526 578.643 802.526L577.38 796.065Z" fill="url(#paint37_linear)"/>
<path d="M599.631 794.492C599.631 794.492 601.893 791.646 604.055 791.144C606.184 790.642 607.581 796.132 604.654 800.015C601.727 803.865 598.334 801.087 598.334 801.087L599.631 794.492Z" fill="url(#paint38_linear)"/>
<path d="M575.583 795.998C575.883 796.5 576.215 796.969 576.415 796.902C577.346 796.601 573.754 787.763 577.047 784.348C578.743 782.574 580.672 783.946 587.624 783.143C594.609 782.339 596.405 780.532 598.5 781.67C600.43 782.708 602.126 785.955 600.729 795.998C601.128 795.864 601.527 795.764 601.926 795.63C601.394 792.416 601.96 790.307 602.625 788.968C603.124 787.997 603.989 786.691 603.922 784.95C603.889 783.879 603.523 783.846 603.456 782.942C603.29 780.331 606.25 779.427 606.383 776.816C606.483 774.807 604.787 774.472 605.12 772.363C605.386 770.589 606.716 770.154 606.483 768.881C606.25 767.509 604.488 766.605 603.224 766.337C601.96 766.069 601.494 766.504 600.729 766.036C599.532 765.266 600.097 763.759 599.232 763.257C597.669 762.387 594.576 766.538 592.58 765.668C591.383 765.165 591.848 763.358 590.751 762.989C588.688 762.286 584.996 768.413 583.533 767.743C582.834 767.408 583.5 765.935 582.502 764.965C581.338 763.793 578.544 763.994 577.28 765.4C576.082 766.705 577.113 768.078 575.849 769.718C574.719 771.191 573.421 770.689 572.124 771.894C569.962 773.936 570.694 778.155 570.993 779.661C571.925 784.85 574.818 785.72 574.153 789.336C573.987 790.273 573.588 791.311 573.887 792.784C574.22 794.291 574.951 795.328 575.583 795.998Z" fill="url(#paint39_linear)"/>
<g opacity="0.3">
<path opacity="0.3" d="M602.159 782.808C601.893 780.264 603.889 778.925 603.556 777.117C603.29 775.677 601.627 774.439 600.097 774.271C596.804 773.903 594.642 778.958 591.349 778.657C588.788 778.422 589.088 775.276 586.194 774.238C581.637 772.564 576.814 778.958 573.787 777.485C572.856 777.05 571.958 775.811 571.891 772.296C570.129 774.439 570.827 778.289 571.093 779.695C572.024 784.884 574.918 785.754 574.253 789.37C574.087 790.307 573.688 791.345 573.987 792.818C574.253 794.257 575.018 795.329 575.617 795.998C575.916 796.5 576.249 796.969 576.448 796.902C577.38 796.601 573.787 787.763 577.08 784.348C578.777 782.574 580.706 783.946 587.657 783.143C594.642 782.339 596.438 780.532 598.534 781.67C600.463 782.708 602.159 785.955 600.762 795.998C601.162 795.864 601.561 795.764 601.96 795.63C601.428 792.416 601.993 790.307 602.658 788.968C602.858 788.566 603.124 788.097 603.357 787.595C603.29 786.758 603.157 785.821 602.858 784.85C602.492 783.712 602.226 783.611 602.159 782.808Z" fill="url(#paint40_linear)"/>
</g>
<g opacity="0.3">
<path opacity="0.3" d="M947.613 874.87L533.741 911.226C511.588 913.168 493.461 896.664 493.461 874.435V757.131C493.461 741.598 502.308 727.571 515.181 720.038C516.544 720.875 517.908 721.712 519.239 722.616C519.538 722.817 519.804 723.018 520.103 723.219C532.942 731.99 543.852 743.74 550.305 759.474C550.97 761.115 551.602 762.789 552.167 764.496C552.167 764.529 552.201 764.563 552.201 764.563C555.261 773.87 558.587 782.674 562.212 790.842C573.554 816.285 588.19 835.769 609.943 846.548C614.433 848.791 619.256 850.666 624.378 852.106C626.241 852.641 628.17 853.11 630.099 853.545C651.187 858.165 677.53 856.524 711.024 847.218C713.485 846.548 715.947 845.845 718.375 845.176C719.739 844.808 721.102 844.406 722.499 844.038C737.866 839.819 752.867 835.836 767.569 832.622C768.6 832.421 769.631 832.187 770.629 831.952C775.052 831.015 779.443 830.145 783.833 829.375C787.126 828.772 790.419 828.236 793.679 827.768C794.377 827.667 795.076 827.567 795.774 827.466C799.267 826.964 802.726 826.529 806.185 826.194C808.38 825.96 810.576 825.759 812.738 825.592C818.259 825.157 823.78 824.956 829.235 824.922C835.355 824.922 841.409 825.19 847.429 825.793C849.924 826.027 852.419 826.328 854.88 826.696C884.749 831.048 913.853 843.837 942.79 870.217C944.353 871.623 945.883 873.062 947.447 874.569C947.513 874.77 947.58 874.803 947.613 874.87Z" fill="#D8DEE8"/>
</g>
<path d="M1073.04 492.428V599.99C1073.04 620.377 1057.71 637.785 1038.78 638.79L533.741 665.304C511.588 666.475 493.461 649.302 493.461 627.073V509.769C493.461 494.236 502.308 480.51 515.181 473.446C520.735 470.4 527.055 468.592 533.741 468.425L1038.78 456.239C1057.71 455.804 1073.04 472.04 1073.04 492.428Z" fill="#D8DEE8"/>
<path d="M1065.46 491.792C1065.46 474.015 1052.42 459.922 1035.92 460.323L532.61 472.81C513.318 473.279 497.552 489.381 497.552 508.731V623.959C497.552 643.309 513.451 658.173 532.743 657.202L1035.79 631.391C1052.29 630.554 1065.42 615.456 1065.42 597.68V491.792H1065.46Z" fill="white"/>
<path d="M710.193 536.216L720.171 555.331L742.256 557.307C744.618 557.507 745.583 560.319 743.853 562.027L727.921 578.062L731.713 599.287C732.112 601.563 729.617 603.505 727.488 602.534L707.565 593.663L687.408 605.179C685.213 606.417 682.652 604.811 683.084 602.434L686.976 580.473L670.512 565.977C668.716 564.404 669.713 561.458 672.175 560.956L694.892 556.604L704.937 536.45C706.002 534.274 709.128 534.14 710.193 536.216Z" fill="url(#paint41_linear)"/>
<path d="M793.047 532.433L802.526 551.08L823.548 553.055C825.809 553.256 826.707 556.001 825.078 557.675L809.91 573.308L813.503 593.997C813.902 596.24 811.507 598.115 809.478 597.178L790.519 588.474L771.36 599.655C769.265 600.86 766.837 599.287 767.236 596.977L770.928 575.551L755.262 561.391C753.566 559.851 754.497 556.972 756.858 556.503L778.478 552.285L788.058 532.634C789.022 530.525 792.016 530.391 793.047 532.433Z" fill="url(#paint42_linear)"/>
<path d="M871.91 528.818L880.957 547.029L901.014 548.971C903.176 549.171 904.007 551.85 902.477 553.49L888.008 568.756L891.434 588.976C891.8 591.152 889.538 592.993 887.609 592.089L869.548 583.552L851.288 594.466C849.292 595.637 846.964 594.098 847.363 591.855L850.889 570.965L835.954 557.139C834.324 555.633 835.222 552.82 837.451 552.385L858.04 548.301L867.153 529.119C868.118 526.976 870.945 526.842 871.91 528.818Z" fill="url(#paint43_linear)"/>
<path d="M947.147 525.403L955.762 543.213L974.887 545.121C976.949 545.322 977.748 547.933 976.284 549.54L962.481 564.404L965.74 584.155C966.106 586.298 963.944 588.072 962.082 587.168L944.852 578.832L927.423 589.445C925.527 590.583 923.299 589.076 923.665 586.867L927.024 566.479L912.788 552.954C911.258 551.481 912.09 548.736 914.218 548.301L933.843 544.351L942.557 525.637C943.488 523.595 946.216 523.461 947.147 525.403Z" fill="url(#paint44_linear)"/>
<path d="M1018.93 522.122L1027.17 539.53L1045.43 541.438C1047.4 541.639 1048.16 544.183 1046.77 545.757L1033.59 560.286L1036.72 579.602C1037.05 581.678 1034.99 583.419 1033.23 582.548L1016.76 574.38L1000.13 584.724C998.337 585.862 996.208 584.356 996.54 582.213L999.734 562.295L986.13 549.071C984.666 547.632 985.464 544.953 987.493 544.518L1006.22 540.668L1014.53 522.39C1015.47 520.348 1018.03 520.247 1018.93 522.122Z" fill="url(#paint45_linear)"/>
<path d="M937.002 503.408C937.002 507.459 933.576 510.874 929.751 510.974L683.783 518.875C679.659 519.009 676.465 515.728 676.465 511.476V507.827C676.465 503.609 679.492 500.061 683.617 499.96L929.918 492.729C933.743 492.629 937.002 495.809 937.002 499.86V503.408Z" fill="url(#paint46_linear)"/>
<path d="M588.722 628.613C553.431 630.287 524.461 602.568 524.461 566.814C524.461 531.06 553.431 501.098 588.722 500.094C623.646 499.09 651.819 526.842 651.819 561.96C651.819 597.044 623.68 626.939 588.722 628.613Z" fill="url(#paint47_linear)"/>
<path d="M646.763 562.127C646.763 594.466 620.919 621.917 588.722 623.39C556.258 624.897 529.683 599.488 529.683 566.58C529.683 533.672 556.225 506.221 588.722 505.25C620.886 504.312 646.763 529.755 646.763 562.127Z" fill="white"/>
<path d="M592.347 624.596C555.859 626.604 542.987 632.061 537.133 624.328C531.745 617.197 536.202 604.041 542.621 596.341C552.766 584.189 568.964 582.95 591.017 581.444C611.639 580.037 624.245 579.167 634.19 587.67C643.47 595.638 649.357 610.87 643.603 619.139C638.315 626.872 626.839 622.721 592.347 624.596Z" fill="url(#paint48_linear)"/>
<path d="M578.91 581.912L574.652 583.184C573.621 583.486 573.122 584.724 573.721 585.628C576.615 590.081 584.298 601.195 589.121 602.333C594.077 603.505 603.324 588.641 606.384 583.419C606.916 582.515 606.483 581.376 605.519 581.109L602.425 580.238C599.898 579.535 597.203 579.334 594.542 579.636L582.901 581.042C581.537 581.243 580.207 581.51 578.91 581.912Z" fill="url(#paint49_linear)"/>
<path d="M582.069 565.107C582.069 565.107 584.398 581.979 581.171 583.753L590.385 593.495L599.698 581.142C599.698 581.142 596.172 578.598 597.104 564.537L582.069 565.107Z" fill="url(#paint50_linear)"/>
<path d="M576.615 540.97C576.282 541.438 571.958 563.031 586.926 564.671C601.827 566.345 602.492 550.544 602.292 543.849C602.093 537.153 595.274 534.977 591.383 534.642C587.491 534.308 577.812 539.329 576.615 540.97Z" fill="url(#paint51_linear)"/>
<path d="M575.75 553.524C575.75 553.524 574.985 550.042 572.424 552.318C569.862 554.595 573.954 560.252 577.313 559.884L575.75 553.524Z" fill="url(#paint52_linear)"/>
<path d="M601.86 550.109C601.428 550.41 600.197 558.645 600.197 558.645C600.197 558.645 602.359 558.813 603.889 555.833C605.452 552.854 606.217 546.996 601.86 550.109Z" fill="url(#paint53_linear)"/>
<path d="M607.714 534.274C606.151 531.696 602.193 533.069 601.028 530.592C600.064 528.483 602.326 526.407 601.128 524.599C600.097 523.093 597.603 523.227 597.137 523.227C593.744 523.394 592.979 526.139 590.551 526.139C587.591 526.173 587.491 522.089 583.566 520.482C579.774 518.942 574.186 520.482 571.958 523.662C570.195 526.139 571.692 527.88 569.397 531.094C567.8 533.303 566.403 533.437 565.638 535.58C564.907 537.588 565.405 539.463 565.805 540.836C566.736 544.15 568.499 545.59 571.126 549.071C572.291 550.611 573.92 552.954 575.583 556.001C576.282 557.842 577.28 560.721 578.211 564.37C579.043 567.684 579.009 568.354 579.774 569.392C582.469 573.007 588.655 572.405 591.25 572.17C594.21 571.869 597.902 571.534 599.765 568.856C600.762 567.417 600.629 566.144 600.862 562.73C601.028 560.286 601.361 556.871 602.159 552.72C602.159 552.72 602.492 550.812 603.357 548.469C604.421 545.523 605.552 545.02 606.783 541.974C607.714 539.53 608.978 536.383 607.714 534.274ZM595.374 557.44C593.545 558.01 592.314 557.608 589.819 557.541C584.83 557.44 583.267 559.851 580.905 558.913C579.907 558.512 577.646 557.407 577.18 555.097C576.914 553.591 576.714 551.548 577.014 549.172C577.413 546.259 577.845 542.878 580.174 541.338C583.533 539.061 587.79 542.61 590.85 540.133C592.015 539.162 592.48 537.756 592.713 536.685C593.378 536.885 598.8 538.693 600.762 544.451C601.993 548 601.295 551.214 600.696 552.988C599.565 554.695 597.835 556.67 595.374 557.44Z" fill="url(#paint54_linear)"/>
<path d="M585.063 561.357C586.992 561.893 589.886 562.194 593.112 560.821C593.445 560.688 593.744 561.056 593.445 561.257C592.281 562.127 590.584 563.064 588.755 562.997C587.225 562.931 585.828 562.395 584.764 561.826C584.464 561.658 584.697 561.257 585.063 561.357Z" fill="url(#paint55_linear)"/>
<g opacity="0.3">
<path opacity="0.3" d="M947.613 643.577L533.741 665.303C511.588 666.475 493.461 649.301 493.461 627.073V509.769C493.461 494.236 502.308 480.51 515.181 473.446C516.544 474.317 517.908 475.221 519.239 476.158C519.538 476.359 519.804 476.56 520.103 476.794C532.942 486 543.852 498.153 550.305 514.121C550.97 515.761 551.602 517.469 552.167 519.21C552.167 519.243 552.201 519.277 552.201 519.277C555.261 528.717 558.587 537.622 562.212 545.924C573.554 571.769 588.19 591.754 609.943 603.337C614.433 605.748 619.256 607.79 624.378 609.43C626.241 610.033 628.17 610.568 630.099 611.071C651.187 616.427 677.53 615.724 711.024 607.622C713.485 607.02 715.947 606.417 718.375 605.848C719.739 605.513 721.102 605.179 722.499 604.877C737.866 601.195 752.867 597.78 767.569 595.069C768.6 594.901 769.631 594.7 770.629 594.533C775.052 593.763 779.443 593.027 783.833 592.424C787.126 591.955 790.419 591.52 793.679 591.152C794.377 591.085 795.076 590.984 795.774 590.951C799.267 590.583 802.726 590.281 806.185 590.047C808.38 589.913 810.576 589.779 812.738 589.679C818.259 589.444 823.78 589.411 829.235 589.612C835.355 589.813 841.409 590.315 847.429 591.152C849.924 591.487 852.419 591.888 854.88 592.323C884.749 597.747 913.853 611.539 942.79 638.957C944.353 640.43 945.883 641.936 947.447 643.476C947.513 643.443 947.58 643.51 947.613 643.577Z" fill="#D8DEE8"/>
</g>
</g>
<defs>
<linearGradient id="paint0_linear" x1="336.26" y1="644.191" x2="537.05" y2="945.337" gradientUnits="userSpaceOnUse">
<stop stop-color="#FFC444"/>
<stop offset="0.9964" stop-color="#F36F56"/>
</linearGradient>
<linearGradient id="paint1_linear" x1="337.854" y1="643.11" x2="538.654" y2="944.271" gradientUnits="userSpaceOnUse">
<stop stop-color="#FFC444"/>
<stop offset="0.9964" stop-color="#F36F56"/>
</linearGradient>
<linearGradient id="paint2_linear" x1="328.678" y1="649.198" x2="529.492" y2="950.385" gradientUnits="userSpaceOnUse">
<stop stop-color="#FFC444"/>
<stop offset="0.9964" stop-color="#F36F56"/>
</linearGradient>
<linearGradient id="paint3_linear" x1="335.189" y1="644.843" x2="536.046" y2="946.018" gradientUnits="userSpaceOnUse">
<stop stop-color="#FFC444"/>
<stop offset="0.9964" stop-color="#F36F56"/>
</linearGradient>
<linearGradient id="paint4_linear" x1="334.285" y1="645.46" x2="535.096" y2="946.649" gradientUnits="userSpaceOnUse">
<stop stop-color="#FFC444"/>
<stop offset="0.9964" stop-color="#F36F56"/>
</linearGradient>
<linearGradient id="paint5_linear" x1="334.864" y1="645.072" x2="535.689" y2="946.254" gradientUnits="userSpaceOnUse">
<stop stop-color="#FFC444"/>
<stop offset="0.9964" stop-color="#F36F56"/>
</linearGradient>
<linearGradient id="paint6_linear" x1="334.745" y1="650.189" x2="530.327" y2="948.798" gradientUnits="userSpaceOnUse">
<stop stop-color="#FFC444"/>
<stop offset="0.9964" stop-color="#F36F56"/>
</linearGradient>
<linearGradient id="paint7_linear" x1="333.697" y1="645.868" x2="534.497" y2="947.045" gradientUnits="userSpaceOnUse">
<stop stop-color="#FFC444"/>
<stop offset="0.9964" stop-color="#F36F56"/>
</linearGradient>
<linearGradient id="paint8_linear" x1="335.782" y1="646.256" x2="534.696" y2="946.566" gradientUnits="userSpaceOnUse">
<stop stop-color="#FFC444"/>
<stop offset="0.9964" stop-color="#F36F56"/>
</linearGradient>
<linearGradient id="paint9_linear" x1="335.621" y1="651.117" x2="506.259" y2="914.092" gradientUnits="userSpaceOnUse">
<stop stop-color="#FFC444"/>
<stop offset="0.9964" stop-color="#F36F56"/>
</linearGradient>
<linearGradient id="paint10_linear" x1="335.218" y1="644.888" x2="536.001" y2="946.036" gradientUnits="userSpaceOnUse">
<stop stop-color="#FFC444"/>
<stop offset="0.9964" stop-color="#F36F56"/>
</linearGradient>
<linearGradient id="paint11_linear" x1="335.402" y1="644.699" x2="536.263" y2="945.874" gradientUnits="userSpaceOnUse">
<stop stop-color="#FFC444"/>
<stop offset="0.9964" stop-color="#F36F56"/>
</linearGradient>
<linearGradient id="paint12_linear" x1="744.776" y1="377.802" x2="703.086" y2="1079.02" gradientUnits="userSpaceOnUse">
<stop stop-color="#40447E"/>
<stop offset="0.9964" stop-color="#3C3B6B"/>
</linearGradient>
<linearGradient id="paint13_linear" x1="469.266" y1="344.927" x2="1052.71" y2="344.927" gradientUnits="userSpaceOnUse">
<stop offset="0.00359712" stop-color="#E38DDD"/>
<stop offset="1" stop-color="#9571F6"/>
</linearGradient>
<linearGradient id="paint14_linear" x1="469.266" y1="821.115" x2="1052.71" y2="821.115" gradientUnits="userSpaceOnUse">
<stop offset="0.00359712" stop-color="#E38DDD"/>
<stop offset="1" stop-color="#9571F6"/>
</linearGradient>
<linearGradient id="paint15_linear" x1="469.266" y1="583.295" x2="1052.71" y2="583.295" gradientUnits="userSpaceOnUse">
<stop offset="0.00359712" stop-color="#E38DDD"/>
<stop offset="1" stop-color="#9571F6"/>
</linearGradient>
<linearGradient id="paint16_linear" x1="770.256" y1="221.258" x2="857.193" y2="656.791" gradientUnits="userSpaceOnUse">
<stop stop-color="#FFC444"/>
<stop offset="0.9964" stop-color="#F36F56"/>
</linearGradient>
<linearGradient id="paint17_linear" x1="846.679" y1="206.595" x2="932.544" y2="636.758" gradientUnits="userSpaceOnUse">
<stop stop-color="#FFC444"/>
<stop offset="0.9964" stop-color="#F36F56"/>
</linearGradient>
<linearGradient id="paint18_linear" x1="800.133" y1="237.781" x2="813.389" y2="304.194" gradientUnits="userSpaceOnUse">
<stop stop-color="#FF9085"/>
<stop offset="1" stop-color="#FB6FBB"/>
</linearGradient>
<linearGradient id="paint19_linear" x1="599.056" y1="270.592" x2="495.979" y2="747.942" gradientUnits="userSpaceOnUse">
<stop stop-color="#FF9085"/>
<stop offset="1" stop-color="#FB6FBB"/>
</linearGradient>
<linearGradient id="paint20_linear" x1="626.328" y1="267.172" x2="596.276" y2="325.644" gradientUnits="userSpaceOnUse">
<stop stop-color="#40447E"/>
<stop offset="0.9964" stop-color="#3C3B6B"/>
</linearGradient>
<linearGradient id="paint21_linear" x1="626.388" y1="267.35" x2="596.366" y2="325.765" gradientUnits="userSpaceOnUse">
<stop stop-color="#40447E"/>
<stop offset="0.9964" stop-color="#3C3B6B"/>
</linearGradient>
<linearGradient id="paint22_linear" x1="593.346" y1="404.991" x2="585.276" y2="346.857" gradientUnits="userSpaceOnUse">
<stop stop-color="#FF9085"/>
<stop offset="1" stop-color="#FB6FBB"/>
</linearGradient>
<linearGradient id="paint23_linear" x1="590.389" y1="364.141" x2="588.506" y2="323.542" gradientUnits="userSpaceOnUse">
<stop stop-color="#FFC444"/>
<stop offset="0.9964" stop-color="#F36F56"/>
</linearGradient>
<linearGradient id="paint24_linear" x1="588.346" y1="328.422" x2="589.068" y2="300.933" gradientUnits="userSpaceOnUse">
<stop stop-color="#FFC444"/>
<stop offset="0.9964" stop-color="#F36F56"/>
</linearGradient>
<linearGradient id="paint25_linear" x1="576.681" y1="325.597" x2="577.341" y2="300.485" gradientUnits="userSpaceOnUse">
<stop stop-color="#FFC444"/>
<stop offset="0.9964" stop-color="#F36F56"/>
</linearGradient>
<linearGradient id="paint26_linear" x1="599.668" y1="326.134" x2="600.327" y2="301.063" gradientUnits="userSpaceOnUse">
<stop stop-color="#FFC444"/>
<stop offset="0.9964" stop-color="#F36F56"/>
</linearGradient>
<linearGradient id="paint27_linear" x1="667.706" y1="715.706" x2="977.41" y2="1412.99" gradientUnits="userSpaceOnUse">
<stop stop-color="#FFC444"/>
<stop offset="0.9964" stop-color="#F36F56"/>
</linearGradient>
<linearGradient id="paint28_linear" x1="738.097" y1="679.911" x2="1043.73" y2="1368.02" gradientUnits="userSpaceOnUse">
<stop stop-color="#FFC444"/>
<stop offset="0.9964" stop-color="#F36F56"/>
</linearGradient>
<linearGradient id="paint29_linear" x1="805.158" y1="645.866" x2="1106.92" y2="1325.27" gradientUnits="userSpaceOnUse">
<stop stop-color="#FFC444"/>
<stop offset="0.9964" stop-color="#F36F56"/>
</linearGradient>
<linearGradient id="paint30_linear" x1="869.119" y1="613.443" x2="1167.21" y2="1284.59" gradientUnits="userSpaceOnUse">
<stop stop-color="#FFC444"/>
<stop offset="0.9964" stop-color="#F36F56"/>
</linearGradient>
<linearGradient id="paint31_linear" x1="801.798" y1="718.589" x2="811.674" y2="768.065" gradientUnits="userSpaceOnUse">
<stop stop-color="#FF9085"/>
<stop offset="1" stop-color="#FB6FBB"/>
</linearGradient>
<linearGradient id="paint32_linear" x1="599.238" y1="756.302" x2="494.441" y2="1241.62" gradientUnits="userSpaceOnUse">
<stop stop-color="#FF9085"/>
<stop offset="1" stop-color="#FB6FBB"/>
</linearGradient>
<linearGradient id="paint33_linear" x1="590.267" y1="876.705" x2="588.27" y2="849.721" gradientUnits="userSpaceOnUse">
<stop stop-color="#AA80F9"/>
<stop offset="0.9964" stop-color="#6165D7"/>
</linearGradient>
<linearGradient id="paint34_linear" x1="588.548" y1="837.149" x2="588.096" y2="809.74" gradientUnits="userSpaceOnUse">
<stop stop-color="#AA80F9"/>
<stop offset="0.9964" stop-color="#6165D7"/>
</linearGradient>
<linearGradient id="paint35_linear" x1="588.758" y1="839.571" x2="588.617" y2="817.167" gradientUnits="userSpaceOnUse">
<stop stop-color="#AB316D"/>
<stop offset="1" stop-color="#792D3D"/>
</linearGradient>
<linearGradient id="paint36_linear" x1="586.88" y1="807.802" x2="590.617" y2="763.11" gradientUnits="userSpaceOnUse">
<stop stop-color="#AB316D"/>
<stop offset="1" stop-color="#792D3D"/>
</linearGradient>
<linearGradient id="paint37_linear" x1="574.021" y1="807.333" x2="577.645" y2="763.984" gradientUnits="userSpaceOnUse">
<stop stop-color="#AB316D"/>
<stop offset="1" stop-color="#792D3D"/>
</linearGradient>
<linearGradient id="paint38_linear" x1="601.541" y1="807.929" x2="605.29" y2="763.079" gradientUnits="userSpaceOnUse">
<stop stop-color="#AB316D"/>
<stop offset="1" stop-color="#792D3D"/>
</linearGradient>
<linearGradient id="paint39_linear" x1="585.874" y1="786.627" x2="596.001" y2="755.419" gradientUnits="userSpaceOnUse">
<stop stop-color="#311944"/>
<stop offset="1" stop-color="#6B3976"/>
</linearGradient>
<linearGradient id="paint40_linear" x1="585.946" y1="786.402" x2="596.262" y2="754.615" gradientUnits="userSpaceOnUse">
<stop stop-color="#311944"/>
<stop offset="1" stop-color="#6B3976"/>
</linearGradient>
<linearGradient id="paint41_linear" x1="749.59" y1="406.951" x2="630.27" y2="837.067" gradientUnits="userSpaceOnUse">
<stop stop-color="#FFC444"/>
<stop offset="0.9964" stop-color="#F36F56"/>
</linearGradient>
<linearGradient id="paint42_linear" x1="825.658" y1="427.824" x2="707.967" y2="852.069" gradientUnits="userSpaceOnUse">
<stop stop-color="#FFC444"/>
<stop offset="0.9964" stop-color="#F36F56"/>
</linearGradient>
<linearGradient id="paint43_linear" x1="898.116" y1="447.635" x2="781.97" y2="866.313" gradientUnits="userSpaceOnUse">
<stop stop-color="#FFC444"/>
<stop offset="0.9964" stop-color="#F36F56"/>
</linearGradient>
<linearGradient id="paint44_linear" x1="967.216" y1="466.463" x2="852.534" y2="879.861" gradientUnits="userSpaceOnUse">
<stop stop-color="#FFC444"/>
<stop offset="0.9964" stop-color="#F36F56"/>
</linearGradient>
<linearGradient id="paint45_linear" x1="1033.18" y1="484.383" x2="919.896" y2="892.757" gradientUnits="userSpaceOnUse">
<stop stop-color="#FFC444"/>
<stop offset="0.9964" stop-color="#F36F56"/>
</linearGradient>
<linearGradient id="paint46_linear" x1="800.96" y1="476.472" x2="812.537" y2="534.469" gradientUnits="userSpaceOnUse">
<stop stop-color="#FF9085"/>
<stop offset="1" stop-color="#FB6FBB"/>
</linearGradient>
<linearGradient id="paint47_linear" x1="599.141" y1="512.736" x2="495.262" y2="993.801" gradientUnits="userSpaceOnUse">
<stop stop-color="#FF9085"/>
<stop offset="1" stop-color="#FB6FBB"/>
</linearGradient>
<linearGradient id="paint48_linear" x1="629.328" y1="535.237" x2="573.313" y2="644.787" gradientUnits="userSpaceOnUse">
<stop stop-color="#FF9085"/>
<stop offset="1" stop-color="#FB6FBB"/>
</linearGradient>
<linearGradient id="paint49_linear" x1="589.273" y1="624.546" x2="590.346" y2="566.307" gradientUnits="userSpaceOnUse">
<stop stop-color="#311944"/>
<stop offset="0.5554" stop-color="#6F2B60"/>
<stop offset="1" stop-color="#A03976"/>
</linearGradient>
<linearGradient id="paint50_linear" x1="590.196" y1="599.446" x2="590.622" y2="567.181" gradientUnits="userSpaceOnUse">
<stop stop-color="#FFC444"/>
<stop offset="0.9964" stop-color="#F36F56"/>
</linearGradient>
<linearGradient id="paint51_linear" x1="587.265" y1="563.682" x2="590.768" y2="531.89" gradientUnits="userSpaceOnUse">
<stop stop-color="#FFC444"/>
<stop offset="0.9964" stop-color="#F36F56"/>
</linearGradient>
<linearGradient id="paint52_linear" x1="574.493" y1="563.105" x2="574.351" y2="531.64" gradientUnits="userSpaceOnUse">
<stop stop-color="#FFC444"/>
<stop offset="0.9964" stop-color="#F36F56"/>
</linearGradient>
<linearGradient id="paint53_linear" x1="601.597" y1="564.887" x2="605.125" y2="532.862" gradientUnits="userSpaceOnUse">
<stop stop-color="#FFC444"/>
<stop offset="0.9964" stop-color="#F36F56"/>
</linearGradient>
<linearGradient id="paint54_linear" x1="565.237" y1="546.147" x2="608.24" y2="546.147" gradientUnits="userSpaceOnUse">
<stop stop-color="#444B8C"/>
<stop offset="0.9964" stop-color="#3E4177"/>
</linearGradient>
<linearGradient id="paint55_linear" x1="592.501" y1="531.664" x2="589.471" y2="557.655" gradientUnits="userSpaceOnUse">
<stop stop-color="#FFC444"/>
<stop offset="0.9964" stop-color="#F36F56"/>
</linearGradient>
<clipPath id="clip0">
<rect width="1440" height="1024" fill="white"/>
</clipPath>
</defs>
</svg>
